<?xml version="1.0" encoding="UTF-8"?>
<svg id="Camada_2" data-name="Camada 2" xmlns="http://www.w3.org/2000/svg" viewBox="0 0 841.92 267.11">
  <defs>
    <style>
      .cls-1 {
        fill: #015593;
      }

      .cls-1, .cls-2 {
        stroke-width: 0px;
      }

      .cls-2 {
        fill: #7dc22b;
      }
    </style>
  </defs>
  <g id="Camada_1-2" data-name="Camada 1">
    <g>
      <path class="cls-1" d="M670.18,24.14c-9.35-1.39-18.71-2.76-28.05-4.18-25.37-3.86-50.89-6.13-76.48-7.94-34.29-2.43-68.61-2.39-102.91-1.66-53.87,1.15-107.31,6.72-160.17,17.48-42.5,8.65-84.03,20.25-123,39.71-17.81,8.89-34.54,19.46-48.25,34.15-10.36,11.1-17.81,23.76-18.12,39.44-.33,16.32,7.19,29.48,17.86,41.05,14.34,15.53,32.08,26.38,50.83,35.61,33.75,16.63,69.56,27.25,106.13,35.5,17.37,3.92,34.87,7.15,52.48,9.81,6.95,1.05,13.88,2.28,20.96,3.98-1.41,0-2.82.05-4.23,0-24.12-1.07-48.15-3.16-72.15-5.81-32.22-3.56-64.24-8.39-95.93-15.21-45.37-9.76-89.93-22.07-131.21-44-17.73-9.42-34.44-20.4-46.63-36.82-15.85-21.34-14.92-43.97,2.23-64.27,14.83-17.56,34.02-29.09,54.32-38.98,35.56-17.34,73.32-28.13,111.73-36.88,36.16-8.24,72.77-13.96,109.62-17.83C350.55.85,412.09-1.34,473.79.79c31.64,1.1,63.2,3.12,94.66,6.45,28.92,3.06,57.71,7.27,86.26,12.88,5.13,1.01,10.23,2.2,15.34,3.31.05.23.09.47.14.7Z"/>
      <path class="cls-2" d="M258.15,220.49c17.35,4.31,34.75,8,52.29,11.07,29.89,5.24,60.02,8.34,90.3,10.04,31.79,1.78,63.56,2.01,95.37.08,59.54-3.61,118.29-11.51,174.81-31.64,22.68-8.08,44.43-18.03,62.83-34.08,5.69-4.96,10.65-10.54,14.4-17.13,7.34-12.89,7.65-25.91.56-39.02-6.45-11.93-16.44-20.44-27.45-27.81-22.66-15.17-47.92-24.49-73.85-32.18-27.5-8.16-55.62-13.41-83.99-17.39-2.76-.39-5.41-2.9-9.54-.33,9.48.38,17.9.43,26.26,1.1,64.91,5.17,129.02,14.48,190.23,38.03,19.64,7.55,38.43,16.85,54.19,31.25,1.11,1.01,2.2,2.04,3.24,3.11,18.78,19.27,18.85,40.65.01,59.9-13.04,13.33-29.1,22.1-45.92,29.56-35.84,15.89-73.63,25.07-112.05,31.86-66.51,11.74-133.61,15.54-201.03,13.76-61.05-1.6-121.6-7.67-181.19-21.67-9.98-2.35-19.94-4.82-29.49-8.51Z"/>
      <path class="cls-2" d="M629.93,161.06c1.77-9.24,3.45-17.99,5.13-26.73l-.93-.5c-4.78,6.09-9.56,12.17-14.34,18.26-4.35,5.54-8.93,4.98-11.65-1.44-2.46-5.77-4.91-11.55-7.93-18.63-1.9,9.32-3.72,17.22-5.04,25.19-.54,3.25-1.88,4.11-4.91,3.9-3.28-.23-6.6-.05-10.19-.05,3.54-17.65,7.01-34.76,10.34-51.91.47-2.44,1.47-3.12,3.91-3.16,9.34-.17,9.3-.26,12.73,8.31,3.03,7.56,6.16,15.08,9.24,22.6,2,.09,2.49-1.62,3.35-2.7,6.75-8.45,13.42-16.97,20.15-25.44,1.73-2.18,12.05-3.94,14.35-2.55,1.2.73.61,1.7.44,2.59-3.24,16.48-6.51,32.95-9.73,49.43-.37,1.88-1.04,2.95-3.22,2.86-3.79-.15-7.6-.04-11.7-.04Z"/>
      <path class="cls-2" d="M648.81,161.06c10.32-16.01,20.12-31.2,29.91-46.39.18-.28.37-.55.55-.83,5.09-7.81,9.07-9.43,18.42-7.81,1.68.29,2.1,1.11,2.44,2.54,3.98,16.64,8,33.27,12.09,49.88.47,1.92.24,2.79-1.92,2.64-1.49-.11-2.99-.02-4.49-.02-8.04,0-8.16.03-9.87-7.92-.54-2.53-1.68-3.24-4.06-3.11-2.82.16-5.68.28-8.48-.01-7.75-.82-14.49-.01-17.08,8.96-.56,1.94-2.23,2.14-4.03,2.11-4.15-.08-8.3-.02-13.5-.02ZM689.11,120.77c-3.15,5.28-5.76,9.58-8.29,13.94-.63,1.08-2.32,2.89-1.37,3.33,3.65,1.69,7.71.47,11.61.68.93.05,1.56-.47,1.55-1.49,0-.32-.1-.65-.17-.97-1.03-4.78-2.06-9.56-3.33-15.49Z"/>
      <path class="cls-2" d="M484.74,105.03c6.91.23,13.46,1.71,18.99,6.29,2.56,2.12,3.84,4.18.03,6.38-1.14.66-2.16,1.59-3.06,2.55-2.79,2.95-4.96,3.94-8.71.47-5.07-4.67-14.63-3.41-20.2,1.6-5.76,5.18-7.88,15.09-4.48,20.97,3.73,6.47,14.84,8.2,21.69,2.61,3.63-2.96,5.46-2.07,7.8.88.82,1.04,1.79,1.99,2.82,2.82,2.16,1.74,1.61,3.11-.15,4.84-10.75,10.55-34.14,10.06-43.72-.99-9.75-11.24-6.59-31.21,6.55-41.21,6.61-5.03,14.21-7.05,22.46-7.21Z"/>
      <path class="cls-1" d="M418.54,105.07c9.18.43,18.59,2.94,23.03,13.03,5.08,11.55,2.5,22.64-5.21,32.26-9.16,11.42-27.31,15.04-40.46,8.6-10.67-5.23-14.8-17.81-10.38-31.6,4.39-13.67,16.84-22.33,33.02-22.29ZM410.99,153.07c13.61,0,24.21-11.65,22.82-25.25-.58-5.69-3.31-10-8.8-12.3-9.59-4.02-21.85-.34-27.2,8.58-4.02,6.69-5.7,13.95-1.96,21.34,3.08,6.08,8.82,7.6,15.14,7.62Z"/>
      <path class="cls-1" d="M252.46,160.64c-.84.23-1.15.35-1.47.4-6.13.91-11.12-.27-13.05-7.1-.13-.46-.53-.84-.78-1.27-4.38-7.75-7.31-9.02-16.23-7.67-2.16.33-2.21,1.69-2.51,3.05-.74,3.41-1.44,6.83-1.97,10.28-.29,1.91-.9,2.72-3.09,2.83-7.74.36-7.81.46-6.33-7.04,2.95-14.97,6.01-29.92,9-44.89.34-1.71.58-3.22,2.93-3.17,7.81.17,15.68-.29,23.43.46,10.04.97,15.17,5.72,16.49,13.77,1.4,8.46-3.14,18.1-11.28,21.41-4.71,1.91-4.16,3.57-2.02,6.88,2.41,3.75,4.43,7.74,6.88,12.08ZM228.79,136.76c4.82.07,9.66.12,14.07-2.28,4.38-2.38,6.9-7.94,5.88-12.68-.93-4.36-4.29-6.68-10.19-6.96-1.82-.09-3.65-.02-5.48-.02q-7.69,0-9.29,7.42c-.49,2.27-1.06,4.52-1.51,6.8q-1.53,7.73,6.53,7.73Z"/>
      <path class="cls-1" d="M145.92,137.74c.6-28.88,29.66-38.36,49.06-29.4,1.34.62,2.73,1.42,3.67,2.51,1.05,1.22,4.67,2.09,1.91,4.33-2.15,1.75-3.55,6.67-8.22,2.87-6.74-5.5-18.55-5.38-26.22-.26-7.51,5.03-11.79,15.58-9.74,24,2.44,10.01,19.51,15.63,27.37,9.03,1.03-.86,1.05-2,1.27-3.12.74-3.75,1.55-7.49,2.19-11.26.41-2.44,1.27-3.71,4.14-3.58,6.98.3,6.42-.54,4.95,6.14-.75,3.4-1.78,6.81-1.98,10.26-.31,5.5-3.42,8.17-8.14,10-7.7,2.99-15.48,3.66-23.43,1.43-10.85-3.04-16.93-11.38-16.84-22.95Z"/>
      <path class="cls-1" d="M325.13,160.65c3.47-17.22,6.94-34.41,10.4-51.61.33-1.62.45-3.11,2.91-3.04,7.32.22,14.67-.25,21.96.28,10.58.77,16.64,5.82,17.63,13.77,1.25,10.02-4.05,19.25-13.26,22.74-5.52,2.09-11.33,2.37-17.2,2.3-9.01-.11-9.01-.03-10.84,8.57q-1.73,8.15-11.61,6.99ZM349.1,136.32c4.64-.06,9.35.29,13.56-2.34,4.3-2.69,5.71-6.73,5.3-11.54-.33-3.76-2.58-6.26-6.13-6.98-5.56-1.12-11.77-2.09-16.65.17-3.01,1.4-2.17,7.53-3.14,11.52-.04.16-.05.33-.08.49q-1.71,8.67,7.13,8.68Z"/>
      <path class="cls-1" d="M282.97,106.07c-2.19,11-4.29,21.4-6.32,31.81-1.3,6.67.26,11.27,4.48,13.61,5.19,2.89,13.48,1.89,17.76-2.06,3.61-3.34,5.03-7.77,5.98-12.34,1.82-8.76,3.46-17.56,5.17-26.35.77-3.98,6.54-6.58,10.1-4.6,1.35.75.47,1.71.31,2.53-2.16,10.91-3.96,21.92-6.65,32.71-4.09,16.42-18.95,24.38-35.12,19.39-8.54-2.63-13.89-10.51-12.47-19.67,1.67-10.82,4.04-21.54,6.1-32.3.34-1.8,1.03-2.99,3.26-2.78,2.29.22,4.62.05,7.41.05Z"/>
      <path class="cls-2" d="M526.27,161.06c-5.82,0-11.65-.09-17.47.04-2.49.06-3.19-.74-2.69-3.18,3.34-16.27,6.63-32.55,9.83-48.85.43-2.2,1.32-2.94,3.59-3.07,12.73-.72,12.75-.78,10.32,11.48-1.78,8.97-3.51,17.94-5.5,26.86-.75,3.34,0,4.48,3.51,4.36,6.32-.22,12.64-.01,18.97-.09,2.1-.03,2.8.36,2.5,2.81-1.17,9.63-1.05,9.64-10.59,9.64-4.16,0-8.32,0-12.48,0Z"/>
      <path class="cls-2" d="M579.88,106.06c-3.54,17.65-7.02,34.76-10.35,51.9-.47,2.44-1.47,3.11-3.91,3.17-12.41.31-12.41.39-9.94-11.87,2.67-13.2,5.47-26.38,7.92-39.62.56-3.05,1.78-3.77,4.57-3.63,3.79.2,7.6.05,11.71.05Z"/>
      <path class="cls-1" d="M379.13,187.49c0,3.25-.03,5.9.01,8.55.03,1.47-.59,2.01-2.07,2.03-1.48.02-2.09-.51-2.08-2,.04-4.98,0-9.95.03-14.93,0-.75-.27-1.77.89-1.98,1.33-.24,2.55-.25,3.55,1.04,2.42,3.14,4.95,6.19,8.42,10.5,0-3.84.03-6.35-.01-8.86-.03-1.61,0-2.93,2.28-2.83,2.09.09,1.85,1.41,1.86,2.71.01,4.48.05,8.96-.03,13.44-.02,1,.68,2.48-1.08,2.82-1.38.27-2.46-.16-3.48-1.31-2.62-2.97-4.49-6.66-8.3-9.18Z"/>
      <path class="cls-1" d="M504.98,190.62c0-3.82,0-6.24,0-8.67,0-1.5-.27-3.02,2.16-2.93,2.48.08,1.94,1.77,1.96,3.14.05,4.33.06,8.65-.01,12.98-.02,1.02.61,2.48-1.11,2.84-1.21.25-2.26-.04-3.07-1.12-2.3-3.05-4.64-6.06-7.32-9.55-1.08,2.48-.27,4.76-.61,6.87-.25,1.5,1.18,3.98-2.15,3.89-2.89-.08-1.87-2.23-1.92-3.63-.12-3.99-.11-7.99,0-11.98.03-1.15-.83-2.82,1.12-3.32,1.71-.44,2.76.55,3.71,1.86,2.05,2.82,4.19,5.57,7.26,9.63Z"/>
      <path class="cls-1" d="M572.61,179.07c5.53-.13,10.21,4.06,10.36,9.27.14,5.26-4.24,9.55-9.91,9.7-5.71.15-10.12-3.84-10.22-9.26-.11-5.49,4.01-9.57,9.78-9.71ZM566.97,188.53c.08,3.84,2.3,6.01,5.86,6.02,3.56.01,5.93-2.23,5.94-5.97.01-3.74-2.34-6.01-5.9-6.01-3.54,0-5.8,2.13-5.9,5.97Z"/>
      <path class="cls-1" d="M486.98,188.38c.12,5.25-4.29,9.54-9.95,9.66-5.72.13-10.1-3.87-10.19-9.3-.09-5.48,4.05-9.56,9.82-9.67,5.55-.11,10.2,4.09,10.32,9.31ZM482.86,188.55c-.29-3.72-2.42-6.01-5.99-5.99-3.53.02-5.86,2.13-5.85,5.99,0,3.85,2.3,5.98,5.85,5.99,3.57,0,5.71-2.27,5.99-5.99Z"/>
      <path class="cls-1" d="M369.15,188.45c.05,5.46-4.14,9.53-9.89,9.59-5.62.06-10.17-4.1-10.24-9.37-.07-5.26,4.36-9.51,10.01-9.6,5.71-.09,10.07,3.95,10.13,9.38ZM353.14,188.44c.21,3.6,2.16,6.03,5.79,6.11,3.53.08,5.93-1.92,6.05-5.79.12-3.86-2.13-6.08-5.65-6.2-3.54-.13-5.8,2.07-6.19,5.89Z"/>
      <path class="cls-1" d="M538.98,189.07c0-.94-.1-1.46.02-1.93.65-2.65-1.77-7.1,1.5-7.75,4.99-.99,10.84-1.6,15.02,2.76,2.86,2.98,3.13,6.79,1.47,10.67-.84,1.96-2.34,3.16-4.13,4.11-.29.15-.62.22-.94.33-4.04,1.29-8.65,1.87-12.12.24-2.31-1.09-.4-5.8-.82-8.42ZM546.21,182.36c-3.21.06-3.17.06-3.13,8.09.01,2.45-.26,4.63,3.43,4.37,4.52-.32,7.42-2.63,7.33-6.41-.1-3.74-3.12-6.14-7.63-6.05Z"/>
      <path class="cls-1" d="M399,188.19c0-9.73,1.64-11.01,11.31-8.8,4.88,1.11,7.61,4.32,7.68,9.04.08,4.87-2.78,8.44-7.92,9.29-2.75.46-5.62.15-8.42.38-2.34.19-2.79-.94-2.68-2.94.12-2.31.03-4.64.03-6.96ZM402.97,188.38c1.41,1.91-2.41,6.38,3.3,6.38,4.52,0,7.52-2.35,7.59-6.1.07-3.79-2.84-6.11-7.37-6.34-5.27-.27-2.68,3.68-3.52,6.06Z"/>
      <path class="cls-1" d="M313.07,197.59c-3.22,1.21-4.98-.1-6.2-2.32-1.02-1.88-2.5-2.48-4.51-2.19-2.15.31-1.25,2.02-1.29,3.12-.07,1.6-.86,1.85-2.2,1.88-1.56.04-1.99-.7-1.98-2.09.03-4.97,0-9.93.04-14.9,0-.59.21-1.39.62-1.73,3.28-2.66,13.76.63,15.1,4.66.62,1.85.76,4.01-.56,5.19-3.52,3.17-1.33,5.59.98,8.38ZM301.06,186c-.15,2.1-.35,4.13,2.83,3.78,2.44-.27,4.88-.67,4.9-3.69.02-3.03-2.4-3.47-4.84-3.75-3.11-.36-3.1,1.56-2.89,3.66Z"/>
      <path class="cls-1" d="M534.63,197.53c-4.9,2.74-5.42-4.06-10.07-4.03-4.53.03-5.03,6.71-9.95,3.95,2.39-5.51,4.82-10.96,7.1-16.47.62-1.5,1.53-1.89,3.03-1.97,1.7-.09,2.31.86,2.86,2.16,2.33,5.46,4.68,10.92,7.02,16.36ZM524.37,183.83c-.99,2.6-1.75,4.57-2.54,6.65,1.96.48,4.33,1.2,4.85-.19.74-1.96-.9-4.03-2.31-6.46Z"/>
      <path class="cls-1" d="M272.18,198.02c2.57-6.05,4.81-11.4,7.11-16.74.51-1.19.98-2.35,2.78-2.29,1.77.06,2.68.7,3.34,2.32,1.88,4.61,3.96,9.14,5.88,13.74.38.9,1.81,2.16.07,2.84-1.02.4-2.37.57-3.5-.85-3.43-4.32-7.21-4.26-11.03.04-1.3,1.46-2.68.76-4.64.94ZM282.74,183.79c-1.64,2.39-3.05,4.34-2.39,6.73.11.42,3.16.8,3.62.22,1.96-2.47-1.15-4.19-1.23-6.95Z"/>
      <path class="cls-1" d="M337.83,179.01c.71.13,1.56.19,2.32.46,1.77.64,4.89.83,4.28,3.1-.71,2.66-3.22.81-5,.3-2.69-.78-4.92-.01-6.44,2.33-1.5,2.31-1.44,4.79.17,6.99,1.62,2.21,3.92,2.91,6.57,1.95.77-.28,1.45-.79,2.23-1.05,1.14-.38,2,.32,2.46,1.18.65,1.21-.51,1.81-1.29,2.23-3.98,2.14-8.01,2.15-11.68-.56-3.65-2.69-4.43-6.54-3.05-10.66,1.45-4.33,5.1-5.79,9.42-6.27Z"/>
      <path class="cls-1" d="M438.01,188.48c-.05,4.49,3.73,7.11,8.18,5.45,1.61-.6,3.4-1.76,4.15.37.73,2.08-1.56,2.45-3.03,2.97-4.56,1.63-9.65.25-11.94-3.45-2.31-3.72-2.25-7.59.46-11.12,2.65-3.45,7.97-4.53,12.22-2.66,1.18.52,2.98,1.11,2.44,2.55-.47,1.27-1.86,1.56-3.72.85-5.1-1.95-8.71.35-8.77,5.04Z"/>
      <path class="cls-1" d="M456.87,188.37c0-2.33.06-4.67-.02-6.99-.06-1.67.5-2.4,2.28-2.35,1.64.04,1.88.9,1.87,2.22-.02,4.83-.05,9.66.02,14.49.02,1.65-.45,2.41-2.25,2.35-1.61-.06-1.92-.88-1.9-2.21.03-2.5,0-5,0-7.49Z"/>
      <path class="cls-1" d="M427.99,189.03c0,2.33-.04,4.66.01,6.99.03,1.45-.51,2.07-2.03,2.06-1.46,0-2.12-.5-2.11-2,.03-5,.03-9.99,0-14.99,0-1.45.55-2.05,2.05-2.06,1.48,0,2.12.5,2.09,2-.05,2.66-.01,5.33-.01,7.99Z"/>
    </g>
  </g>
</svg>