<svg xmlns="http://www.w3.org/2000/svg" version="1.1" xmlns:xlink="http://www.w3.org/1999/xlink" xmlns:svgjs="http://svgjs.dev/svgjs" width="800" height="800" preserveAspectRatio="none" viewBox="0 0 800 800"><g mask="url(&quot;#SvgjsMask1735&quot;)" fill="none"><rect width="800" height="800" x="0" y="0" fill="url(&quot;#SvgjsLinearGradient1736&quot;)"></rect><circle r="12.83" cx="46.94" cy="509.53999999999996" filter="url(#SvgjsFilter1737)" fill="rgba(0, 164, 205, 0.21)"></circle><circle r="12.27" cx="645.65" cy="281.84" filter="url(#SvgjsFilter1737)" fill="rgba(0, 164, 205, 0.21)"></circle><circle r="7.495" cx="502.595" cy="368.975" filter="url(#SvgjsFilter1737)" fill="rgba(0, 164, 205, 0.21)"></circle><circle r="12.155" cx="116.615" cy="806.245" filter="url(#SvgjsFilter1737)" fill="rgba(0, 164, 205, 0.21)"></circle><circle r="11.3" cx="497.67" cy="681.38" filter="url(#SvgjsFilter1737)" fill="rgba(0, 164, 205, 0.21)"></circle><circle r="10.165" cx="343.27500000000003" cy="760.495" filter="url(#SvgjsFilter1737)" fill="rgba(0, 164, 205, 0.21)"></circle><circle r="8.1" cx="337.05" cy="247.16" filter="url(#SvgjsFilter1737)" fill="rgba(0, 164, 205, 0.21)"></circle><circle r="6.765" cx="315.47499999999997" cy="507.655" filter="url(#SvgjsFilter1737)" fill="rgba(0, 164, 205, 0.21)"></circle><circle r="8.83" cx="13.86" cy="457.40999999999997" filter="url(#SvgjsFilter1737)" fill="rgba(0, 164, 205, 0.21)"></circle><circle r="7.65" cx="68.14" cy="766.04" filter="url(#SvgjsFilter1737)" fill="rgba(0, 164, 205, 0.21)"></circle><circle r="12.42" cx="192.23" cy="543.89" filter="url(#SvgjsFilter1737)" fill="rgba(0, 164, 205, 0.21)"></circle><circle r="7.785" cx="374.89500000000004" cy="23.275" filter="url(#SvgjsFilter1737)" fill="rgba(0, 164, 205, 0.21)"></circle><circle r="10.475" cx="552.645" cy="52.975" filter="url(#SvgjsFilter1737)" fill="rgba(0, 164, 205, 0.21)"></circle><circle r="7.415" cx="468.21500000000003" cy="44.085" filter="url(#SvgjsFilter1737)" fill="rgba(0, 164, 205, 0.21)"></circle><circle r="11.015" cx="214.485" cy="683.8149999999999" filter="url(#SvgjsFilter1737)" fill="rgba(0, 164, 205, 0.21)"></circle><circle r="7.37" cx="482.54" cy="413.15" filter="url(#SvgjsFilter1737)" fill="rgba(0, 164, 205, 0.21)"></circle><circle r="9.61" cx="777.5" cy="739.12" filter="url(#SvgjsFilter1737)" fill="rgba(0, 164, 205, 0.21)"></circle><circle r="6.92" cx="596.4799999999999" cy="472.05" filter="url(#SvgjsFilter1737)" fill="rgba(0, 164, 205, 0.21)"></circle><circle r="7.175" cx="43.915" cy="504.755" filter="url(#SvgjsFilter1737)" fill="rgba(0, 164, 205, 0.21)"></circle><circle r="9.27" cx="373.85999999999996" cy="391.81" filter="url(#SvgjsFilter1737)" fill="rgba(0, 164, 205, 0.21)"></circle><path d="M530 714.5L522.2 706.6 529.4 704.4C530.2 704.3 530.8 703.3 530.7 702.2 530.2 701.4 529.3 700.7 528.5 700.9L519 703.5 511.8 696 531.2 690.9C532.4 690.5 533 689.6 532.5 688.7 532.5 687.6 531.5 687 530.3 687.4L508.9 693 502.2 686.4 507.9 665.5 515.8 663.2 532.3 680.2C532.6 680.3 532.9 680.4 533.3 680.4 533.6 680.5 534.4 680.4 534.9 680.1 535.8 679.3 535.7 678.2 534.8 677.5L519.8 662.1 529.7 659.6 537.6 667.2C537.5 667.6 537.8 667.7 538.2 667.8 538.9 668 539.6 667.8 540.2 667.2 540.7 666.6 540.6 665.5 540.1 664.6L533.7 658.5 546 655.2C546.8 655 547.4 654.1 547.3 652.9 546.8 652.1 545.9 651.4 545.1 651.6L533.6 654.8 535.5 647.5C535.8 646.5 535 645.5 534.3 645.4 533.3 645.1 532 645.5 531.8 646.5L529.3 655.8 519.4 658.3 524.6 639.1C524.8 638 524.3 637.2 523.3 636.9 522.3 636.6 521.4 637.1 521.1 638.1L515.4 659.4 507 661.9 491.7 646.4 493.8 638.5 515.6 632.6C516.8 632.5 517.5 631.3 517 630.4 516.9 629.3 515.9 629 514.7 629L494.9 634.4 497.6 624.4 507.5 621.9C508.2 621.8 509 620.5 508.8 619.7S507.4 618.2 506.2 618.3L498.7 620.3 501.9 608.3C502.2 607.3 501.4 606.3 500.3 606 499.6 605.8 498.4 606.2 498.2 607.3L494.9 619.3 489.1 613.7C488.5 613.1 487.4 612.8 486.5 613.7 486 614.3 485.9 615.8 486.5 616.3L493.8 623.4 491.1 633.4 476.6 618.8C475.7 618.2 474.7 617.9 473.7 618.7 473.2 619.3 473.2 620.8 473.7 621.3L490 637.5 487.9 645.4 466.8 651.1 460.8 644.7 466.5 623.4C466.8 622.4 466.3 621.5 465.3 621.2 464.3 621 463.1 621.4 462.8 622.4L457.6 641.6 450.3 634.5 452.8 625.2C453.1 624.2 452.6 623.3 451.5 623.1 450.5 622.8 449.6 623.3 449.4 624.3L447.4 631.5 439 623C438.4 622.5 437 622.4 436.5 623 435.8 624 435.6 625 436.5 625.6L445.1 634.6 436.8 636.8C435.9 637.3 435.3 638.2 435.5 639 435.6 639.8 436.2 640.3 436.9 640.5 436.9 640.5 437.3 640.6 437.7 640.3L448.3 637.7 455.6 644.8 434.9 650.6C433.8 650.7 433.2 651.6 433.6 652.8 433.8 653.3 434.1 653.7 434.8 653.9 435.1 654 435.5 654.1 435.8 654.2L458.5 647.8 464.3 653.7 458.6 674.7 449.5 677 433.9 661.4C433 660.4 431.9 660.5 431.3 661.4 430.4 661.9 430.5 663 431.3 664L445.5 678.1 435.6 681 428.6 674C428 673.4 426.9 673.5 426 674 425.4 674.9 425.1 676 426.1 676.6L431.2 682 420.5 685C419.4 685.1 419.1 686.1 419.1 687.2 419.4 687.7 420 688.2 420.7 688.4 420.7 688.4 421 688.5 421.4 688.6L432.9 685.4 430.6 694C430.4 694.7 430.8 695.9 431.8 696.2 432.9 696.5 433.8 695.6 434 694.9L436.9 684.3 446.9 681.4 441.2 702.4C440.9 703.4 441.8 704.4 442.8 704.7S444.7 704.4 445 703.4L451.2 680.4 459.5 678.2 474.8 693.8 472.4 702.7 450.2 708.5C449.4 709 448.7 709.9 448.8 711.1 449.1 711.5 449.7 712 450.3 712.2 450.7 712.3 451 712.4 451.5 712.1L471.3 706.8 468.6 716.8 458.7 719.6C457.9 719.8 457.3 720.7 457.3 721.8 457.8 722.7 458.8 723.3 459.5 723.2L467.5 720.9 464.6 731.9C464.4 732.6 465.1 733.9 465.8 734.1 466.8 734.3 468.1 733.6 468.3 732.9L471.3 721.9 476.7 727.8C477 727.9 477.4 728 477.7 728.1 478.4 728.3 479.2 728.1 479.6 727.8 480.3 726.9 480.2 725.8 479.7 724.9L472.4 717.8 475.1 707.8 489.6 722.4C490.4 723.4 491.5 723.3 492.1 722.7 493 721.9 493 720.8 492.5 719.9L476.2 703.7 478.6 694.8 499.7 689.1 505.8 695.1 499.6 718.1C499.3 719.2 499.8 720 500.8 720.3 501.8 720.6 502.7 720.1 503 719L508.6 698.1 515.8 705.6 513 716.2C512.8 716.9 513.5 718.2 514.6 718.5 515.6 718.8 516.6 717.9 516.7 717.2L519.1 708.6 527.4 717.2C527.8 717.3 527.8 717.3 528.1 717.4 528.8 717.5 529.6 717.4 530 717.1 530.7 716.2 530.6 715.1 530 714.5ZM479.7 690.7L477.4 691.1 475.9 689.7 463.5 677.1 462.1 675.6 462.6 673.5 467.1 656.7 467.7 654.7 469.7 654.1 486.8 649.5 488.8 648.9 490.5 650.5 502.6 663 504.4 664.6 503.9 666.6 499.3 683.4 498.8 685.5 496.4 686 479.7 690.7Z" fill="rgba(0, 164, 205, 0.21)"></path><path d="M82.7 511.8L100.9 534.9 100.2 543 83.5 550.3 76.8 545.4 72.6 516.2C72.5 515.9 72.5 515.9 72.3 515.6 72 514.9 71.4 514.4 70.3 514.5 69.3 515 68.8 515.6 68.9 516.7L72.7 542.2 62.4 534.7 60.6 523.4C60.6 523.4 60.4 523.1 60.4 523.1 60.2 522.4 59.6 521.9 58.4 522 57.6 522 56.9 523.1 57 524.2L57.9 531.5 50.4 525.9C49.8 525.4 48.7 525.5 47.9 526.2S47.6 528.3 48.3 529.1L55.7 534.5 48.5 535.7C47.4 535.8 46.7 536.8 46.8 538 47 538.6 47.8 539.5 48.9 539.4L60.2 537.6 70.6 545.4 45.1 549.2C43.9 549.3 43.2 550.4 43.2 551.1 43.6 552.1 44.4 553 45.5 552.9L74.6 548.4 81.4 553.5 79.4 571.1 71.6 574.5 44.1 563.9C43.2 563.6 42.2 564 41.8 564.9S41.9 566.8 42.8 567.2L67 576.5 55 581.7 44.7 577.7C43.7 577.3 42.7 577.7 42.1 578.8S42.1 580.7 43 581.1L50.4 583.7 41.6 587.5C40.6 588 40.4 589.2 40.8 590.2 41.2 591.2 42.2 591.5 43.1 591.1L52 587.3 49.2 594.3C48.5 595.4 48.9 596.4 50.2 596.6 51.1 597 52.1 596.5 52.5 595.6L56.5 585.3 68.6 580 58.9 604C58.5 605 59.1 606.3 60 606.7S61.9 606.6 62.3 605.7L73.1 578.1 81 574.6 95.4 585.4 94.3 593.7 71.2 611.9C70.4 612.6 70.5 613.7 70.9 614.7 71.6 615.6 72.7 615.5 73.7 615L93.8 598.9 92.4 611.6 83.4 618.6C82.6 619.3 82.7 620.4 83.1 621.4 83.7 621.9 85 622.2 85.8 621.4L91.6 616.9 90.6 626.3C90.6 627.1 91.4 627.9 92.3 628.3 93.4 628.2 94.2 627.4 94.3 626.6L95.3 617.3 100.2 623.3C100.8 623.8 102.1 624 102.6 623.4 103.6 623 103.6 622.2 103.2 621.2 103.2 621.2 103 620.9 103 620.9L96 611.9 97.5 599.2 113.6 619.4C114.4 620.2 115.3 620.6 116.1 619.8 117 619.1 117 618.3 116.7 617.6 116.6 617.3 116.6 617.3 116.6 617.3L97.9 594 99 585.8 115.6 578.6 122.1 583.5 126.7 612.9C126.7 613.7 127.7 614.4 128.5 614.4 129.7 614.3 130.3 613.3 130.2 612.1L126.5 586.6 136.8 594.2 138.6 605.4C138.7 606.5 139.4 607.4 140.4 606.9 141.5 606.8 142.2 605.8 142.3 605L140.9 597.4 148.4 603.1C149.3 603.4 150.5 603.3 151.3 602.6 151.5 602.1 151.5 601.3 151.2 600.7 151.1 600.3 151.1 600.3 150.6 600.2L143.1 594.5 150.7 593.2C151.8 593.1 152.2 592.1 152.2 591.3 152.1 591 152.1 591 151.9 590.7 151.6 590 151 589.5 150.2 589.5L139 591.3 128.7 583.7 154.2 580C155.2 579.5 156.1 578.8 155.6 577.8 155.8 577.3 155.8 577.3 155.7 577 155.4 576.4 154.5 576 153.7 576L124.3 580.6 117.9 575.6 119.8 557.8 127.3 554.5 154.9 565.3C155.8 565.7 157.1 565.2 157.5 564.2S157.3 562 156.3 561.6L132.1 552.4 143.9 547.3 154.5 551.2C155.4 551.5 156.4 551.1 156.8 550.2 157.2 549.2 156.7 548.3 155.8 547.9L148.8 545.1 157.6 541.3C158.2 541 158.9 539.9 158.5 539 158.1 538 156.7 537.4 156 537.7L147.2 541.5 150 534.5C150.2 534 150.3 533.6 150.2 533.3 149.9 532.6 149.4 532.4 149 532.2 148 531.9 147.1 532.3 146.7 533.2L142.3 543.7 130.6 548.8 140.3 524.8C140.5 524.3 140.3 524 140.1 523.3 139.9 523 139.8 522.7 139.3 522.5 138.4 522.1 137.1 522.7 136.7 523.6L125.7 550.9 118.2 554.2 103.9 543.7 104.5 535.3 128 517C128.5 516.3 128.8 515.4 128.6 514.8 128.4 514.4 128.4 514.4 128.1 514.6 127.7 513.6 126.4 513.4 125.6 514.1L105.5 530.2 106.8 517.3 115.7 510.3C116.3 509.6 116.3 508.8 116 508.2 116 508.2 115.9 507.9 115.9 507.9 115.4 506.9 114.2 506.7 113.3 507.4L107.4 512.4 108.3 503C108.5 502.5 108.4 502.2 108.2 501.9 107.9 501.2 107.3 500.7 107 500.9 105.7 500.6 104.9 501.4 104.5 502.3L103.6 511.7 99.1 505.9C98.3 505 97.1 504.8 96.3 505.6 95.7 506.2 95.5 507.4 96.1 507.9L103.1 516.9 101.7 529.6 85.5 509.4C84.8 508.6 83.7 508.7 82.7 509.1 82.2 509.7 81.9 511 82.7 511.8ZM87 553L99.8 547.5 101.7 546.6 103.4 547.8 114.3 555.9 116.1 557.4 115.8 559.5 114.3 572.9 114.1 575 112.1 575.8 99.4 581.4 97.4 582.2 95.8 581 84.9 572.9 83.2 571.7 83.3 569.4 84.8 555.9 85.1 553.8 87 553Z" fill="rgba(0, 164, 205, 0.21)"></path><path d="M196.9 663.6L184.6 682 165.2 685.7 171.7 667.1 191.7 657.6C191.7 657.6 191.9 657.4 191.9 657.4 192.3 657.1 192.4 656.3 192.2 655.7 191.9 655 191 654.7 190.4 655.2L172.9 663.6 176.1 654.5 183.7 650.8C183.7 650.8 183.9 650.6 183.9 650.6 184.3 650.2 184.4 649.5 184.2 648.9 183.9 648.1 183 647.9 182.4 648.4L177.1 650.8 179.5 644.2C179.7 643.6 179.2 642.7 178.7 642.4 177.9 642 177.1 642.7 176.9 643.2L174.5 649.9 172.1 644.6C171.8 643.8 170.8 643.5 170.2 644.1 169.4 644.4 169.2 645.3 169.7 645.9L173.5 653.6 170.2 662.4 161.8 645C161.5 644.2 160.6 643.9 160 644.4 159.2 644.8 159 645.7 159.5 646.3L168.9 666.3 162.5 684.9 149.4 669.7 151.1 647.6C151.1 646.8 150.6 646.2 149.8 646.1 149.1 646.1 148.5 646.6 148.4 647.4L147 666.9 140.7 659.6 141.3 651.4C141.4 650.6 140.9 650 140.1 650 139.4 649.9 138.7 650.4 138.7 651.2L138.3 656.8 133.4 651.2C133.1 650.4 132.1 650.5 131.5 651 130.9 651.5 130.9 652.3 131.4 652.9L135.9 658.1 130.3 657.7C129.5 657.7 128.9 658.2 128.8 658.9S129.3 660.3 130.1 660.4L138.3 661 144.6 668.3 125 666.8C124.3 666.7 123.7 667.3 123.6 668 123.6 668.8 124.1 669.4 124.8 669.4L147 671.1 159.9 686 140.5 689.7 122.7 677.6C122 677.2 121.2 677.5 120.6 678 120.2 678.7 120.5 679.5 121 680.1L137 690.9 127.6 692.7 120.6 687.8C119.9 687.4 119.1 687.7 118.5 688.2 118.1 689 118.4 689.7 118.8 690.1L123.6 693.3 116.7 694.7C116.1 694.9 115.3 695.6 115.7 696.3 116 697.1 116.5 697.7 117.3 697.4L124.2 696 121 700.9C120.6 701.6 120.9 702.4 121.2 702.8 121.8 703 122.5 703.1 122.9 702.7 122.9 702.7 123.1 702.6 123.1 702.6L128 695.6 137.4 693.8 126.6 709.8C126.1 710.6 126.4 711.3 126.8 711.7 127.3 712 128.1 712 128.5 711.7 128.5 711.7 128.7 711.5 128.7 711.5L141 693.1 160.4 689.5 153.9 708.1 133.9 717.6C133.1 717.9 132.9 718.8 133.4 719.4 133.7 720.2 134.7 720.5 135.3 719.9L152.7 711.6 149.6 720.6 141.9 724.4C141.1 724.7 140.9 725.6 141.4 726.3 141.7 727 142.6 727.3 143.3 726.8L148.5 724.3 146.2 731C145.9 731.5 146.4 732.5 147 732.7 147.5 732.9 148.1 732.8 148.5 732.5 148.7 732.3 148.9 732.1 148.9 731.7L151.3 725.1 153.8 730.4C154.1 731.2 155 731.4 155.6 730.9 155.6 730.9 155.8 730.7 155.8 730.7 156.2 730.4 156.3 729.6 156.1 729.1L152.4 721.4 155.5 712.4 163.8 729.8C164.1 730.6 165.1 730.9 165.7 730.3 165.7 730.3 165.9 730.2 165.9 730.2 166.3 729.8 166.3 729.1 166.2 728.5L156.7 708.5 163.2 689.9 176.1 704.8 174.4 727C174.4 727.8 174.9 728.4 175.7 728.4 176.4 728.5 177 728 177.1 727.2L178.7 707.9 185 715.1 184.3 723.4C184.3 724.2 184.8 724.8 185.6 724.8S186.9 724.4 187 723.6L187.4 718 191.9 723.2C192.4 723.8 193.2 723.9 193.8 723.4 194.4 722.8 194.5 722.1 193.9 721.5L189.4 716.2 195.1 716.6C195.4 716.7 195.8 716.7 196.2 716.4S196.7 715.6 196.7 715.3C196.7 714.5 196.2 713.9 195.5 713.8L187.2 713.2 180.9 705.9 200.5 707.4C200.9 707.4 201.2 707.5 201.6 707.1 201.8 706.9 202.1 706.4 202.1 706 202.2 705.3 201.6 704.7 200.9 704.6L178.7 702.9 165.8 688 185.2 684.3 203.6 696.7C204.1 696.9 204.9 697 205.3 696.6 205.3 696.6 205.5 696.4 205.5 696.4 205.9 695.7 205.6 694.9 205.2 694.5L189.2 683.7 198.6 681.9 205.6 686.8C206.2 687 206.9 687.1 207.3 686.7 207.3 686.7 207.5 686.6 207.5 686.6 208 685.8 207.6 685.1 207.3 684.7L202.4 681.5 209.3 680.1C209.5 679.9 209.9 679.9 210.1 679.8 210.5 679.4 210.7 678.9 210.6 678.3 210.3 677.5 209.8 676.9 209 677.2L202.1 678.6 205.3 673.7C205.7 673 205.4 672.2 205 671.8 204.3 671.4 203.5 671.7 203.1 672.1L198.2 679.1 188.9 680.8 199.7 664.8C200.1 664.1 199.8 663.3 199.5 662.9 198.3 662.8 197.4 662.9 196.9 663.6Z" fill="rgba(0, 164, 205, 0.21)"></path><path d="M309.4 460.2L322.4 433.8 330 431 343.7 442.9 342.3 451 317.7 467.4C317.5 467.7 317.5 467.7 317.3 467.9 316.8 468.5 316.6 469.2 317.2 470.2 318 470.9 318.7 471.1 319.7 470.5L341.1 456.2 338.7 468.7 329.4 475.1C329.4 475.1 329.1 475.4 329.1 475.4 328.7 475.9 328.5 476.7 329 477.7 329.3 478.4 330.6 478.6 331.6 478L337.9 474 336 483.2C335.8 484 336.4 485 337.4 485.4S339.4 484.8 339.8 483.7L341.4 474.8 345.6 480.8C346.2 481.8 347.5 481.9 348.4 481.4 348.9 480.8 349.3 479.8 348.8 478.8L342.3 469.4 344.9 456.7 359.3 478.1C359.9 479 361.2 479.2 361.9 478.9 362.6 478.1 363 477.1 362.4 476.1L345.9 451.8 347.5 443.4 364.3 437.6 370.7 443.2 373 472.6C373.1 473.6 373.9 474.3 374.9 474.2S376.6 473.3 376.5 472.3L374.5 446.5 384.4 455.1 385.2 466.2C385.3 467.2 386.1 467.9 387.3 468S389 467.1 389 466.1L388.2 458.4 395.4 464.7C396.2 465.4 397.5 465 398.2 464.2 398.9 463.4 398.8 462.4 398 461.7L390.7 455.4 398.2 454.9C399.5 455.1 400.2 454.3 399.9 453 399.8 452 399 451.3 398 451.4L387 452.2 377 443.5 402.9 442C403.9 441.9 404.8 440.8 404.7 439.8S403.9 438.1 402.9 438.2L373.3 440.3 366.8 434.7 370.4 417 378.3 414.5 404.6 427.5C405.7 427.9 406.6 427.3 407.3 426.5 407.8 425.5 407.2 424.5 406.4 423.8L383.2 412.6 395.2 408.5 405.4 413.6C406.5 414 407.4 413.4 408.1 412.6 408.3 411.8 408 410.6 406.9 410.2L400.4 406.9 409.3 403.7C410 403.4 410.4 402.4 410.3 401.4 409.8 400.4 408.7 400 408 400.3L399.2 403.4 402.4 396.4C402.6 395.6 402.3 394.4 401.5 394.2 400.7 393.5 400 393.8 399.3 394.6 399.3 394.6 399 394.9 399 394.9L394 405 381.9 409.2 393.1 386C393.6 384.9 393.5 383.9 392.4 383.5 391.4 383 390.7 383.4 390.2 383.9 390 384.2 390 384.2 390 384.2L377 411 369.1 413.6 355.4 401.7 357.1 393.8 381.7 376.9C382.4 376.6 382.6 375.4 382.2 374.6 381.7 373.7 380.4 373.5 379.4 374.1L358 388.4 360.4 375.9 369.8 369.5C370.8 368.9 371.2 367.8 370.4 367.1 369.8 366.2 368.5 366 367.8 366.3L361.6 370.8 363.4 361.6C363.4 360.6 362.8 359.6 361.7 359.2 361.2 359.2 360.5 359.5 360 360.1 359.8 360.3 359.8 360.3 359.8 360.8L358 370 353.5 363.8C352.9 362.8 351.9 362.9 351.2 363.2 351 363.5 351 363.5 350.7 363.7 350.3 364.3 350.1 365.1 350.4 365.8L356.8 375.2 354.4 387.7 340.1 366.3C339.3 365.6 338.2 365.1 337.5 365.9 337 366 337 366 336.8 366.2 336.3 366.8 336.4 367.8 336.7 368.5L353.6 393 351.8 401 334.9 407 328.7 401.6 326.6 372C326.5 371 325.5 370.1 324.5 370.1S322.5 371.3 322.6 372.3L324.7 398.1 315 389.7 314 378.4C313.9 377.4 313.1 376.7 312.1 376.8 311.1 376.9 310.4 377.7 310.4 378.7L311 386.2 303.7 379.9C303.2 379.5 301.9 379.3 301.2 380.1 300.5 380.9 300.6 382.4 301.2 382.9L308.4 389.2 300.9 389.7C300.4 389.7 299.9 389.8 299.7 390 299.2 390.6 299.2 391.1 299.3 391.6 299.3 392.6 300.1 393.3 301.1 393.2L312.4 392.7 322.1 401.1 296.3 402.6C295.8 402.7 295.5 402.9 295.1 403.5 294.8 403.7 294.6 404 294.6 404.5 294.7 405.5 295.8 406.4 296.8 406.4L326.1 404.5 332.3 409.9 329 427.3 321.2 430.4 294.5 417.1C293.7 416.9 292.7 417 292.3 417.5 292 417.8 292 417.8 292.3 418 291.6 418.8 291.9 420.1 293 420.5L316.2 431.7 303.9 436.1 293.7 431C293 430.8 292.2 431.1 291.8 431.7 291.8 431.7 291.5 431.9 291.5 431.9 290.8 432.7 291.2 434 292.2 434.4L299.2 437.7 290.4 440.8C289.9 440.9 289.7 441.1 289.4 441.4 289 442 288.8 442.7 289 443 289.4 444.2 290.4 444.6 291.4 444.6L300.3 441.4 296.9 447.9C296.5 449 296.9 450.2 297.9 450.6 298.7 450.8 299.9 450.5 300.1 449.7L305.2 439.5 317.2 435.4 306 458.6C305.6 459.7 306.2 460.7 307 461.3 307.7 461.5 309 461.2 309.4 460.2ZM344.7 438.5L334.2 429.4 332.6 428 332.9 426 335.5 412.7 336.1 410.4 338.1 409.8 350.9 405.3 352.9 404.7 354.5 406.1 364.9 415.2 366.6 416.6 366.2 418.6 363.6 431.9 363.2 433.9 361 434.8 348.3 439.3 346.3 439.9 344.7 438.5Z" fill="rgba(0, 164, 205, 0.21)"></path><path d="M636.7 378.1L643.3 349.5 650.1 345 666.1 353.4 666.6 361.7 646.4 383.2C646.2 383.6 646.2 383.6 646.1 383.9 645.7 384.5 645.7 385.3 646.5 386.1 647.5 386.6 648.2 386.6 649.1 385.8L666.6 367 667.2 379.7 659.5 388.1C659.5 388.1 659.3 388.5 659.3 388.5 659 389.1 659 389.9 659.8 390.7 660.2 391.3 661.5 391.2 662.3 390.4L667.5 385.1 667.8 394.5C667.8 395.3 668.6 396.1 669.7 396.3S671.4 395.2 671.6 394.1L671.2 385 676.6 389.9C677.4 390.7 678.7 390.6 679.5 389.8 679.8 389.2 680 388.1 679.2 387.3L670.8 379.6 670.5 366.6 689.3 384.2C690.1 385 691.4 384.8 692 384.4 692.5 383.4 692.7 382.3 691.9 381.5L670.3 361.6 670 353.1 685 343.7 692.5 347.7 701.4 375.7C701.7 376.6 702.7 377.1 703.6 376.8S705.1 375.6 704.8 374.6L696.9 350 708.5 356.1 711.8 366.7C712.1 367.6 713.1 368.1 714.3 368S715.8 366.8 715.5 365.8L713 358.4 721.4 362.9C722.4 363.4 723.5 362.8 724 361.9 724.5 360.9 724.2 359.9 723.3 359.5L714.8 355 722 352.7C723.3 352.6 723.8 351.7 723.1 350.5 722.8 349.6 721.9 349.1 720.9 349.4L710.4 352.7 698.7 346.5 723.5 339.1C724.5 338.8 725.2 337.5 724.9 336.6S723.6 335.1 722.7 335.4L694.3 344.2 686.8 340.2 686.2 322.2 693.3 317.9 722 324.6C723.1 324.8 723.9 324 724.4 323.1 724.6 321.9 723.8 321.1 722.8 320.6L697.7 315 708.5 308.2 719.5 310.9C720.7 311 721.5 310.3 722 309.3 722 308.5 721.4 307.4 720.3 307.2L713.1 305.5 721 300.4C721.7 299.9 721.9 298.8 721.6 297.9 720.8 297.1 719.7 296.9 719 297.3L711.1 302.4 712.7 294.8C712.8 294 712.1 292.9 711.3 292.9 710.4 292.4 709.8 292.8 709.3 293.8 709.3 293.8 709.1 294.1 709.1 294.1L706.5 305.2 695.7 311.9 701.3 286.8C701.5 285.7 701.2 284.7 700.1 284.5 699 284.3 698.3 284.8 698 285.4 697.8 285.7 697.8 285.7 697.8 285.7L691.3 314.9 684.2 319.2 668.2 310.7 668 302.6 688.1 280.6C688.7 280.1 688.6 278.9 688.1 278.2 687.3 277.4 686.1 277.5 685.3 278.3L667.7 297.2 667.2 284.4 674.8 276C675.6 275.2 675.8 274.1 674.9 273.6 674.1 272.8 672.8 273 672.2 273.4L667.1 279.2 666.8 269.8C666.5 268.8 665.8 268 664.6 267.8 664.2 268 663.5 268.5 663.2 269.1 663 269.4 663 269.4 663.2 269.9L663.4 279.3 657.7 274.2C656.9 273.4 655.9 273.7 655.3 274.2 655.1 274.5 655.1 274.5 655 274.8 654.6 275.4 654.6 276.2 655.1 276.9L663.5 284.5 664 297.3 645.1 279.7C644.2 279.2 643.1 279 642.6 279.9 642.1 280.1 642.1 280.1 642 280.4 641.6 281 641.9 282 642.4 282.6L664.4 302.7 664.5 310.8 649.4 320.5 642.1 316.7 633.3 288.3C633.1 287.4 631.8 286.7 630.8 287S629.2 288.6 629.5 289.5L637.4 314.2 626.1 308.2 622.5 297.5C622.2 296.5 621.3 296 620.3 296.3 619.3 296.6 618.8 297.6 619.1 298.5L621.4 305.7 612.9 301.2C612.2 300.9 611 301 610.5 302 610 302.9 610.4 304.4 611 304.7L619.5 309.2 612.3 311.4C611.9 311.6 611.4 311.7 611.2 312 610.9 312.7 611 313.1 611.2 313.6 611.5 314.6 612.4 315.1 613.4 314.8L624.3 311.7 635.6 317.6 610.8 325.1C610.3 325.2 610.1 325.5 609.8 326.1 609.6 326.5 609.5 326.8 609.6 327.3 609.9 328.2 611.2 328.9 612.1 328.6L640.3 320.1 647.5 323.9 648.3 341.6 641.3 346.4 612.4 339.6C611.6 339.5 610.6 339.8 610.3 340.5 610.1 340.8 610.1 340.8 610.4 341 609.9 341.9 610.5 343 611.6 343.2L636.8 348.8 625.8 355.9 614.8 353.3C614 353.3 613.3 353.7 613 354.4 613 354.4 612.8 354.7 612.8 354.7 612.3 355.6 612.9 356.8 614.1 356.9L621.7 358.5 613.8 363.6C613.3 363.8 613.1 364.1 612.9 364.4 612.6 365 612.6 365.8 612.9 366 613.5 367.1 614.6 367.3 615.6 367L623.5 361.9 621.7 369C621.6 370.1 622.2 371.3 623.3 371.5 624.1 371.5 625.2 370.9 625.2 370.1L627.9 359 638.7 352.2 633 377.4C632.8 378.5 633.6 379.3 634.6 379.8 635.4 379.8 636.5 379.2 636.7 378.1ZM666.1 349L653.8 342.5 651.9 341.5 651.8 339.5 651.3 325.9 651.4 323.5 653.1 322.5 664.6 315.2 666.4 314.2 668.2 315.2 680.5 321.6 682.4 322.6 682.5 324.7 683 338.2 683.1 340.3 681.2 341.7 669.7 348.9 668 350 666.1 349Z" fill="rgba(0, 164, 205, 0.21)"></path><path d="M726.2 603L717.8 593.9 725 591.9C725.8 591.8 726.4 590.9 726.4 589.7 725.9 588.9 725 588.2 724.1 588.7L715 590.9 708.1 584 727.1 579.6C728 579.1 728.7 578.2 728.5 577.4 728.1 576.2 727.2 575.5 726.3 576L705.2 581 695 570.2 711.9 568.1 698.8 557.3 713.2 553.7 728.3 569.2C728.2 569.5 728.5 569.6 728.9 569.7 729.6 569.9 730.4 569.8 730.9 569.2 731.4 568.6 731.4 567.5 730.9 566.6L717.2 552.6 726.7 550.6 733.2 557.3C733.5 557.7 733.8 557.8 734.2 557.9 734.5 558 735.3 557.9 735.8 557.3 736.4 556.7 736.3 555.6 735.7 555.1L730.7 549.5 742.7 546.4C743.9 546.3 744.1 545.3 744.1 544.2 744 543.4 743 542.7 741.8 543.1L729.9 546 732 538.8C732.3 537.8 731.4 536.8 730.8 536.6 729.7 536.3 728.9 536.8 728.6 537.8L725.9 547 716.4 549.1 721.8 530.6C722.1 529.6 721.6 528.7 720.5 528.4 719.9 528.2 718.6 528.6 718.3 529.6L712.4 550.1 698 553.7 704.4 538.2 688.6 543.9 692.8 529.6 713.5 524.5C714.8 524.1 715.1 523.1 714.9 522.3 714.8 521.6 713.8 520.9 712.7 521L693.9 525.8 696.6 516.6 705.8 514.1C706.9 514.1 707.6 513.2 707.2 511.9 707.1 511.2 706.1 510.5 704.9 510.9L697.8 512.5 701.2 500.6C701.5 499.6 701.1 498.7 700 498.4S698.1 498.6 697.8 499.6L694.4 511.5 689.2 506.3C688.4 505.4 687.3 505.4 686.7 506 685.7 506.8 685.8 507.9 686.7 508.6L693.2 515.6 690.5 524.9 677.2 510.6C676.3 510 675.2 510 674.6 510.6 673.6 511.4 673.7 512.6 674.6 513.2L689.4 528.6 685.2 542.9 675 529.6 672.1 546.2 661.9 535.4 667.8 514.9C668.1 513.9 667.3 512.9 666.6 512.7 665.6 512.4 664.7 512.9 664.4 513.9L658.9 532.7 652.1 525.5 654.8 516.3C655.1 515.3 654.6 514.4 653.6 514.1 652.9 513.9 651.7 514.3 651.4 515.3L649.3 522.5 640.8 513.7C639.9 512.7 638.8 512.8 638.2 513.7 637.6 514.3 637.3 515.3 638.3 515.9L646.7 525.1 639.5 527C638.7 527.2 638.1 528.1 638.2 528.9 638.3 529.7 638.9 530.2 639.3 530.3 639.6 530.4 639.9 530.5 640.4 530.3L649.5 528.1 656.4 534.9 637.4 539.4C636.5 539.9 635.8 540.8 636 541.6 636.1 542.4 636.7 542.9 637.4 543.1 637.7 543.2 637.7 543.2 638.2 543L659.3 538 669.5 548.7 652.5 550.8 665.7 561.7 651.3 565.3 636.2 549.8C635.6 549.2 634.6 548.9 633.6 549.8 633.1 550.4 633.1 551.5 633.6 552.4L647.3 566.3 637.8 568.4 631.2 561.7C630.8 560.8 629.6 560.8 628.7 561.7 628.1 562.2 628.2 563.4 628.6 564.3L633.8 569.5 621.8 572.6C620.6 572.7 620.3 573.7 620.4 574.8 620.6 575.3 621.2 575.8 621.6 575.9 621.9 576 622.2 576.1 622.7 575.8L634.6 573 632.5 580.2C632.2 581.2 633.1 582.2 633.7 582.4L633.7 582.4C634.8 582.7 635.6 582.2 635.9 581.2L638.6 572 648.1 569.9 642.7 588.4C642.4 589.4 642.9 590.3 643.9 590.6S645.9 590.4 646.2 589.3L652.1 568.9 666.5 565.3 660.1 580.8 675.9 575 671.7 589.4 651 594.4C649.7 594.8 649.4 595.9 649.6 596.6 649.7 597.4 650.7 598.1 651.8 598L670.5 593.5 667.9 602.3 658.7 604.8C657.6 604.9 656.9 605.8 657.3 607 657.4 607.8 658.4 608.5 659.5 608.4L666.7 606.4 663.2 618.4C663 619.4 663.4 620.3 664.5 620.6S666.4 620.4 666.7 619.4L670.1 607.4 675.3 612.6C675.5 613.1 675.9 613.2 676.2 613.3 676.9 613.5 677.3 613.2 677.8 613 678.8 612.2 678.7 611 677.8 610.4L671.3 603.3 674 594.1 687.3 608.4C687.6 608.5 688 608.6 688.3 608.7 689 608.8 689.4 608.6 689.9 608.4 690.8 607.5 690.8 606.4 689.9 605.8L675.1 590.4 679.3 576 689.5 589.4 692.4 572.8 702.6 583.6 696.7 604.1C696.4 605.1 697.2 606.1 697.9 606.3 698.9 606.6 699.8 606.1 700.1 605L705.5 586.6 712.4 593.4 709.7 602.7C709.4 603.7 709.9 604.6 710.9 604.9S712.8 604.7 713.1 603.6L715.2 596.5 723.7 605.3C724 605.7 724.3 605.8 724.7 605.9 725 606 725.8 605.9 726.3 605.3 726.9 604.7 727.2 603.7 726.2 603ZM687.5 581L679.2 570.1 666.3 574.8 671.5 561.9 661.1 553.3 674.6 551.3 677 538 685.3 548.9 698.2 544.1 693.1 556.7 703.4 565.6 690 567.3 687.5 581Z" fill="rgba(0, 164, 205, 0.21)"></path><path d="M729.8 175.6L734.7 164.2 739.4 170C739.9 170.7 741 170.9 742 170.4 742.6 169.6 742.8 168.5 742 167.9L736.3 160.4 739.8 151.3 751.6 166.9C752.4 167.6 753.5 167.8 754.1 167.3 755.1 166.5 755.3 165.4 754.5 164.8L741.4 147.5 747.1 133.8 755.9 148.4 760.5 132 769.6 143.7 761.5 163.8C761.2 163.9 761.2 164.2 761.3 164.6 761.4 165.3 761.8 165.9 762.6 166.2 763.3 166.4 764.3 165.9 764.9 165.1L772.2 146.9 777.9 154.8 774.4 163.5C774.1 163.9 774.2 164.3 774.2 164.6 774.2 165 774.7 165.6 775.4 165.9 776.2 166.1 777.2 165.6 777.5 164.9L780.5 158 788.3 167.7C788.8 168.8 789.8 168.6 790.8 168.1 791.5 167.7 791.7 166.6 790.8 165.6L783.4 155.8 790.8 154.8C791.9 154.7 792.4 153.5 792.3 152.8 792.2 151.8 791.4 151.2 790.3 151.3L780.8 152.6 775.1 144.8 794.1 142.2C795.2 142.1 795.8 141.3 795.7 140.2 795.6 139.5 794.7 138.5 793.7 138.7L772.5 141.5 763.4 129.8 780.2 129.4 768.5 117.3 783.3 115.3 796.4 132.2C797.2 133.2 798.3 133 798.9 132.6 799.6 132.1 799.8 131 799.3 130L787.2 114.8 796.7 113.5 802.8 120.9C803.3 122 804.4 122.2 805.3 121.3 806 120.9 806.2 119.8 805.3 118.8L801 112.9 813.3 111.3C814.4 111.1 815 110.3 814.8 109.3S813.9 107.6 812.8 107.7L800.5 109.4 803.2 102.6C803.7 101.4 803.2 100.4 802.5 100.2 801.3 99.6 800.3 100.1 800.1 101.2L796.3 110 786.7 111.3 794.4 93.4C794.6 92.3 794.1 91.3 793.3 91 792.2 90.4 791.2 90.9 791 92L782.9 111.8 768.1 113.8 776.1 99.1 759.8 103 765.5 89.4 786.6 86.5C787.7 86.4 788.3 85.2 788.2 84.5 788 83.5 787.2 82.9 786.2 83L766.8 85.6 770.6 76.5 780.1 75.2C781.2 75.1 781.8 74.3 781.6 73.2 781.5 72.5 780.7 71.5 779.6 71.7L772.2 72.7 776.8 61.3C777.4 60.1 776.9 59.1 775.8 58.9 775 58.7 773.9 58.8 773.7 59.9L768.8 71.3 764.1 65.5C763.6 64.9 762.5 64.7 761.9 65.1 761.2 65.5 761 66.3 761 66.7 761.1 67 761.1 67.4 761.5 67.7L767.2 75.1 763.7 84.2 751.9 68.6C751.1 68 750 67.8 749.4 68.2 748.7 68.7 748.5 69.4 748.6 70.1 748.6 70.5 748.6 70.5 749 70.8L762.1 88 756.4 101.7 747.6 87.1 743 103.5 733.9 91.8 742 71.7C742.2 71 742.1 69.9 740.9 69.4 740.2 69.1 739.2 69.6 738.6 70.4L731.3 88.6 725.6 80.7 729.1 72C729.7 71.2 729.2 70.2 728 69.7 727.3 69.4 726.3 69.9 725.7 70.7L723 77.5 715.2 67.8C714.7 66.8 713.7 66.9 712.7 67.4 712.4 67.8 712.1 68.6 712.2 68.9 712.2 69.3 712.3 69.6 712.7 69.9L720.1 79.7 712.7 80.7C711.6 80.8 711.1 82 711.1 82.7L711.1 82.7C711.3 83.8 712.1 84.4 713.1 84.2L722.7 82.9 728.4 90.8 709.4 93.3C708.3 93.5 707.7 94.3 707.8 95.3S708.8 97 709.8 96.9L731 94 740.1 105.7 723.3 106.2 734.9 118.2 720.2 120.2 707.1 103.3C706.3 102.4 705.2 102.5 704.5 103 703.9 103.4 703.7 104.5 704.2 105.5L715.9 120.8 706.8 122 700.7 114.6C700.2 113.6 699.1 113.4 698.2 114.2 697.5 114.7 697.3 115.8 697.8 116.8L702.5 122.6 690.2 124.3C689.1 124.4 688.5 125.2 688.7 126.3S689.6 127.9 690.7 127.8L703 126.1 700.3 132.9C700 133.3 700.1 133.7 700.1 134 700.2 134.8 700.6 135.1 701 135.4 702.2 135.9 703.2 135.4 703.4 134.3L707.2 125.6 716.7 124.3 709.1 142.2C709.2 142.5 709.2 142.9 709.3 143.2 709.3 143.9 709.7 144.2 710.1 144.5 711.3 145.1 712.3 144.6 712.5 143.5L720.6 123.8 735.4 121.8 727.4 136.5 743.7 132.5 738 146.2 716.9 149C715.8 149.2 715.2 150.3 715.3 151 715.5 152.1 716.3 152.7 717.3 152.5L736.4 150 732.9 159.1 723.4 160.3C722.3 160.5 721.7 161.3 721.9 162.3S722.8 164 723.9 163.9L731.3 162.9 726.7 174.2C726.4 174.6 726.4 175 726.5 175.3 726.5 175.7 727 176.4 727.7 176.6 728.5 176.9 729.6 176.7 729.8 175.6ZM734.2 131.3L740.8 119.2 731.2 109.4 745.2 109 748.8 95.9 756.1 107.5 769.3 104.3 762.7 116.3 772.2 126.1 758.7 126.5 754.7 139.6 747.7 128 734.2 131.3Z" fill="rgba(0, 164, 205, 0.21)"></path><path d="M86.2 88.2L107.9 76.2 116.6 78.9 109.2 82.9C108.3 83.1 108.2 84.1 108.5 85 108.9 85.5 110 85.9 110.5 85.5L120.7 80.1 129.3 82.5 122.8 88.6 111.1 88.2C111.1 88.2 110.8 88.3 110.8 88.3 110.2 88.4 109.8 89.2 109.6 89.8 109.8 90.8 110.3 91.3 111.3 91.4L119.6 91.6 113.1 97.6 88.4 97.2C88.4 97.2 88 97 88 97 87.4 97.2 86.9 97.9 86.8 98.6 86.7 99.6 87.5 100.3 88.4 100.1L110 100.6 102.2 108.3 92.6 108.1C92.6 108.1 92.6 108.1 92.3 108.1 91.7 108.3 91.2 108.7 91 109.4 91.2 110.3 91.7 111.2 92.7 111.2L99.1 111.3 93.4 116.8C92.6 117.3 92.8 118.3 93.3 118.8 93.8 119.6 94.8 119.7 95.5 118.9L101.3 113.6 100.9 119.8C101.1 120.7 101.6 121.6 102.5 121.3 103.5 121.4 104 121 104.1 120L104.3 110.3 112.2 103 111.7 124.9C111.6 125.6 112.4 126.3 113.4 126.4 114 126.2 114.8 125.7 114.9 124.7L115.3 100 121.8 93.9 121.6 102.3C121.5 103.3 122.3 103.7 123.3 103.8 123.9 104 124.7 103.2 124.9 102.5L124.9 90.9 131.4 84.6 133.5 93.3 127.6 103.1C127.1 103.9 127.3 104.8 128.1 105.2 128.5 105.8 129.7 105.5 130.2 104.7L134.5 97.6 136.7 106.3 123.5 127.4C123.1 128.2 123.3 129.1 124.1 129.6 124.8 130 125.7 129.8 126.2 129.1L137.7 110.6 140.2 120.9 135.2 129.1C134.7 129.9 134.9 130.8 135.7 131.2 136.4 131.7 137.3 131.5 137.8 130.7L141.3 125.4 143.1 132.9C143.3 133.9 144.1 134.3 145 134.1 145.9 133.9 146.4 133.1 146.1 132.2L144.3 124.7 149.6 127.9C150.3 128.3 151.2 128.1 151.7 127.3S151.9 125.7 151.2 125.2L143.3 120.4 140.7 109.8 159.1 121.1C159.9 121.5 160.8 121.3 161.2 120.5 161.7 119.8 161.5 118.9 160.7 118.4L139.7 105.6 137.6 96.8 144.7 101.2C145.5 101.6 146.4 101.4 146.8 100.7 147.3 99.9 147.1 99 146.3 98.6L136.5 92.6 134.5 84.1 142.8 86.6 148.4 96.8C148.9 97.3 149.9 97.7 150.5 97.2 151.3 96.7 151.5 96 151.2 95.1L147.2 87.8 155.5 90.2 167.5 112C168 112.8 168.7 113 169.6 112.8 170.4 112.2 170.5 111.3 170.4 110.7L159.9 91.4 170.3 94.7 174.9 102.8C175.1 103.7 176.1 103.8 177 103.6 177.5 103.2 177.9 102.1 177.4 101.3L174.5 95.9 182 97.9C182.8 98.4 183.6 97.8 184 96.8 184.1 96.1 183.6 95.3 182.9 95.1L175.3 92.8 181 89.8C181.8 89.3 181.9 88.3 181.5 87.8 181.3 86.9 180.6 86.7 180 86.9 179.7 86.9 179.7 86.9 179.4 87L171.2 91.6 160.8 88.3 179.7 78C180.6 77.7 180.7 76.8 180.5 75.9 180.1 75.3 179.4 75.2 178.8 75.3 178.5 75.4 178.5 75.4 178.5 75.4L156.4 87.2 148.1 84.7 155.4 80.7C156.3 80.1 156.4 79.5 156.2 78.6 155.7 78 155 77.6 154.4 77.7 154.1 77.8 154.1 77.8 153.8 77.9L143.6 83.5 135.3 81.1 141.6 75.1 153.1 75.1C154.1 75.2 154.9 74.4 155 73.7 154.8 72.8 154.3 72 153.4 72.2L145 72 151.1 65.7 176.3 66.3C176.9 66.5 177.7 65.7 177.9 65 177.6 64.1 177.1 63.2 176.1 63.2L154.6 62.6 162.4 55.3 171.7 55.6C172.7 55.7 173.5 54.8 173.3 53.9 173.4 53.2 172.9 52.4 171.9 52.3L165.5 52.3 171.2 46.7C171.7 46.3 171.8 45.3 171.3 44.5 170.9 44.3 170.2 44.1 169.6 44.2 169.6 44.2 169.3 44.3 169 44.4L163.3 49.9 163.4 43.5C163.5 42.8 162.7 42.1 162 41.9 161.7 42 161.7 42 161.7 42 160.8 42.2 160.4 43 160.5 43.6L160.2 52.9 152.5 60.6 152.9 38.7C152.7 37.8 152.3 37.3 151.3 37.2 151.3 37.2 151 37.2 151 37.2 150.4 37.4 149.8 37.8 149.8 38.8L149 63.6 142.8 69.6 143 61.3C142.8 60.4 142.3 59.5 141.4 59.7 141.3 59.4 141 59.5 141 59.5 140.4 59.7 139.9 60.4 139.8 61.1L139.7 72.6 133.2 78.7 131.1 70.2 137.1 60.5C137.5 59.7 137.2 58.5 136.5 58 135.8 57.9 134.9 58.1 134.4 58.6L130.1 66 128 57.2 140.8 36.2C141.2 35.4 141 34.5 140.3 34.1 139.5 33.6 138.6 33.8 138.2 34.6L126.9 53 124.4 42.4 129.2 34.5C129.6 33.8 129.4 32.9 128.7 32.4S127 32.2 126.6 32.9L123.3 38.2 121.5 30.6C121.3 29.7 120.5 29.3 119.6 29.5 118.7 29.7 118.3 30.4 118.5 31.4L120.3 38.9 114.8 35.8C114.4 35.6 114 35.3 113.7 35.4 113.4 35.5 112.9 35.9 112.6 36.3 112.2 37 112.4 38 113.2 38.4L121.3 43.1 123.9 53.7 105.2 42.6C104.8 42.4 104.5 42.1 104.2 42.2 103.8 42.3 103.3 42.7 103.1 43.1 102.6 43.8 102.9 44.8 103.6 45.2L124.9 58 127.1 66.7 119.9 62.1C119.5 61.8 118.9 62 118.6 62.1 118.3 62.1 118 62.2 117.7 62.6 117.3 63.3 117.6 64.5 118.3 64.7L128.1 71 130.1 79.4 121.6 77 116.2 66.8C115.8 66.3 115 65.8 114.4 66 114.1 66 114.1 66 114.2 66.3 113.3 66.6 112.9 67.6 113.4 68.4L117.4 75.8 108.8 73.4 97.1 51.3C96.6 50.7 95.9 50.6 95.3 50.7 95 50.8 95 50.8 95 50.8 94.2 51.3 93.7 52.1 94.3 52.9L104.7 72.2 94.3 68.9 89.8 60.7C89.2 59.9 88.6 59.7 88 59.9 88 59.9 87.7 60 87.7 60 86.8 60.5 86.7 61.5 86.9 62.1L90.2 67.7 82.6 65.4C82.3 65.4 82 65.5 81.7 65.6 81.3 65.7 80.8 66.1 80.6 66.5 80.5 67.5 80.7 68.4 81.7 68.4L89.3 70.8 83.6 73.7C82.8 74.3 82.7 75.2 82.9 75.8 83.4 76.7 84.4 76.8 85.3 76.5L93.5 72 103.8 74.9 84.8 85.3C84 85.8 83.6 86.9 84.1 87.4 84.6 88.2 85.3 88.7 86.2 88.2Z" fill="rgba(0, 164, 205, 0.21)"></path><path d="M784.1 772.6L759.5 775.9 752.4 770.2 760.7 769.1C761.6 769.2 762.1 768.4 762.2 767.4 762 766.8 761.1 766 760.5 766.3L749 767.5 741.9 762.1 750.2 758.9 760.8 763.5C760.8 763.5 761.2 763.5 761.2 763.5 761.8 763.6 762.5 763.1 762.9 762.5 763 761.6 762.8 760.9 761.9 760.5L754.2 757.2 762.5 754 785.4 763.4C785.4 763.4 785.6 763.7 785.6 763.7 786.2 763.8 786.9 763.3 787.3 762.7 787.8 761.8 787.3 760.8 786.3 760.7L766.5 752.3 776.5 748 785.4 751.8C785.4 751.8 785.4 751.8 785.7 751.8 786.3 751.9 787 751.7 787.3 751.1 787.5 750.2 787.3 749.2 786.4 748.8L780.5 746.4 787.8 743.3C788.7 743.1 788.9 742.2 788.7 741.5 788.5 740.6 787.6 740.1 786.6 740.6L779.3 743.4 781.9 737.8C782.1 736.9 781.9 735.9 781 735.8 780.1 735.3 779.4 735.6 779 736.4L775.3 745.4 765.3 749.3 773.7 729.1C774.1 728.6 773.6 727.5 772.7 727.1 772.1 727 771.1 727.2 770.7 728.1L761.3 751 753 754.2 756.3 746.5C756.7 745.6 756.2 744.9 755.3 744.5 754.7 744.1 753.7 744.6 753.3 745.2L749 755.9 740.7 759.5 741.9 750.5 751 743.6C751.7 743.1 751.8 742.2 751.3 741.5 751.1 740.8 749.8 740.6 749.1 741.2L742.5 746.2 743.7 737.3 763.6 722.4C764.3 721.9 764.5 721 763.9 720.3 763.4 719.6 762.5 719.4 761.8 720L744.3 733 745.7 722.5 753.4 716.6C754.1 716.1 754.3 715.2 753.7 714.5 753.2 713.8 752.3 713.6 751.6 714.2L746.4 717.9 747.4 710.2C747.5 709.2 747 708.5 746.1 708.4 745.2 708.3 744.5 708.8 744.3 709.7L743.3 717.4 739.5 712.5C739 711.8 738.1 711.7 737.4 712.2S736.6 713.7 737.1 714.4L742.7 721.8 741.2 732.5 728.2 715.4C727.6 714.7 726.7 714.5 726 715.1 725.3 715.6 725.2 716.5 725.7 717.2L740.6 736.9 739.4 745.8 734.3 739.1C733.8 738.4 732.9 738.3 732.2 738.8 731.5 739.4 731.4 740.3 731.9 741L738.8 750.1 737.6 758.7 730.8 753.4 729.3 741.9C729 741.2 728.2 740.5 727.5 740.7 726.6 740.9 726.2 741.5 726 742.4L727.1 750.7 720.3 745.4 717.1 720.8C716.9 719.8 716.3 719.4 715.4 719.3 714.4 719.5 714 720.3 713.9 721L716.6 742.7 708.1 735.9 706.9 726.6C707 725.7 706.1 725.2 705.2 725.1 704.5 725.3 703.8 726.2 704 727.1L704.7 733.2 698.4 728.6C697.9 727.9 696.9 728.1 696.2 728.9 695.8 729.5 696 730.4 696.5 730.8L702.8 735.8 696.4 736.5C695.4 736.6 695 737.5 695.2 738.2 695.1 739.1 695.7 739.5 696.3 739.6 696.6 739.6 696.6 739.6 696.9 739.7L706.2 738.4 714.7 745.2 693.3 748C692.3 747.8 691.9 748.7 691.8 749.7 692 750.3 692.6 750.7 693.2 750.8 693.5 750.8 693.5 750.8 693.5 750.8L718.4 747.9 725.2 753.3 716.9 754.3C715.9 754.5 715.5 755.1 715.4 756 715.6 756.7 716.2 757.4 716.8 757.5 717.1 757.5 717.1 757.5 717.4 757.5L728.9 756 735.7 761.3 727.7 764.6 717 760.3C716.1 759.9 715.1 760.4 714.7 760.9 714.6 761.9 714.8 762.8 715.7 763L723.4 766.2 715.4 769.8 692.2 760.1C691.7 759.7 690.6 760.2 690.3 760.7 690.1 761.7 690.3 762.6 691.2 763.1L711.1 771.4 701.1 775.4 692.5 771.7C691.6 771.3 690.6 771.8 690.5 772.7 690.1 773.3 690.3 774.3 691.2 774.7L697.1 777.1 689.8 780.2C689.1 780.4 688.7 781.3 688.9 782.2 689.2 782.6 689.7 783 690.3 783.1 690.3 783.1 690.7 783.1 691 783.1L698.3 780.1 695.9 786C695.5 786.6 696 787.6 696.6 788 696.9 788 696.9 788 696.9 788 697.8 788.2 698.5 787.6 698.6 787L702.3 778.4 712.3 774.1 703.9 794.3C703.8 795.2 704 795.9 704.9 796.3 704.9 796.3 705.2 796.4 705.2 796.4 705.8 796.5 706.4 796.2 706.9 795.4L716.6 772.5 724.6 769.2 721.3 776.9C721.2 777.8 721.4 778.8 722.3 778.9 722.3 779.3 722.6 779.3 722.6 779.3 723.2 779.4 723.9 778.8 724.3 778.3L728.6 767.6 736.9 764.3 735.7 772.9 726.6 779.8C725.9 780.4 725.7 781.6 726.2 782.3 726.8 782.7 727.7 782.8 728.4 782.6L735.1 777.2 733.9 786.2 714.3 801.1C713.6 801.6 713.4 802.5 714 803.2 714.5 803.9 715.4 804.1 716.1 803.5L733.3 790.5 731.8 801.3 724.5 806.9C723.8 807.4 723.6 808.3 724.2 809S725.6 809.9 726.3 809.3L731.2 805.6 730.2 813.3C730 814.2 730.6 814.9 731.5 815.1 732.4 815.2 733.1 814.6 733.3 813.7L734.3 806 738.3 811C738.6 811.3 738.9 811.7 739.2 811.7 739.5 811.7 740.2 811.5 740.5 811.3 741.2 810.7 741.3 809.8 740.8 809.1L734.9 801.7 736.4 790.9 749.7 808.1C750 808.5 750.3 808.8 750.6 808.9 750.9 808.9 751.5 808.7 751.9 808.4 752.6 807.9 752.7 807 752.2 806.3L737 786.6 738.2 777.7 743.2 784.6C743.5 785 744.1 785.1 744.4 785.1 744.7 785.1 745 785.2 745.4 784.9 746.1 784.4 746.2 783.2 745.7 782.8L738.8 773.3 740 764.7 747.1 770.1 748.3 781.6C748.6 782.2 749.1 782.9 749.7 783 750 783 750 783 750.1 782.7 751 782.9 751.7 782 751.5 781.1L750.5 772.7 757.6 778.1 760.5 803C760.7 803.7 761.3 804 761.9 804.1 762.2 804.2 762.2 804.2 762.2 804.2 763.2 804 763.9 803.5 763.7 802.5L761 780.8 769.5 787.6 770.7 796.9C770.9 797.8 771.5 798.2 772.1 798.3 772.1 798.3 772.4 798.3 772.4 798.3 773.4 798.2 773.8 797.3 773.9 796.7L772.9 790.2 779.1 795.2C779.4 795.2 779.7 795.3 780 795.3 780.4 795.4 781 795.1 781.4 794.9 781.8 794 781.9 793.1 781 792.6L774.8 787.7 781.2 787C782.2 786.8 782.6 785.9 782.7 785.3 782.5 784.3 781.6 783.9 780.7 783.8L771.4 785 762.9 778.5 784.3 775.8C785.3 775.6 786 774.8 785.8 774.1 785.6 773.1 785.1 772.4 784.1 772.6Z" fill="rgba(0, 164, 205, 0.21)"></path><path d="M246.5 202.8L260.4 227.5 257.4 237.4 252.7 229.1C252.5 228 251.3 227.9 250.3 228.2 249.7 228.7 249.3 229.9 249.8 230.5L256 242.2 253.3 252 246.3 244.6 246.7 231.3C246.7 231.3 246.6 231 246.6 231 246.4 230.3 245.6 229.8 244.8 229.6 243.7 229.8 243.1 230.4 243.1 231.5L242.9 241.1 235.9 233.6 236.1 205.4C236.1 205.4 236.4 204.9 236.4 204.9 236.2 204.2 235.4 203.7 234.6 203.5 233.5 203.5 232.6 204.4 232.9 205.4L232.5 230.1 223.6 221.3 223.8 210.3C223.8 210.3 223.8 210.3 223.7 209.9 223.6 209.2 223 208.6 222.3 208.5 221.2 208.7 220.3 209.3 220.2 210.5L220.2 217.8 213.8 211.3C213.2 210.4 212.2 210.6 211.6 211.2 210.6 211.8 210.5 212.9 211.5 213.7L217.5 220.3 210.5 219.9C209.4 220.1 208.5 220.7 208.7 221.8 208.6 222.9 209.2 223.5 210.3 223.6L221.3 223.7 229.8 232.6 204.8 232.3C204 232.1 203.1 233.1 203 234.2 203.2 234.9 203.8 235.8 204.9 235.9L233.2 236.1 240.2 243.6 230.6 243.4C229.5 243.3 229 244.2 228.9 245.3 228.8 246.1 229.7 246.9 230.5 247.1L243.7 247.1 251 254.4 241 256.9 229.8 250.2C228.9 249.7 227.9 249.9 227.4 250.8 226.8 251.3 227.1 252.7 228 253.2L236.2 258.1 226.2 260.6 201.9 245.8C201.1 245.3 200 245.6 199.5 246.4 199 247.3 199.3 248.3 200.1 248.8L221.3 261.9 209.6 264.8 200.1 259.1C199.3 258.6 198.2 258.8 197.7 259.7 197.2 260.6 197.5 261.6 198.3 262.1L204.4 266.1 195.8 268.2C194.8 268.5 194.3 269.4 194.5 270.4 194.8 271.4 195.7 272 196.7 271.7L205.3 269.5 201.7 275.6C201.2 276.4 201.4 277.5 202.3 278S204.2 278.2 204.7 277.4L210.1 268.3 222.2 265.3 209.5 286.4C209 287.3 209.3 288.3 210.1 288.9 211 289.4 212 289.1 212.6 288.2L227 264.1 237 261.6 232.1 269.8C231.6 270.6 231.9 271.7 232.7 272.2 233.6 272.7 234.6 272.5 235.1 271.6L241.9 260.4 251.5 258 248.8 267.4 237.2 274C236.6 274.5 236.2 275.7 236.7 276.3 237.3 277.3 238.1 277.5 239.1 277.2L247.5 272.5 244.7 282 220 295.9C219 296.5 218.9 297.3 219.1 298.3 219.7 299.3 220.8 299.4 221.5 299.2L243.4 287.1 239.8 299 230.5 304.3C229.5 304.5 229.4 305.7 229.6 306.7 230.2 307.3 231.4 307.7 232.3 307.1L238.4 303.8 236.2 312.4C235.7 313.2 236.3 314.2 237.5 314.6 238.3 314.8 239.2 314.2 239.4 313.4L242 304.7 245.4 311.2C246 312.1 247.2 312.2 247.8 311.7 248.8 311.4 249 310.6 248.8 310 248.7 309.6 248.7 309.6 248.6 309.3L243.4 300 247 288.1 259 309.6C259.2 310.6 260.4 310.7 261.4 310.5 262 309.9 262.2 309.2 262 308.5 261.9 308.1 261.9 308.1 261.9 308.1L248.3 283 251 273.5 255.7 281.8C256.3 282.8 257.1 283 258.1 282.7 258.7 282.2 259.2 281.3 259 280.6 259 280.3 259 280.3 258.9 279.9L252.3 268.4 255.1 258.9 262 266 262 279.2C261.9 280.3 262.8 281.1 263.6 281.3 264.6 281.1 265.6 280.5 265.3 279.4L265.5 269.8 272.7 276.8 272.2 305.5C272.1 306.3 273 307.2 273.8 307.4 274.8 307.1 275.8 306.5 275.9 305.4L276.3 280.7 284.7 289.6 284.5 300.3C284.4 301.4 285.4 302.3 286.4 302 287.2 302.2 288.1 301.6 288.2 300.4L288.2 293.1 294.6 299.6C295.1 300.2 296.2 300.3 297.2 299.7 297.4 299.2 297.6 298.5 297.4 297.8 297.4 297.8 297.3 297.4 297.3 297.1L290.9 290.6 298.2 290.6C299 290.8 299.8 289.8 300 289.1 299.9 288.7 299.9 288.7 299.9 288.7 299.7 287.7 298.8 287.2 298.1 287.3L287.4 287.1 278.6 278.3 303.6 278.6C304.7 278.4 305.3 277.8 305.3 276.7 305.3 276.7 305.3 276.4 305.3 276.4 305.1 275.7 304.6 275.1 303.4 275L275.1 274.4 268.2 267.3 277.7 267.5C278.8 267.3 279.7 266.6 279.5 265.6 279.8 265.5 279.7 265.2 279.7 265.2 279.6 264.5 278.7 264 277.9 263.8L264.7 263.8 257.7 256.4 267.4 254 278.6 260.7C279.5 261.2 280.8 260.9 281.4 260 281.5 259.2 281.3 258.2 280.8 257.6L272.2 252.8 282.2 250.3 306.4 264.7C307.2 265.3 308.3 265 308.8 264.1 309.3 263.3 309 262.2 308.2 261.7L287 249.1 299.1 246 308.2 251.5C309 252 310.1 251.7 310.6 250.8S310.8 249 310 248.4L303.9 244.8 312.6 242.7C313.6 242.4 314.1 241.5 313.9 240.5 313.6 239.5 312.7 238.9 311.7 239.2L303.1 241.4 306.6 235C306.9 234.6 307.1 234.1 307 233.8 307 233.4 306.4 232.8 306 232.6 305.1 232.1 304.1 232.3 303.6 233.2L298.3 242.6 286.2 245.6 298.8 224.1C299 223.7 299.3 223.3 299.2 222.9 299.1 222.6 298.6 222 298.2 221.7 297.3 221.2 296.3 221.4 295.7 222.3L281.4 246.8 271.4 249.3 276.6 241C276.9 240.6 276.7 239.9 276.6 239.6 276.5 239.2 276.4 238.9 276 238.6 275.1 238.1 273.8 238.5 273.6 239.2L266.5 250.5 256.9 252.9 259.5 243.1 271.2 236.9C271.8 236.4 272.3 235.5 272.1 234.8 272 234.5 272 234.5 271.7 234.6 271.4 233.5 270.2 233.1 269.3 233.7L260.9 238.4 263.6 228.5 288.8 214.9C289.4 214.4 289.5 213.6 289.4 212.9 289.3 212.6 289.3 212.6 289.3 212.6 288.7 211.6 287.8 211.1 286.9 211.7L265 223.8 268.6 211.9 277.9 206.6C278.8 206 279 205.2 278.8 204.6 278.8 204.6 278.7 204.2 278.7 204.2 278.1 203.3 277 203.2 276.3 203.4L269.9 207.2 272.5 198.4C272.4 198.1 272.4 197.7 272.3 197.4 272.2 197.1 271.7 196.5 271.2 196.2 270.1 196.1 269.1 196.4 269 197.5L266.4 206.2 263 199.7C262.4 198.8 261.2 198.7 260.5 198.9 259.6 199.5 259.5 200.6 259.8 201.6L265 210.9 261.8 222.8 249.8 201.2C249.2 200.3 248 199.8 247.4 200.4 246.4 201 245.9 201.8 246.5 202.8Z" fill="rgba(0, 164, 205, 0.21)"></path></g><defs><mask id="SvgjsMask1735"><rect width="800" height="800" fill="#ffffff"></rect></mask><linearGradient x1="50%" y1="100%" x2="50%" y2="0%" gradientUnits="userSpaceOnUse" id="SvgjsLinearGradient1736"><stop stop-color="#0e2a47" offset="0"></stop><stop stop-color="rgba(1, 85, 147, 1)" offset="1"></stop></linearGradient><filter id="SvgjsFilter1737"><feGaussianBlur stdDeviation="1"></feGaussianBlur></filter></defs></svg>