<svg xmlns="http://www.w3.org/2000/svg" version="1.1" xmlns:xlink="http://www.w3.org/1999/xlink" xmlns:svgjs="http://svgjs.dev/svgjs" width="1440" height="560" preserveAspectRatio="none" viewBox="0 0 1440 560"><g mask="url(&quot;#SvgjsMask1036&quot;)" fill="none"><rect width="1440" height="560" x="0" y="0" fill="rgba(1, 85, 147, 1)"></rect><circle r="8.97" cx="309.62" cy="62.75" filter="url(#SvgjsFilter1037)" fill="rgba(0, 164, 205, 0.21)"></circle><circle r="5.68" cx="1191.41" cy="513.97" filter="url(#SvgjsFilter1037)" fill="rgba(0, 164, 205, 0.21)"></circle><circle r="7.52" cx="1165.61" cy="270.43" filter="url(#SvgjsFilter1037)" fill="rgba(0, 164, 205, 0.21)"></circle><circle r="5.595" cx="499.94500000000005" cy="296.39500000000004" filter="url(#SvgjsFilter1037)" fill="rgba(0, 164, 205, 0.21)"></circle><circle r="7.78" cx="733.0699999999999" cy="543.2099999999999" filter="url(#SvgjsFilter1037)" fill="rgba(0, 164, 205, 0.21)"></circle><circle r="6.125" cx="874.775" cy="71.795" filter="url(#SvgjsFilter1037)" fill="rgba(0, 164, 205, 0.21)"></circle><circle r="7.29" cx="306.95000000000005" cy="459.63" filter="url(#SvgjsFilter1037)" fill="rgba(0, 164, 205, 0.21)"></circle><circle r="7.64" cx="123.95" cy="44.3" filter="url(#SvgjsFilter1037)" fill="rgba(0, 164, 205, 0.21)"></circle><circle r="6.925" cx="579.0949999999999" cy="339.805" filter="url(#SvgjsFilter1037)" fill="rgba(0, 164, 205, 0.21)"></circle><circle r="6.475" cx="167.42499999999998" cy="229.685" filter="url(#SvgjsFilter1037)" fill="rgba(0, 164, 205, 0.21)"></circle><circle r="9.235" cx="1067.435" cy="527.875" filter="url(#SvgjsFilter1037)" fill="rgba(0, 164, 205, 0.21)"></circle><circle r="8.375" cx="493.475" cy="534.245" filter="url(#SvgjsFilter1037)" fill="rgba(0, 164, 205, 0.21)"></circle><circle r="6.66" cx="1222.03" cy="298.01000000000005" filter="url(#SvgjsFilter1037)" fill="rgba(0, 164, 205, 0.21)"></circle><circle r="5" cx="1022.05" cy="551.93" filter="url(#SvgjsFilter1037)" fill="rgba(0, 164, 205, 0.21)"></circle><circle r="7.365" cx="270.555" cy="463.735" filter="url(#SvgjsFilter1037)" fill="rgba(0, 164, 205, 0.21)"></circle><circle r="4.825" cx="1202.625" cy="181.605" filter="url(#SvgjsFilter1037)" fill="rgba(0, 164, 205, 0.21)"></circle><circle r="9.075" cx="211.845" cy="291.515" filter="url(#SvgjsFilter1037)" fill="rgba(0, 164, 205, 0.21)"></circle><circle r="4.705" cx="939.485" cy="509.395" filter="url(#SvgjsFilter1037)" fill="rgba(0, 164, 205, 0.21)"></circle><circle r="7.11" cx="29.349999999999998" cy="542.21" filter="url(#SvgjsFilter1037)" fill="rgba(0, 164, 205, 0.21)"></circle><circle r="8.93" cx="735.4399999999999" cy="558.38" filter="url(#SvgjsFilter1037)" fill="rgba(0, 164, 205, 0.21)"></circle><path d="M1015.5 538.8L975.8 537.8 968.1 530 974.9 506.5 985.7 503.7 1019.7 524.5C1020.1 524.6 1020.1 524.6 1020.6 524.8 1021.5 525 1022.6 524.8 1023.4 523.6 1023.8 522.2 1023.6 521.2 1022.4 520.3L992.7 502.2 1009.4 498 1022.6 505.9C1022.6 505.9 1023 506 1023 506 1024 506.3 1025 506.1 1025.9 504.8 1026.6 504 1026.1 502.4 1024.8 501.5L1016.4 496.1 1028.8 493.2C1029.8 493 1030.7 491.7 1030.6 490.2S1028.7 488.1 1027.2 488.2L1015.3 491.3 1020.3 482.7C1021.2 481.5 1020.6 479.8 1019.4 478.9 1018.5 478.7 1016.9 478.7 1016.1 480L1008.3 493.2 991.1 497.2 1009.2 467.5C1010.1 466.2 1009.6 464.6 1008.8 463.9 1007.4 463.5 1005.9 463.5 1005 464.8L984.6 498.9 973.3 501.6 956.9 484.3 960.1 473.2 994.7 453.8C995.9 453.1 996.3 451.8 995.6 450.6S993.6 449 992.4 449.6L961.9 466.8 966.9 449.7 980 442.5C981.2 441.9 981.6 440.5 981 438.8S979 437.2 977.8 437.9L968.8 443.3 972.4 430.8C972.8 429.4 971.6 428.1 970.3 427.7 968.9 427.3 967.7 428 967.3 429.4L963.7 441.8 958.8 432.9C958.3 431.2 956.9 430.8 955.5 431.9 954.4 432.6 954 434 954.6 435.2L961.8 448.3 956.9 465.3 940.3 434.5C939.7 433.3 937.8 432.8 936.6 433.5S935 435.5 935.7 436.7L955 471.8 951.8 482.8 928.2 488.5 920.5 480.3 921.6 440.6C921.5 439.1 920.2 438.2 918.9 437.8 917.3 437.9 916.5 439.1 916.1 440.5L915.5 475.3 903.6 462.9 904.1 447.5C904 446 902.7 445.1 901.4 444.7 900.3 444.9 899 446 899 447.6L898.7 457.4 889.8 448.4C889 447.6 887.5 447.7 886.3 448.4 885.5 449.6 885.5 451.1 886.3 451.9L895.2 460.9 884.7 460.9C883.6 461.1 882.3 462.2 882.5 463.2 882.1 464.6 882.9 465.4 884.3 465.8 884.3 465.8 884.7 465.9 884.7 465.9L900.1 466.3 912 478.8 877.2 478.2C875.7 478.2 874.5 478.9 874.5 480.4 874.6 481.9 875.4 482.7 876.3 482.9 876.8 483.1 876.8 483.1 876.8 483.1L917 483.8 924.7 492 917.8 515.5 907.1 517.9 872.6 497.4C871.8 496.6 870.2 497.2 869.4 497.9 868.6 499.2 869.1 500.8 870.4 501.7L900.1 519.8 883.4 524 870.2 516.1C868.9 515.3 867.4 515.3 867 516.7 866.1 518 866.7 519.6 867.4 520.3L876.5 525.5 864.1 528.4C862.9 529 862.1 530.3 862.1 531.8 862.5 532.4 863.2 533.1 864.2 533.4 864.6 533.5 864.6 533.5 865.2 533.2L877.6 530.3 872.4 539.3C871.6 540.5 872.2 541.7 873 542.5 873.5 542.6 873.5 542.6 873.9 542.7 874.9 543 875.9 542.8 876.7 542L884.5 528.8 901.2 524.6 883.1 554.4C882.7 555.7 882.7 557.3 884.1 557.7 884.4 558.3 884.4 558.3 884.9 558.4 885.8 558.7 887 558 887.7 557.2L908.2 522.7 918.9 520.3 935.9 537.7 932.8 548.3 897.7 567.6C896.5 568.3 896 570.1 896.6 571.3S899.1 573 900.3 572.4L930.8 555.2 926 571.8 912.8 579.5C911.6 580.1 911.2 581.5 911.8 582.7 912.5 583.9 913.9 584.3 915.1 583.6L924 578.7 920.4 591.2C920.1 592.1 920.6 593.7 922 594.1 923.4 594.5 925.2 593.6 925.4 592.6L929.1 580.2 934 589.1C934.3 589.7 934.6 590.3 935.1 590.4 936 590.7 936.6 590.4 937.2 590.1 938.4 589.4 938.8 588 938.1 586.8L931.1 573.3 935.9 556.7 952.4 587.5C952.8 588.1 953.2 588.2 954.1 588.5 954.6 588.6 955.1 588.7 955.7 588.4 956.8 587.8 957.4 585.9 956.7 584.7L937.9 549.8 941 539.2 964.1 533.4 972.3 541.3 971.2 581.4C971.4 582.5 972 583.7 973 583.9 973.4 584.1 973.4 584.1 973.5 583.6 974.9 584 976.3 582.9 976.2 581.4L976.8 546.6 989.1 559.1 988.7 574.5C988.9 575.6 989.7 576.3 990.6 576.5 990.6 576.5 991 576.7 991 576.7 992.4 577.1 993.8 576 993.7 574.4L993.7 564 1002.6 573C1002.9 573.6 1003.4 573.8 1003.8 573.9 1004.8 574.2 1005.8 574 1006 573.5 1007.3 572.4 1007.2 570.9 1006.6 569.7L997.7 560.6 1007.6 561C1009.1 560.9 1010.4 559.8 1010.4 558.3 1010.2 557.2 1009.1 555.9 1008 556.1L992.6 555.7 980.8 543.2 1015.6 543.8C1017.1 543.7 1017.9 542.5 1018.3 541.1 1018.2 540.1 1017 538.7 1015.5 538.8ZM969 507.8L963.8 525.8 963 528.6 960.3 529.3 942.6 533.6 939.4 534.2 937.5 532.2 924.8 519 922.9 516.9 923.7 514.2 928.9 496.2 929.7 493.4 932.4 492.7 950.2 488.4 952.9 487.7 955.3 489.8 967.9 503 969.8 505.1 969 507.8Z" fill="rgba(0, 164, 205, 0.21)"></path><path d="M207.5 302.4L224.5 316.9 212 321.9C210.6 322.4 209.6 324.1 210 326.1 211 327.6 212.8 328.6 214.3 327.5L230.2 321.8 243.9 332.6 210.7 344.5C209.3 345.5 208.3 347.3 208.7 348.7 209.7 350.8 211.4 351.7 212.9 350.7L249.6 337.4 270 354.6 240.2 361.8 265.9 378.5 241 387.9 210.8 363.3C210.9 362.7 210.2 362.6 209.6 362.4 208.3 362.2 207 362.6 206.1 363.8 205.3 365 205.6 367 206.6 368.4L234 390.6 217.5 396.2 204.4 385.6C203.8 384.8 203.2 384.7 202.6 384.6 202 384.5 200.6 384.9 199.7 386.1 198.9 387.2 199.2 389.2 200.4 390.1L210.5 399 189.7 407.1C187.7 407.4 187.3 409.3 187.7 411.3 188.1 412.7 189.9 413.6 192 412.7L212.7 405.2 210.5 418.4C210.1 420.3 211.8 421.9 213.1 422.1 215 422.4 216.4 421.4 216.8 419.5L219.7 402.5 236.2 396.8 230.4 430.9C230.1 432.8 231.1 434.3 233 434.6 234.3 434.8 236.4 433.9 236.7 432L243.2 394.1 268.1 384.8 259.9 413.9 286.9 400.3 282.4 426.8 246.4 440.1C244.3 441.1 243.9 443 244.4 444.3 244.8 445.7 246.6 446.6 248.6 446.3L281.2 433.7 278.3 450.8 262.3 457.1C260.3 457.4 259.3 459.2 260.3 461.3 260.7 462.7 262.5 463.6 264.6 462.7L277 458.3 273.3 480.4C272.9 482.3 274 483.8 275.9 484.1S279.2 483.4 279.6 481.5L283.3 459.4 293.6 467.6C295.3 469.2 297.3 468.9 298.1 467.8 299.7 466.1 299.4 464.1 297.6 463.1L284.6 451.8 287.5 434.8 314.2 457.5C316 458.5 318 458.2 318.8 457 320.4 455.3 320.1 453.3 318.3 452.4L288.7 427.9 293.2 401.4 314.2 423.1 316.1 392.9 336.5 410 330.1 447.9C329.8 449.8 331.4 451.4 332.7 451.6 334.6 451.9 336.1 450.9 336.4 449L342.3 414.3 355.9 425.7 353 442.7C352.7 444.6 353.8 446.1 355.7 446.4 356.9 446.6 359 445.7 359.4 443.8L361.6 430.5 378.7 444.5C380.4 446.1 382.4 445.8 383.3 444 384.2 442.8 384.5 440.9 382.7 440L365.7 425.4 378.3 420.4C379.6 420 380.6 418.2 380.2 416.8 379.8 415.5 378.6 414.6 378 414.5 377.3 414.4 376.7 414.3 376 414.8L360.1 420.5 346.3 409.8 379.5 397.9C381 396.8 381.9 395.1 381.5 393.7 381.1 392.3 380 391.5 378.7 391.3 378.1 391.1 378.1 391.1 377.3 391.7L340.7 404.9 320.2 387.8 350 380.5 324.3 363.8 349.3 354.4 379.5 379.1C380.6 379.9 382.5 380.2 384.1 378.5 385 377.4 384.6 375.4 383.6 373.9L356.2 351.7 372.8 346.1 385.9 356.8C386.9 358.2 388.9 357.9 390.5 356.3 391.3 355.1 391 353.1 390 351.6L379.7 343.4 400.6 335.3C402.6 334.9 402.9 333.1 402.6 331.1 402.1 330.3 400.9 329.5 400.3 329.4 399.6 329.3 399 329.1 398.3 329.7L377.5 337.2 379.8 323.9C380.1 322 378.4 320.4 377.2 320.2L377.2 320.2C375.3 319.9 373.8 321 373.5 322.8L370.6 339.9 354 345.5 359.8 311.4C360.2 309.5 359.1 308.1 357.2 307.7S353.8 308.5 353.5 310.4L347.1 348.2 322.1 357.6 330.3 328.5 303.3 342.1 307.8 315.6 343.9 302.2C346 301.3 346.3 299.4 345.9 298 345.5 296.6 343.7 295.7 341.7 296L309.1 308 311.9 291.6 327.9 285.2C329.9 284.9 330.9 283.1 330 281 329.5 279.7 327.8 278.7 325.8 279L313.2 284 317 261.9C317.3 260 316.3 258.6 314.4 258.2S311 259 310.7 260.9L306.9 282.9 296.6 274.7C296.1 274 295.5 273.8 294.8 273.7 293.6 273.5 292.8 274 292.1 274.6 290.5 276.2 290.8 278.2 292.6 279.2L305.6 290.5 302.7 307.5 276.1 284.8C275.4 284.7 274.8 284.6 274.2 284.5 272.9 284.3 272.2 284.8 271.4 285.3 269.9 287 270.2 289 272 290L301.5 314.5 297 341 276.1 319.2 274.2 349.4 253.7 332.3 260.2 294.4C260.5 292.6 258.8 291 257.5 290.8 255.6 290.4 254.2 291.5 253.8 293.4L248 327.4 234.3 316.7 237.2 299.6C237.5 297.7 236.5 296.3 234.6 295.9S231.2 296.7 230.9 298.5L228.6 311.8 211.5 297.8C211 297.1 210.4 297 209.7 296.9 209.1 296.8 207.7 297.2 206.9 298.4 206.1 299.5 205.7 301.4 207.5 302.4ZM281.4 333.8L298.5 351.6 320.5 340.4 313.8 364.6 334.2 377.8 310.4 384.2 308.9 408.6 291.8 390.7 269.8 401.9 276.4 378.4 256 364.5 279.7 358.8 281.4 333.8Z" fill="rgba(0, 164, 205, 0.21)"></path><path d="M649.9 281.5L605 253.5 601.4 239.3 625.1 216.9 639.5 221 664.4 267.9C664.8 268.4 664.8 268.4 665.2 268.8 666.1 269.8 667.5 270.3 669.3 269.4 670.7 268.1 671.2 266.7 670.3 264.9L648.4 224 670.4 230.5 680.3 248.4C680.3 248.4 680.8 248.9 680.8 248.9 681.6 249.8 683 250.3 684.8 249.5 686.2 249.1 686.7 246.8 685.9 245L679.9 233 696 238C697.4 238.5 699.2 237.7 700.2 235.9S699.4 232.2 697.6 231.3L681.9 226.8 693.4 220.3C695.2 219.4 695.7 217.2 694.9 215.4 694 214.4 692.2 213.5 690.4 214.3L672.4 224.2 650 217.2 690.9 195.3C692.8 194.5 693.3 192.2 692.9 190.9 691.6 189.5 689.8 188.5 687.9 189.4L641.5 214.7 626.7 210.2 619.4 179.2 630.6 168.7 683.5 169.8C685.3 169.8 686.7 168.5 686.8 166.7S685.5 163.5 683.7 163.4L637.1 162.5 654.3 146.3 674.2 146.8C676 146.9 677.4 145.6 678 143.3S676.7 140.1 674.9 140.1L660.9 140.1 673.4 128.3C674.8 126.9 674.4 124.7 673.1 123.3 671.8 121.9 670 121.8 668.6 123.1L656 135 656.4 121.4C656.9 119.2 655.6 117.8 653.3 118.2 651.5 118.1 650.1 119.4 650.1 121.2L649.5 141.1 632.3 157.4 634.1 110.8C634.1 109 632.4 107.1 630.6 107.1S627.4 108.4 627.3 110.2L625.8 163.5 614.6 174.1 583.6 164.6 580.4 150 608.4 105.1C609.4 103.3 608.6 101.5 607.2 100.1 605.5 99.1 603.6 100 602.2 101.3L578 140.9 572.7 118.5 583.7 101.2C584.6 99.4 583.8 97.6 582.4 96.2 581.1 95.7 578.8 96.1 577.9 97.9L570.8 109 566.7 92.6C566.3 91.2 564.5 90.2 562.7 90.2 560.9 91 559.9 92.8 560.3 94.2L564.4 110.6 552.4 103.5C551 103 548.7 103.3 548.2 104.7 546.8 106 547.3 107.4 548.6 108.8 548.6 108.8 549 109.2 549 109.2L566.4 120.2 571.6 142.5 532 118.3C530.2 117.3 528.4 117.2 527.5 119 526.5 120.8 526.9 122.2 527.8 123.1 528.2 123.6 528.2 123.6 528.2 123.6L574 151.6 577.2 166.2 553.5 188.6 539.6 184.1 513.8 137.2C513.4 135.8 511.1 135.3 509.8 135.7 507.9 136.6 507.4 138.8 508.3 140.7L530.2 181.6 508.2 175.1 498.3 157.1C497.4 155.3 495.6 154.3 494.2 155.6 492.4 156.5 491.9 158.7 492.3 160.1L499.2 172.1 483 167.1C481.2 167 479.4 167.9 478.4 169.7 478.4 170.6 478.8 171.9 479.7 172.9 480.1 173.3 480.1 173.3 481 173.4L497.2 178.4 485.2 185.3C483.4 186.1 483.3 187.9 483.8 189.3 484.2 189.8 484.2 189.8 484.6 190.2 485.5 191.1 486.9 191.6 488.2 191.2L506.2 181.3 528.2 187.9 487.2 209.8C485.8 211.1 484.9 212.9 486.2 214.3 486.2 215.2 486.2 215.2 486.6 215.6 487.5 216.6 489.3 216.6 490.7 216.2L537.6 190.4 551.5 194.9 559.2 226.3 548.5 236.4 495.1 234.9C493.3 234.8 491.4 236.6 491.4 238.4S493.1 242.1 494.9 242.1L541.5 243 524.7 258.8 504.4 258.7C502.6 258.7 501.2 260 501.1 261.8 501.1 263.6 502.4 265 504.2 265L517.8 265.4 505.2 277.3C504.3 278.2 503.7 280.4 505.1 281.8 506.4 283.2 509.1 283.3 510 282.4L522.6 270.6 522.2 284.1C522.2 285 522.1 285.9 522.6 286.4 523.5 287.3 524.4 287.4 525.3 287.4 527.1 287.4 528.5 286.1 528.5 284.3L529.6 264 546.3 248.2 544.5 294.7C544.5 295.6 544.9 296.1 545.8 297 546.2 297.5 546.7 298 547.6 298 549.4 298 551.3 296.3 551.3 294.5L553.3 241.6 564 231.5 594.5 240.5 598.6 255.1 570.2 300.5C569.7 301.8 569.6 303.6 570.5 304.5 570.9 305 570.9 305 571.4 304.6 572.7 306 575 305.6 575.9 303.8L600.2 264.2 605.9 287 594.9 304.4C594.4 305.7 594.9 307.1 595.7 308 595.7 308 596.2 308.5 596.2 308.5 597.5 309.9 599.8 309.5 600.7 307.7L607.9 295.7 611.9 312.1C611.9 313 612.3 313.5 612.8 313.9 613.7 314.9 615 315.4 615.5 314.9 617.7 314.5 618.7 312.7 618.7 310.9L614.7 294.5 625.8 301.6C627.6 302.6 629.9 302.2 630.8 300.4 631.3 299.1 630.9 296.8 629.6 296.3L612.2 285.4 607 263.1 646.6 287.3C648.4 288.3 650.2 287.4 651.6 286.1 652.1 284.7 651.7 282.5 649.9 281.5ZM617.5 214.5L599.3 231.6 596.5 234.2 592.9 233.2 569.6 226.2 565.6 224.7 564.8 221.1 559.1 197.4 558.3 193.7 561.1 191.1 579.3 174 582.1 171.3 585.7 172.3 609 179.4 612.6 180.4 613.8 184.5 619.5 208.2 620.3 211.8 617.5 214.5Z" fill="rgba(0, 164, 205, 0.21)"></path><path d="M888.6 182.4L883.6 149.7 888.9 142.2 909.1 144.4 913.1 152.8 900.9 183.7C900.9 184.1 900.9 184.1 900.8 184.5 900.7 185.3 901.1 186.1 902.2 186.7 903.4 186.8 904.2 186.5 904.8 185.3L915.3 158.3 921.1 171.4 916.6 183.4C916.6 183.4 916.6 183.8 916.6 183.8 916.5 184.6 916.8 185.4 918 185.9 918.7 186.4 920 185.7 920.5 184.6L923.8 176.9 928 186.6C928.3 187.4 929.4 188 930.7 187.7S932.1 185.8 931.8 184.6L927.6 175.3 935.3 178.1C936.5 178.7 937.7 178 938.3 176.8 938.3 176 938.1 174.8 936.9 174.3L924.9 169.8 919.1 156.3 946.2 166.8C947.3 167.3 948.6 166.7 949.1 165.9 949.2 164.7 948.9 163.5 947.8 163L916.9 151.2 913 142.4 924.7 126.3 934.3 127.3 955.3 152.9C956 153.8 957.2 153.9 958.1 153.2S959.1 151.3 958.4 150.4L939.9 127.9 954.6 129.5 962.4 139.2C963.1 140.1 964.3 140.2 965.6 139.5S966.6 137.6 965.9 136.7L960.1 130.1 970.9 131.2C972.1 131.4 973 130.3 973.1 129.1 973.2 127.9 972.5 127 971.3 126.9L960.6 125.7 967.2 120.4C968.5 119.7 968.6 118.5 967.5 117.6 966.8 116.7 965.6 116.6 964.7 117.3L955 125.1 940.3 123.5 963.2 105.5C964 104.8 964.2 103.2 963.5 102.3S961.6 101.3 960.7 102L934.8 123 925.2 121.9 917.1 103.4 922.8 95.9 955.5 91C956.7 90.7 957.2 89.6 957.3 88.4 957.1 87.1 955.9 86.6 954.7 86.5L926.1 91.1 934.6 79.5 947.2 77.6C948.5 77.4 949 76.2 949.1 75 948.8 74.2 947.7 73.2 946.5 73.5L938.3 74.7 944.4 66.1C944.9 65.3 944.7 64.1 943.9 63.2 942.8 62.7 941.6 62.9 941.1 63.7L934.9 72.3 933.4 63.7C933.1 62.8 932 61.9 931.2 62.2 930 62.1 929.5 62.9 929.4 64.1 929.4 64.1 929.3 64.5 929.3 64.5L931.2 77.1 922.7 88.7 918.1 60C917.9 58.8 917.2 57.9 915.9 58.2 914.7 58.5 914.2 59.2 914.1 60 914.1 60.4 914.1 60.4 914.1 60.4L919.4 93.6 913.8 101 893.5 98.8 890 90.4 901.7 59.1C902.2 58.3 901.6 57.1 900.8 56.6 899.7 56.1 898.4 56.7 897.8 57.9L887.3 84.9 881.5 71.8 886 59.8C886.5 58.7 886.2 57.4 885 57.3 883.9 56.8 882.6 57.5 882.1 58.2L879.2 66.3 875 56.6C874.3 55.8 873.2 55.2 872 55.5 871.5 55.9 871 56.6 870.9 57.4 870.9 57.8 870.9 57.8 871.3 58.3L875.5 68 867.3 65.1C866.2 64.5 865.3 65.3 864.8 66 864.8 66.4 864.8 66.4 864.7 66.8 864.6 67.6 864.9 68.4 865.7 68.9L877.7 73.4 883.5 86.5 856.5 76C855.3 75.9 854.1 76.1 853.9 77.3 853.5 77.7 853.5 77.7 853.5 78.1 853.4 78.9 854.1 79.8 854.8 80.2L886.2 92 889.7 100.4 877.9 116.9 868.7 115.9 847.8 89.9C847.1 89.1 845.5 88.9 844.6 89.6S843.5 91.9 844.2 92.8L862.8 115.3 848.4 113.7 840.2 104C839.5 103.1 838.3 103 837.4 103.7 836.6 104.4 836.4 105.6 837.1 106.5L842.5 113.1 831.7 112C830.9 111.9 829.7 112.5 829.5 113.7 829.4 114.9 830.5 116.3 831.3 116.3L842 117.5 835.4 122.8C835 123.2 834.5 123.5 834.5 123.9 834.4 124.7 834.8 125.2 835.1 125.6 835.8 126.5 837 126.6 837.9 125.9L848 118.1 862.3 119.6 839.4 137.7C839 138.1 839 138.5 838.9 139.3 838.8 139.7 838.8 140.1 839.1 140.5 839.9 141.4 841.5 141.6 842.3 140.9L868.3 120.3 877.4 121.3 885.5 139.4 880.3 147.3 847.2 152.2C846.3 152.5 845.4 153.3 845.3 154 845.3 154.4 845.3 154.4 845.7 154.5 845.6 155.7 846.7 156.6 847.9 156.3L876.6 151.7 868.1 163.7 855.4 165.6C854.5 165.9 854.1 166.6 854 167.4 854 167.4 853.9 167.8 853.9 167.8 853.8 169 854.9 170 856.2 169.7L864.8 168.2 858.6 176.8C858.2 177.1 858.1 177.5 858.1 177.9 858 178.7 858.3 179.6 858.7 179.6 859.8 180.5 861.1 180.3 861.9 179.6L868.1 171 869.2 179.1C869.5 180.4 870.6 181.3 871.8 181 872.7 180.7 873.6 179.6 873.3 178.7L871.4 166.1 879.9 154.5 884.5 183.2C884.8 184.4 885.9 184.9 887.1 185.1 887.9 184.7 888.9 183.6 888.6 182.4ZM907.2 139.7L891.7 138.1 889.3 137.8 888.3 135.7 882.2 121.8 881.2 119.3 882.6 117.4 891.6 105.1 893 103.2 895.4 103.5 910.9 105.1 913.3 105.4 914.3 107.5 920.4 121.4 921.4 123.5 920 125.8 911 138.1 909.6 140 907.2 139.7Z" fill="rgba(0, 164, 205, 0.21)"></path><path d="M1128 437.8L1170.7 419.7 1209 435.5 1176.2 460.8 1130.2 454.5C1130.2 454.5 1129.6 454.5 1129.6 454.5 1128.5 454.7 1127.5 455.9 1127.1 457.1 1126.8 458.9 1128.1 460.4 1129.8 460.2L1170.1 465.5 1154.2 477.8 1136.4 475.7C1136.4 475.7 1135.8 475.7 1135.8 475.7 1134.7 475.9 1133.7 477.1 1133.3 478.3 1133 480.1 1134.3 481.6 1136 481.4L1148.1 483.1 1136.3 492.1C1135.2 492.8 1135 495.1 1135.7 496.1 1136.5 497.7 1138.7 497.4 1139.7 496.7L1151.5 487.8 1149.8 499.9C1149.4 501.6 1150.7 503.1 1152.4 502.9 1154.2 503.2 1155.7 501.9 1155.4 500.3L1157.6 482.5 1173.6 470.7 1168.2 511C1167.8 512.7 1169.2 514.2 1170.8 514 1172.6 514.4 1174.1 513 1173.9 511.4L1180.2 465.3 1213 440.1 1218.5 481.7 1190.1 518.8C1189.1 520.1 1189.4 521.7 1190.6 522.7 1191.9 523.7 1193.6 523.4 1194.5 522.2L1219.5 489.5 1222.2 509.5 1211.6 523.3C1210.6 524.6 1210.9 526.2 1212.1 527.2 1213.4 528.2 1215 527.9 1216 526.7L1223.2 517.2 1225.3 532.8C1225 534.5 1226.8 535.4 1228.4 535.2 1230.1 535 1231.1 533.7 1230.8 532L1228.9 517.6 1238.4 524.8C1239.6 525.8 1241.3 525.6 1242.3 524.3S1243 521.4 1241.7 520.4L1227.9 509.8 1225.2 489.9 1257.9 514.9C1259.2 515.9 1260.9 515.6 1261.8 514.4 1262.8 513.1 1262.6 511.5 1261.3 510.5L1224.2 482.1 1218.8 441 1257 456.8 1274.4 498.6C1275.2 500.2 1276.9 500.5 1278.6 500.3 1280.2 499.5 1280.5 497.8 1280.3 496.1L1264.6 458.6 1283.1 466.4 1289.9 483C1290.6 484.6 1292.4 484.9 1294 484.7 1295.6 483.9 1296 482.2 1295.8 481.1L1290.9 469.8 1304.7 475.4C1305.9 475.8 1308.1 475.5 1308.4 473.7 1308.7 472 1308.5 470.3 1306.8 470L1293.1 464.5 1304.3 459.6C1305.9 458.8 1306.2 457.1 1306.1 456 1305.3 454.9 1304.1 454 1303 454.1 1303 454.1 1302.4 454.2 1302.4 454.2L1285.8 460.9 1267.3 453.2 1304.7 437.5C1306.3 436.7 1306.7 435 1306.5 433.9 1305.8 432.8 1304.5 431.9 1303.4 432 1303.4 432 1302.9 432.1 1302.9 432.1L1260.1 450.2 1221.8 434.4 1254.6 409.1 1300.7 415.4C1302.4 415.8 1303.9 414.4 1303.7 412.8 1304 411 1302.7 409.5 1301 409.7L1260.8 404.4 1276.7 392.1 1294.5 394.2C1296.2 394.6 1297.7 393.2 1297.5 391.6 1297.8 389.8 1296.5 388.3 1294.8 388.5L1282.7 386.8 1294.6 377.8C1295.6 377.1 1295.9 374.8 1295.1 373.8 1294.4 372.8 1293.3 372.4 1292.2 372.5 1291.6 372.6 1291 372.7 1290.6 373.3L1278.7 382.2 1280.5 370.1C1280.9 368.4 1279.5 366.8 1277.9 367.1 1277.9 367.1 1277.3 367.1 1277.3 367.1 1276.2 367.3 1275.2 368.5 1274.8 369.7L1272.7 387.5 1256.8 399.8 1262.2 359.5C1262.5 357.8 1261.2 356.3 1259.5 356.5 1259.5 356.5 1259 356.6 1259 356.6 1257.9 356.7 1256.9 358 1256.5 359.2L1250.2 405.2 1217.4 430.5 1211.9 389.4 1240.3 352.3C1241.3 351 1241.1 349.4 1239.8 348.4 1238.5 347.4 1236.9 347.7 1235.9 348.9L1210.8 381.1 1208.2 361.1 1218.7 347.2C1219.7 346 1219.5 344.3 1218.2 343.3S1215.3 342.6 1214.3 343.9L1207.1 353.3 1205.2 338.9C1205 337.2 1203.7 336.2 1202.1 336.5 1200.4 336.7 1199.4 337.9 1199.7 339.6L1201.6 354 1192.1 346.8C1191.5 346.3 1190.9 345.8 1189.8 346S1188.2 346.8 1187.7 347.4C1186.7 348.7 1187 350.3 1188.2 351.3L1202 361.9 1204.7 381.9 1172 356.8C1171.4 356.3 1170.7 355.9 1169.6 356 1169.1 356.1 1168 356.8 1167.6 357.4 1166.6 358.7 1166.8 360.3 1168.1 361.3L1205.2 389.7 1210.6 430.8 1172.4 415 1154.3 372.2C1153.6 371.1 1152.3 370.2 1151.2 370.3 1151.2 370.3 1150.6 370.4 1150.6 370.4 1149.1 371.2 1148.7 372.9 1148.9 374L1164.6 411.5 1146 403.8 1139.3 387.2C1138.6 386.1 1137.3 385.2 1136.2 385.3 1136.2 385.3 1135.7 385.4 1135.7 385.4 1134.1 386.1 1133.8 387.9 1133.9 389L1138.8 400.2 1125.1 394.7C1124.5 394.8 1123.9 394.3 1123.3 394.4 1122.2 394.5 1121.2 395.2 1120.8 396.4 1120.4 398.1 1120.7 399.8 1122.4 400.1L1136.1 405.7 1124.9 410.5C1123.3 411.3 1123 413 1123.1 414.2 1123.9 415.7 1125.6 416.1 1126.7 415.9L1143.4 409.2 1161.9 416.9 1124.4 432.6C1122.9 433.4 1122.5 435.1 1122.7 436.2 1124.5 437.7 1126.4 438.6 1128 437.8Z" fill="rgba(0, 164, 205, 0.21)"></path><path d="M1246.8 109.2L1285 111.9 1293.9 122.6 1281.1 121.7C1279.7 121.2 1278.8 122.4 1278.3 123.8 1278.4 124.8 1279.5 126.2 1280.5 126.1L1298.3 127.7 1307.4 138 1293.8 140.4 1279.1 130.1C1279.1 130.1 1278.7 130 1278.7 130 1277.7 129.7 1276.5 130.3 1275.8 131 1275.3 132.4 1275.4 133.4 1276.6 134.4L1287.3 141.7 1273.7 144 1242 122.8C1242 122.8 1241.7 122.2 1241.7 122.2 1240.8 121.8 1239.6 122.4 1238.8 123.2 1237.9 124.4 1238.3 126.1 1239.7 126.5L1267.2 145.3 1250.8 148.7 1238.4 140.3C1238.4 140.3 1238.4 140.3 1238 140.2 1237.1 139.8 1236 140 1235.2 140.7 1234.8 142.1 1234.7 143.6 1235.9 144.5L1244.2 150 1232.2 152.4C1230.7 152.4 1230.2 153.7 1230.3 154.8 1230.3 156.3 1231.5 157.2 1233.2 156.8L1245 154.8 1239.3 162.5C1238.8 163.9 1238.8 165.4 1240.2 165.9 1241.4 166.8 1242.4 166.6 1243.4 165.4L1251.7 153.1 1268 150.2 1249.1 178.1C1248.3 178.9 1248.8 180.6 1250 181.5 1250.9 181.8 1252.4 181.8 1253.3 180.6L1274.6 148.9 1288.1 146.5 1280.8 157.2C1279.9 158.4 1280.5 159.6 1281.7 160.5 1282.4 161.3 1284.1 160.9 1284.9 160.1L1294.7 145.3 1308.4 142.4 1303.8 155.6 1287.9 163.2C1286.7 163.8 1286.2 165.2 1286.8 166.4 1286.9 167.5 1288.7 168.1 1289.9 167.5L1301.6 161.9 1297 175 1262.3 191.4C1261 192 1260.6 193.3 1261.2 194.6 1261.7 195.8 1263.1 196.2 1264.3 195.7L1294.7 181.4 1289.4 196.8 1275.9 203.3C1274.7 203.9 1274.2 205.2 1274.8 206.4 1275.4 207.7 1276.7 208.1 1278 207.6L1287 203.6 1283 214.9C1282.5 216.3 1283.1 217.5 1284.5 218 1285.9 218.4 1287.1 217.9 1287.5 216.5L1291.5 205.2 1295.6 213.7C1296.2 215 1297.6 215.4 1298.8 214.8S1300.5 212.9 1299.9 211.7L1293.7 198.8 1299.3 183 1313.7 212.9C1314.3 214.2 1315.7 214.6 1316.9 214 1318.1 213.5 1318.6 212.1 1318 210.9L1301.5 176.6 1306.1 163.5 1311.7 175.1C1312.3 176.3 1313.6 176.8 1314.9 176.2 1316.1 175.6 1316.6 174.3 1316 173L1308.3 157.1 1312.7 144.5 1321.4 154.6 1320.2 172.5C1320.4 173.6 1321.4 174.9 1322.5 174.8 1324 174.8 1324.8 174.1 1325.2 172.7L1326.2 159.8 1334.8 170 1332.2 208.2C1332.1 209.7 1332.9 210.5 1334.2 211 1335.8 211 1336.7 209.8 1337 208.9L1339.6 175.2 1350.4 188.1 1349.4 202.5C1348.9 203.9 1350.1 204.8 1351.5 205.3 1352.5 205.2 1353.9 204.1 1353.9 202.6L1354.7 193.2 1362.8 202.1C1363.3 203.3 1364.9 203.4 1366.2 202.3 1367 201.6 1367 200.1 1366.3 199.3L1358.4 189.9 1368.2 190.8C1369.8 190.8 1370.7 189.6 1370.5 188.6 1371 187.2 1370.3 186.4 1369.4 186.1 1368.9 186 1368.9 186 1368.5 185.8L1354.1 184.8 1343.3 171.9 1376.5 174.4C1377.9 174.9 1378.8 173.7 1379.3 172.3 1379.1 171.2 1378.4 170.5 1377.5 170.2 1377 170 1377 170 1377 170L1338.5 166.7 1329.9 156.6 1342.8 157.5C1344.3 157.5 1345.1 156.8 1345.5 155.4 1345.4 154.4 1344.8 153.1 1343.9 152.8 1343.4 152.7 1343.4 152.7 1343 152.5L1325.1 151.3 1316.4 141.2 1329.5 138.6 1344.4 148.4C1345.6 149.3 1347.3 148.9 1348.1 148.2 1348.5 146.8 1348.6 145.3 1347.2 144.8L1336.5 137.5 1349.8 134.5 1381.8 156.4C1382.5 157.2 1384.2 156.7 1385 156 1385.5 154.6 1385.5 153.1 1384.3 152.2L1356.8 133.4 1373.1 130.5 1384.9 138.7C1386.1 139.6 1387.8 139.2 1388.3 137.8 1389.1 137.1 1389.1 135.6 1387.9 134.6L1379.6 129.2 1391.6 126.8C1392.7 126.7 1393.6 125.5 1393.7 123.9 1393.4 123.3 1392.6 122.6 1391.7 122.2 1391.7 122.2 1391.3 122.1 1390.8 121.9L1378.8 124.3 1384.2 116.1C1385 115.3 1384.6 113.6 1383.8 112.9 1383.4 112.7 1383.4 112.7 1383.4 112.7 1382 112.2 1380.8 112.8 1380.5 113.7L1372.2 125.6 1355.8 129 1374.7 101C1375.2 99.7 1375.1 98.6 1373.9 97.7 1373.9 97.7 1373.4 97.5 1373.4 97.5 1372.5 97.2 1371.4 97.4 1370.5 98.6L1348.8 130.1 1335.7 132.7 1343 122C1343.5 120.6 1343.5 119.1 1342.1 118.6 1342.3 118.2 1341.8 118 1341.8 118 1340.9 117.7 1339.7 118.3 1338.9 119L1329.1 133.9 1315.6 136.3 1320 123.6 1335.9 116C1337.2 115.4 1337.8 113.6 1337.2 112.3 1336.5 111.6 1335.1 111.1 1334 111.2L1322.3 117.3 1326.9 104.1 1361.1 87.6C1362.3 87 1362.8 85.7 1362.2 84.5 1361.6 83.2 1360.3 82.8 1359 83.4L1329.1 97.8 1334.6 81.9 1347.5 75.7C1348.7 75.2 1349.2 73.8 1348.6 72.6S1346.6 70.9 1345.4 71.5L1336.8 75.6 1340.8 64.3C1341.3 62.9 1340.7 61.7 1339.3 61.2 1338 60.7 1336.7 61.3 1336.3 62.7L1332.3 74 1327.7 65.3C1327.4 64.7 1327.1 64.1 1326.7 63.9 1326.2 63.7 1325.2 63.9 1324.6 64.2 1323.3 64.8 1322.9 66.1 1323.5 67.3L1330.1 80.3 1324.5 96.2 1309.7 66.1C1309.4 65.5 1309.1 64.9 1308.6 64.7 1308.2 64.5 1307.1 64.7 1306.5 65 1305.3 65.6 1304.8 66.9 1305.4 68.1L1322.3 102.5 1317.7 115.7 1312.3 103.6C1312 103 1311.1 102.7 1310.6 102.5 1310.2 102.4 1309.7 102.2 1309.1 102.5 1307.9 103.1 1307.3 104.9 1308 105.7L1315.5 122 1311.1 134.7 1302 124.4 1303.6 106.7C1303.5 105.6 1302.9 104.4 1302 104.1 1301.5 103.9 1301.5 103.9 1301.3 104.4 1300 103.9 1298.6 104.9 1298.6 106.4L1297.6 119.3 1288.5 109 1291.8 70.5C1291.7 69.5 1290.9 68.7 1290 68.4 1289.6 68.2 1289.6 68.2 1289.6 68.2 1288.1 68.2 1286.8 68.8 1286.8 70.3L1284.2 104 1273.5 91 1274.4 76.6C1274.5 75.1 1273.7 74.4 1272.8 74 1272.8 74 1272.3 73.9 1272.3 73.9 1270.8 73.9 1269.9 75.1 1269.6 76L1269.1 86 1261.2 76.6C1260.8 76.4 1260.3 76.3 1259.9 76.1 1259.4 76 1258.3 76.1 1257.7 76.4 1256.8 77.6 1256.3 79 1257.5 79.9L1265.4 89.3 1255.6 88.4C1254.1 88.3 1253.1 89.5 1252.8 90.4 1252.8 92 1254 92.9 1255.4 93.4L1269.8 94.3 1280.7 106.8 1247.5 104.3C1245.9 104.3 1244.6 105.3 1244.7 106.4 1244.7 107.9 1245.3 109.2 1246.8 109.2Z" fill="rgba(0, 164, 205, 0.21)"></path><path d="M501.7 385.7L486.9 406.5 477.6 407.8 482.7 400.8C483.4 400.2 483.1 399.2 482.4 398.5 481.8 398.2 480.6 398.3 480.4 399L473.2 408.5 464.2 410.1 467.6 401.5 478.5 396.7C478.5 396.7 478.8 396.5 478.8 396.5 479.3 396.1 479.4 395.2 479.2 394.5 478.6 393.8 478 393.5 477 393.9L469.1 397.4 472.5 388.8 495.7 378.2C495.7 378.2 496.1 378.3 496.1 378.3 496.6 377.9 496.7 377 496.5 376.3 496.2 375.3 495.1 375 494.3 375.6L474.1 384.7 477.9 374.2 486.9 370.1C486.9 370.1 486.9 370.1 487.2 369.9 487.7 369.5 488 368.8 487.8 368.1 487.2 367.4 486.4 366.8 485.4 367.2L479.4 370 482.3 362.3C482.8 361.5 482.2 360.7 481.6 360.4 480.7 359.9 479.8 360.2 479.4 361.3L476.4 368.8 474 362.8C473.4 362.1 472.6 361.6 471.8 362.2 470.9 362.5 470.6 363.2 470.9 364.1L475 373.2 471 383.5 461.7 363C461.6 362.3 460.5 361.9 459.5 362.3 459 362.7 458.5 363.5 458.9 364.5L469.5 387.6 466.1 396.1 462.6 388.3C462.2 387.3 461.3 387.2 460.4 387.6 459.7 387.8 459.3 388.9 459.5 389.6L464.5 400.3 461.4 409.1 455.5 401.9 456.7 390.2C456.8 389.3 456.2 388.5 455.3 388.4 454.6 388.2 453.6 389 453.5 389.9L452.7 398.4 446.8 391.2 449.6 365.8C449.7 364.9 449.1 364.2 448.2 364.1 447.3 364 446.6 364.6 446.5 365.5L444 387.7 437.1 379.3 438.1 369.4C438.2 368.5 437.6 367.8 436.7 367.7 435.8 367.6 435.1 368.2 435 369.1L434.1 375.6 429 369.4C428.4 368.6 427.5 368.6 426.8 369.2 426 369.8 425.9 370.7 426.5 371.4L431.6 377.6 425.3 377C424.4 376.9 423.6 377.5 423.5 378.4S424.1 380 425 380.1L434.4 381.1 441.5 389.8 419.4 387.5C418.5 387.4 417.8 388 417.7 388.9 417.6 389.8 418.2 390.6 419.1 390.7L444.3 393.2 450.2 400.4 441.6 399.6C440.7 399.5 440 400.1 439.9 401 439.8 401.9 440.4 402.6 441.3 402.7L453 403.9 458.7 410.9 449.9 412.2 440.1 405.3C439.5 405 438.3 405.1 438 405.8 437.5 406.6 437.6 407.3 438.3 408.1L445.2 413.1 436.5 414.5 415.7 399.6C414.8 399.1 414.1 399.3 413.4 399.9 412.9 400.7 413.2 401.7 413.6 402.2L431.8 415.4 420.7 417 412.9 411.4C412.3 410.7 411.3 411 410.6 411.6 410.3 412.3 410.4 413.4 411.3 414L416.3 417.7 408.5 419.2C407.6 419.1 407 419.9 407.1 421.1 407.3 421.8 408.1 422.3 408.8 422.1L416.9 420.9 413 426.2C412.4 427.1 412.8 428 413.4 428.3 414.1 429 414.8 428.9 415.2 428.5 415.5 428.3 415.5 428.3 415.7 428.1L421.3 420.2 432.4 418.6 419.4 436.6C418.7 437.3 419 438.2 419.6 438.9 420.3 439.2 421 439.1 421.5 438.7 421.7 438.5 421.7 438.5 421.7 438.5L437 417.7 445.8 416.4 440.8 423.4C440.2 424.2 440.4 424.9 441 425.7 441.7 426 442.6 426 443.1 425.6 443.3 425.4 443.3 425.4 443.6 425.2L450.5 415.5 459.2 414.1 456.1 422.4 445.4 427.5C444.4 427.8 444.1 428.9 444.2 429.6 444.9 430.4 445.7 430.9 446.4 430.3L454.3 426.8 451.4 435.4 427.8 445.9C427.1 446.1 426.8 447.2 426.9 447.9 427.5 448.6 428.4 449.2 429.3 448.8L449.6 439.7 445.6 450 436.8 453.9C435.8 454.2 435.5 455.3 436.1 456.1 436.2 456.8 437.1 457.3 438 457L444 454.2 441.2 461.8C440.9 462.5 441.2 463.4 442.1 464 442.6 464 443.2 463.9 443.7 463.5 443.7 463.5 444 463.3 444.2 463.1L447.1 455.4 449.9 461.4C450 462.1 451.1 462.4 451.8 462.2 452.1 462 452.1 462 452.1 462 452.8 461.4 452.9 460.5 452.5 460L448.6 451.2 452.4 440.7 461.7 461.2C462.3 462 463 462.2 463.9 461.9 463.9 461.9 464.2 461.7 464.2 461.7 464.7 461.3 465 460.6 464.6 459.7L454.2 436.3 457.4 428 460.9 435.9C461.5 436.6 462.4 437.2 463.1 436.6 463.3 436.8 463.5 436.6 463.5 436.6 464 436.2 464.1 435.3 464 434.6L458.9 423.8 462.3 415.3 468 422.3 466.8 434C466.7 434.9 467.5 435.9 468.4 436 469.1 435.8 469.8 435.2 470.1 434.5L470.8 425.7 476.7 432.9 474.1 458.1C474 459 474.6 459.8 475.5 459.9 476.4 460 477.1 459.4 477.2 458.5L479.5 436.4 486.6 445.1 485.6 454.5C485.5 455.4 486.1 456.2 487 456.3S488.7 455.8 488.7 454.9L489.4 448.6 494.4 454.8C495.1 455.5 496 455.6 496.7 455 497.4 454.4 497.5 453.5 496.9 452.7L491.9 446.5 498.4 447C498.9 447 499.3 447.1 499.6 446.9 499.8 446.7 500.1 446 500.2 445.6 500.3 444.7 499.6 443.9 498.7 443.8L489 443.1 482 434.4 504.3 436.4C504.7 436.5 505.2 436.5 505.4 436.3 505.7 436.1 506 435.5 506 435 506.1 434.1 505.5 433.4 504.6 433.3L479.1 430.9 473.3 423.7 482 424.8C482.5 424.9 483 424.5 483.2 424.3 483.5 424.1 483.7 423.9 483.8 423.4 483.9 422.5 483.1 421.5 482.4 421.7L470.4 420.2 464.8 413.3 473.8 411.7 483.3 418.8C484 419.1 484.9 419.2 485.4 418.8 485.6 418.6 485.6 418.6 485.4 418.4 486.2 417.8 486.1 416.6 485.2 416.1L478.2 411 487.2 409.5 508 424.8C508.6 425.1 509.3 424.9 509.8 424.5 510.1 424.3 510.1 424.3 510.1 424.3 510.6 423.4 510.7 422.5 509.8 422L491.6 408.8 502.7 407.2 510.6 412.7C511.4 413.3 512.1 413.1 512.6 412.7 512.6 412.7 512.9 412.5 512.9 412.5 513.4 411.7 513 410.7 512.6 410.2L507.1 406.5 515.2 405.3C515.4 405.1 515.7 404.9 515.9 404.6 516.2 404.4 516.5 403.8 516.5 403.3 516.2 402.4 515.6 401.7 514.6 402L506.5 403.2 510.5 398C511 397.1 510.7 396.2 510.3 395.7 509.4 395.1 508.5 395.5 507.7 396.1L502.1 403.9 491.3 405.8 504.2 387.8C504.8 386.9 504.7 385.8 504 385.5 503.2 384.9 502.3 384.8 501.7 385.7Z" fill="rgba(0, 164, 205, 0.21)"></path><path d="M732.9 512.7L729.2 498.1 739.1 500.5C740.1 500.9 741.5 500.2 742.1 498.8 742.1 497.5 741.5 496.1 740.4 495.8L727.6 492.3 724.2 478.8 750.3 485.9C752 486.3 753.4 485.6 753.4 484.3 754.1 482.9 753.4 481.5 751.7 481.2L722.8 473.3 719.5 461.1 740.2 440.4 751.1 443.2 758.8 474.1C759.2 474.4 759.5 474.8 759.8 475.1 760.2 475.4 761.2 475.8 761.9 475.8 763.6 475.4 764.3 474.1 763.6 472.7L756.5 444.5 769.7 448.3 773.8 462.6C773.4 462.9 773.8 463.3 774.1 463.6 774.8 464.3 775.8 464.6 776.8 464.3 777.9 463.9 778.5 462.6 778.5 461.2L775.2 449.7 791.8 454.1C792.8 454.5 794.2 453.8 794.9 452.4 794.9 451.1 794.2 449.7 793.2 449.4L777.6 445.3 784.7 438.2C785.7 437.1 785.4 435.4 784.7 434.8 783.7 433.7 782 433.4 781 434.4L771.8 443.6 758.6 439.8 777.6 420.8C778.6 419.8 778.6 418.5 777.6 417.4 776.6 416.4 775.2 416.4 774.2 417.4L753.1 438.4 741.6 435.7 734.2 407.2 742 399.4 771.5 407.2C772.9 407.9 774.6 406.9 774.6 405.6 775.3 404.2 774.3 403.2 772.9 402.5L746.1 395.3 756 385.5 769.2 389.3C770.2 389.6 771.9 388.6 772.3 387.6S771.6 384.8 770.2 384.2L760.1 381.4 772 369.6C773 368.6 772.6 366.9 771.6 365.8 771 365.2 769.3 364.8 768.2 365.8L756.3 377.7 753.3 367.2C753 366.1 751.9 365.1 750.2 365.4 749.2 365.8 748.2 367.5 748.5 368.5L752.2 381.7 742.4 391.6 735.3 364.7C734.6 363.4 733.6 362.4 731.9 362.7 730.9 363 729.9 364.7 730.2 365.7L738.3 395.6 730.5 403.4 702 395.9 699.3 384.3 720.4 363.3C721.4 362.3 721.4 361 720.4 360 719.4 358.9 717.7 358.6 716.7 359.6L697.6 378.6 693.9 365.3 703.1 356.2C704.1 355.2 704.1 353.8 703.1 352.8 702.1 351.8 700.7 351.8 699.7 352.8L692.6 359.9 688.5 344.3C688.2 343.2 686.5 342.2 685.5 342.6 684.1 343.2 683.1 344.3 683.8 345.6L687.8 361.9 676.6 358.8C675.3 358.8 673.9 359.5 673.5 360.5 673.2 361.5 673.5 362.6 674.2 363.2 674.2 363.2 674.6 363.6 675.2 363.6L689.5 367.7 693.2 380.9 665 373.7C663.7 373.1 662.3 373.7 662 375.4 662 376.1 662 376.8 662.7 377.5 663 377.8 663.3 378.2 663.7 378.5L694.5 386.4 697.2 397.2 676.5 417.9 664.3 414.5 656.5 385.6C656.2 383.9 654.8 383.2 653.5 383.9 652.1 383.9 651.4 385.3 651.8 386.9L658.8 413.1 645.3 409.7 641.9 396.8C641.6 395.8 640.2 395.1 638.9 395.1 637.5 395.7 636.5 396.8 637.1 398.1L639.5 408 624.9 404.2C623.6 403.5 622.5 404.5 621.9 405.9 621.9 406.6 622.2 407.6 622.9 408.3 622.9 408.3 623.2 408.6 623.5 408.9L639.1 413.1 630.6 421.5C630 422.2 629.6 423.9 630.6 424.9 631.7 425.9 633.4 425.6 634 424.9L644.6 414.4 658.1 417.8 637.4 438.5C636.4 439.5 636.7 441.2 637.7 442.2S640.1 443.3 641.1 442.2L663.9 419.6 675.1 422.6 682.5 451.2 673.7 460 643.8 451.8C642.5 451.8 641.1 452.4 640.4 453.8 640.4 454.5 640.8 455.5 641.4 456.2 641.8 456.5 642.1 456.8 642.8 456.8L669.6 464 659.7 473.9 646.1 470.4C645.1 470.1 643.8 470.8 643.1 472.1 643.1 473.5 643.8 474.8 644.8 475.2L655.6 477.9 644.7 488.8C644.1 489.4 644.1 491.5 644.7 492.2 645.8 493.2 647.8 493.2 648.5 492.5L659.4 481.7 661.7 492.2C662 492.5 662.4 492.9 662.7 493.2 663.4 493.9 664.4 494.2 665.1 494.2 666.5 493.6 667.1 492.2 667.1 490.8L663.4 477.6 673.3 467.8 680.4 494.6C680.7 496.3 682.1 497 683.1 496.6 684.8 496.3 685.5 495 685.5 493.6L677.4 463.7 686.2 454.9 714.7 462.4 717.8 473.6 695 496.3C693.9 497.4 693.9 498.7 695 499.7 696 500.8 697.3 500.8 698.4 499.7L719.1 479.1 722.5 492.7 711.9 503.2C711.2 503.8 711.2 505.9 712.2 506.9 713.3 507.9 715 507.6 715.6 506.9L724.1 498.4 728.2 514.1C728.5 514.4 728.5 514.4 728.9 514.7 729.5 515.4 730.6 515.8 731.2 515.8 732.6 515.1 733.3 513.7 732.9 512.7ZM690.3 450.8L687.3 449.8 686.6 447.1 680.5 424 679.9 421.3 681.9 419.3 698.6 402.7 700.6 400.6 703.3 401.3 726.4 407.5 729.1 408.2 730.1 411.2 735.8 434 736.8 437 734.8 439.1 718.1 455.7 716.1 457.7 713 456.7 690.3 450.8Z" fill="rgba(0, 164, 205, 0.21)"></path><path d="M1444.8 526.1L1419 532.5 1398.9 520.1 1419.6 508.8 1445 516.5C1445 516.5 1445.4 516.5 1445.4 516.5 1446 516.5 1446.7 515.9 1447 515.3 1447.3 514.3 1446.7 513.3 1445.8 513.3L1423.5 506.7 1433.6 501.2 1443.4 504C1443.4 504 1443.8 504 1443.8 504 1444.4 504 1445 503.4 1445.4 502.7 1445.7 501.8 1445.1 500.8 1444.2 500.8L1437.5 498.7 1444.9 494.7C1445.6 494.4 1445.9 493.2 1445.6 492.5 1445.3 491.5 1444.1 491.5 1443.4 491.8L1436 495.8 1438 489.1C1438.4 488.2 1437.8 487.2 1436.8 487.2 1435.9 486.8 1434.9 487.4 1434.9 488.4L1432.1 498.3 1422 503.4 1428.6 481.2C1429 480.2 1428.4 479.3 1427.4 479.2 1426.5 478.9 1425.5 479.5 1425.5 480.5L1417.8 505.9 1397 517.2 1397.6 493.2 1417 474.8C1417.6 474.2 1417.6 473.2 1417 472.6 1416.4 471.9 1415.4 471.9 1414.8 472.5L1397.7 488.7 1398 477.2 1405.2 470.4C1405.9 469.7 1405.9 468.8 1405.3 468.1 1404.7 467.5 1403.7 467.4 1403 468.1L1398.1 472.7 1398.3 463.8C1398.7 462.8 1397.7 462.2 1396.8 462.2 1395.8 462.1 1395.2 462.8 1395.2 463.7L1394.9 472 1390.3 467.1C1389.6 466.5 1388.7 466.4 1388 467.1S1387.3 468.6 1388 469.3L1394.8 476.5 1394.5 488 1378.3 471C1377.7 470.3 1376.7 470.3 1376.1 470.9 1375.4 471.5 1375.4 472.5 1376 473.2L1394.4 492.5 1393.8 516.2 1373.7 503.8 1367.6 478.7C1367.3 477.7 1366.3 477.4 1365.4 477.4 1364.4 477.7 1364 478.6 1364 479.6L1369.5 502.1 1359.8 496.1 1357.5 486.1C1357.2 485.2 1356.2 484.8 1355.2 484.8 1354.3 485.1 1353.9 486 1353.9 486.7L1355.7 493.4 1348.4 489.1C1347.8 488.8 1346.5 488.7 1346.2 489.7 1345.8 490.6 1345.8 491.6 1346.7 491.9L1354 496.3 1347.2 498C1346.3 498.3 1345.9 499.3 1345.9 499.9 1346.2 500.6 1346.8 501.2 1347.5 501.2 1347.5 501.2 1347.8 501.3 1347.8 501.3L1357.8 498.9 1367.5 505 1345 510.5C1344 510.8 1343.7 511.7 1343.7 512.4 1344 513 1344.6 513.7 1345.2 513.7 1345.2 513.7 1345.6 513.7 1345.6 513.7L1371.3 507.3 1391.5 519.6 1370.7 531 1345.3 523.3C1344.4 522.9 1343.4 523.6 1343.4 524.5 1343 525.5 1343.6 526.4 1344.6 526.5L1366.8 533.1 1356.8 538.6 1346.9 535.8C1346 535.5 1345 536.1 1345 537 1344.6 538 1345.2 539 1346.2 539L1352.9 541.1 1345.4 545C1344.8 545.4 1344.4 546.6 1344.7 547.3 1345 547.9 1345.7 548.3 1346.3 548.3 1346.6 548.3 1346.9 548.3 1347.3 548L1354.7 544 1352.6 550.7C1352.3 551.6 1352.9 552.6 1353.9 552.6 1353.9 552.6 1354.2 552.6 1354.2 552.6 1354.8 552.6 1355.5 552 1355.8 551.4L1358.6 541.5 1368.7 536 1362 558.3C1361.7 559.2 1362.3 560.2 1363.3 560.2 1363.3 560.2 1363.6 560.2 1363.6 560.2 1364.2 560.2 1364.9 559.6 1365.2 559L1372.9 533.6 1393.7 522.3 1393.1 545.9 1373.7 564.3C1373.1 564.9 1373.1 565.9 1373.7 566.6 1374.3 567.2 1375.3 567.2 1375.9 566.6L1393 550.7 1392.7 562.2 1385.5 569.1C1384.8 569.7 1384.8 570.7 1385.4 571.3S1387 572 1387.6 571.4L1392.6 566.7 1392.4 575C1392.3 576 1393 576.7 1393.9 576.7 1394.9 576.7 1395.5 576.1 1395.6 575.1L1395.8 566.8 1400.4 571.7C1400.7 572 1401.1 572.4 1401.7 572.4S1402.7 572.1 1403 571.8C1403.7 571.2 1403.7 570.2 1403.1 569.5L1396.2 562.3 1396.5 550.8 1412.7 567.9C1413 568.2 1413.3 568.5 1414 568.5 1414.3 568.5 1414.9 568.2 1415.3 567.9 1415.9 567.3 1415.9 566.3 1415.3 565.7L1396.9 546.3 1397.5 522.7 1417.7 535 1424.1 560.8C1424.4 561.4 1425 562.1 1425.6 562.1 1425.6 562.1 1426 562.1 1426 562.1 1426.9 561.8 1427.3 560.9 1427.3 560.2L1421.8 537.7 1431.6 543.7 1433.9 553.7C1434.2 554.3 1434.8 555 1435.4 555 1435.4 555 1435.7 555 1435.7 555 1436.7 554.7 1437.1 553.8 1437.1 553.1L1435.3 546.3 1442.6 550.7C1442.9 550.7 1443.2 551 1443.5 551 1444.2 551.1 1444.8 550.7 1445.2 550.1 1445.5 549.2 1445.5 548.2 1444.6 547.9L1437.3 543.5 1444.1 541.8C1445.1 541.5 1445.4 540.5 1445.4 539.9 1445.1 538.9 1444.2 538.6 1443.5 538.6L1433.5 540.9 1423.8 534.9 1446.3 529.3C1447.3 529 1447.6 528.1 1447.6 527.5 1446.7 526.5 1445.8 525.8 1444.8 526.1Z" fill="rgba(0, 164, 205, 0.21)"></path></g><defs><mask id="SvgjsMask1036"><rect width="1440" height="560" fill="#ffffff"></rect></mask><filter id="SvgjsFilter1037"><feGaussianBlur stdDeviation="1"></feGaussianBlur></filter></defs></svg>