<svg xmlns="http://www.w3.org/2000/svg" version="1.1" xmlns:xlink="http://www.w3.org/1999/xlink" xmlns:svgjs="http://svgjs.dev/svgjs" width="1440" height="560" preserveAspectRatio="none" viewBox="0 0 1440 560"><g mask="url(&quot;#SvgjsMask1030&quot;)" fill="none"><rect width="1440" height="560" x="0" y="0" fill="rgba(1, 85, 147, 1)"></rect><circle r="5.23" cx="941.13" cy="309.98" filter="url(#SvgjsFilter1031)" fill="rgba(0, 164, 205, 0.21)"></circle><circle r="8.1" cx="967.08" cy="193.65" filter="url(#SvgjsFilter1031)" fill="rgba(0, 164, 205, 0.21)"></circle><circle r="7.105" cx="262.845" cy="33.825" filter="url(#SvgjsFilter1031)" fill="rgba(0, 164, 205, 0.21)"></circle><circle r="7.77" cx="642.14" cy="414.90999999999997" filter="url(#SvgjsFilter1031)" fill="rgba(0, 164, 205, 0.21)"></circle><circle r="7.075" cx="436.28499999999997" cy="37.445" filter="url(#SvgjsFilter1031)" fill="rgba(0, 164, 205, 0.21)"></circle><circle r="7.36" cx="756.84" cy="567.1800000000001" filter="url(#SvgjsFilter1031)" fill="rgba(0, 164, 205, 0.21)"></circle><circle r="7.31" cx="1113.79" cy="151.77" filter="url(#SvgjsFilter1031)" fill="rgba(0, 164, 205, 0.21)"></circle><circle r="8.29" cx="846.04" cy="256.96" filter="url(#SvgjsFilter1031)" fill="rgba(0, 164, 205, 0.21)"></circle><circle r="6.675" cx="220.10500000000002" cy="505.96500000000003" filter="url(#SvgjsFilter1031)" fill="rgba(0, 164, 205, 0.21)"></circle><circle r="5.11" cx="483.38" cy="531.91" filter="url(#SvgjsFilter1031)" fill="rgba(0, 164, 205, 0.21)"></circle><circle r="6.73" cx="965.16" cy="211.60999999999999" filter="url(#SvgjsFilter1031)" fill="rgba(0, 164, 205, 0.21)"></circle><circle r="6.005" cx="35.335" cy="197.835" filter="url(#SvgjsFilter1031)" fill="rgba(0, 164, 205, 0.21)"></circle><circle r="7.83" cx="1208.48" cy="550.82" filter="url(#SvgjsFilter1031)" fill="rgba(0, 164, 205, 0.21)"></circle><circle r="7.545" cx="1090.315" cy="394.475" filter="url(#SvgjsFilter1031)" fill="rgba(0, 164, 205, 0.21)"></circle><circle r="7.105" cx="953.035" cy="548.465" filter="url(#SvgjsFilter1031)" fill="rgba(0, 164, 205, 0.21)"></circle><circle r="8.98" cx="688.22" cy="111.47" filter="url(#SvgjsFilter1031)" fill="rgba(0, 164, 205, 0.21)"></circle><circle r="6.13" cx="1328.22" cy="81.00999999999999" filter="url(#SvgjsFilter1031)" fill="rgba(0, 164, 205, 0.21)"></circle><circle r="8.51" cx="234.16" cy="363.01" filter="url(#SvgjsFilter1031)" fill="rgba(0, 164, 205, 0.21)"></circle><circle r="8.45" cx="949.87" cy="517.6800000000001" filter="url(#SvgjsFilter1031)" fill="rgba(0, 164, 205, 0.21)"></circle><circle r="9.25" cx="227.29" cy="137.22" filter="url(#SvgjsFilter1031)" fill="rgba(0, 164, 205, 0.21)"></circle><path d="M1216.6 434.6L1184.4 392.3 1191 345.5 1228.3 374.6 1234.4 427.4C1234.4 427.4 1234.7 428 1234.7 428 1235.1 429.2 1236.8 429.9 1238.2 430 1240.3 429.8 1241.6 427.9 1240.8 426.2L1235.3 380.1 1253.5 394.2 1256.1 414.5C1256.1 414.5 1256.4 415.1 1256.4 415.1 1256.8 416.2 1258.5 417 1259.9 417.1 1262 416.9 1263.3 415 1262.5 413.3L1261.1 399.4 1274.3 409.9C1275.4 410.8 1278 410.5 1278.9 409.4 1280.5 408.1 1279.5 405.7 1278.4 404.8L1265.2 394.2 1279.1 392.8C1281.1 392.6 1282.4 390.7 1281.7 389 1281.6 386.9 1279.7 385.6 1277.9 386.4L1257.6 389 1240.1 374.7 1286.2 369.2C1288.2 369.1 1289.5 367.2 1288.8 365.4 1288.7 363.4 1286.7 362.1 1285 362.8L1232.2 368.9 1194.9 339.8 1239.4 321.8 1288.6 342.7C1290.3 343.4 1292 342.7 1292.7 341 1293.5 339.4 1292.7 337.6 1291.1 336.9L1247.7 318.5 1269.1 309.8 1287.4 317.6C1289.1 318.3 1290.9 317.6 1291.6 316 1292.3 314.3 1291.6 312.5 1289.9 311.8L1277.4 306.5 1294 299.8C1296.1 299.7 1296.5 297.4 1295.8 295.6 1295.1 293.8 1293.4 293.1 1291.6 293.8L1276.2 300.1 1281.5 287.6C1282.2 285.9 1281.5 284.1 1279.8 283.4S1276.4 283.4 1275.7 285.1L1267.9 303.4 1246.5 312.1 1264.9 268.7C1265.7 267.1 1264.9 265.3 1263.3 264.6 1261.6 263.9 1259.8 264.6 1259.1 266.3L1238.2 315.4 1194.3 333.1 1200.9 286.3 1242.2 255.1C1243.7 253.8 1243.6 251.8 1242.9 250 1241.6 248.5 1239.6 248.6 1237.8 249.3L1200.8 277.4 1204.1 254.7 1220.5 242.5C1222.1 241.2 1222 239.2 1221.2 237.4 1219.9 235.8 1217.9 236 1216.7 236.4L1205.7 245 1207.9 228.3C1208 226.8 1207 224.5 1205 224.6 1203 224.7 1201.2 225.4 1201.4 227.5L1199.1 244.2 1190.6 233.2C1189.2 231.7 1187.2 231.8 1186 232.3 1185.1 233.3 1184.4 235 1184.9 236.2 1184.9 236.2 1185.1 236.8 1185.1 236.8L1197.3 253.3 1194 276 1166 239C1164.7 237.4 1162.6 237.6 1161.5 238 1160.5 239.1 1159.8 240.8 1160.3 242 1160.3 242 1160.5 242.6 1160.5 242.6L1192.7 284.8 1186.1 331.6 1148.8 302.5 1142.7 249.7C1142.6 247.7 1140.7 246.4 1138.9 247.1 1136.9 247.3 1135.6 249.2 1136.3 251L1141.8 297 1123.7 283 1121 262.6C1120.9 260.6 1119 259.3 1117.2 260 1115.2 260.2 1113.9 262.1 1114.6 263.9L1116.1 277.8 1102.8 267.2C1101.8 266.3 1099.1 266.6 1098.2 267.7 1097.3 268.8 1097.1 270.2 1097.6 271.4 1097.9 272 1098.1 272.6 1098.9 272.9L1112.2 283.5 1098.3 284.9C1096.2 285.1 1094.9 287 1095.7 288.8 1095.7 288.8 1095.9 289.3 1095.9 289.3 1096.4 290.5 1098 291.2 1099.5 291.4L1119.8 288.7 1137.9 302.8 1091.8 308.3C1089.8 308.4 1088.5 310.3 1089.2 312.1 1089.2 312.1 1089.4 312.7 1089.4 312.7 1089.9 313.8 1091.6 314.6 1093 314.7L1145.7 308.6 1183 337.7 1139.1 355.4 1090 334.5C1088.3 333.8 1086.5 334.5 1085.8 336.2 1085.1 337.9 1085.8 339.6 1087.5 340.4L1130.2 359 1108.9 367.6 1090.5 359.8C1088.9 359.1 1087.1 359.8 1086.4 361.5S1086.4 365 1088 365.7L1100.5 371 1085.1 377.2C1083.3 377.9 1082.6 379.6 1083.3 381.4 1084.1 383.2 1085.7 383.9 1087.5 383.1L1102.9 376.9 1097.6 389.4C1097.3 390.2 1096.9 391.1 1097.4 392.3S1098.7 393.8 1099.5 394.2C1101.2 394.9 1103 394.1 1103.7 392.5L1111.5 374.2 1132.9 365.5 1114.4 408.8C1114.1 409.7 1113.7 410.5 1114.2 411.7 1114.5 412.3 1115.5 413.2 1116.4 413.6 1118 414.3 1119.8 413.6 1120.5 411.9L1141.4 362.8 1185.3 345 1178.7 391.9 1136.5 424.1C1135.5 425.2 1134.8 426.8 1135.3 428 1135.3 428 1135.5 428.6 1135.5 428.6 1136.9 430.2 1138.9 430 1140.1 429.6L1177.1 401.5 1173.8 424.2 1157.3 436.4C1156.4 437.5 1155.7 439.1 1156.1 440.3 1156.1 440.3 1156.4 440.9 1156.4 440.9 1157.7 442.5 1159.7 442.3 1160.9 441.9L1171.9 433.3 1169.7 450C1170 450.6 1169.6 451.5 1169.8 452.1 1170.3 453.2 1171.4 454.2 1172.8 454.3 1174.8 454.2 1176.6 453.5 1176.5 451.4L1178.7 434.7 1187.3 445.7C1188.6 447.2 1190.6 447.1 1191.8 446.6 1193.4 445.3 1193.2 443.3 1192.8 442.1L1180.6 425.6 1183.8 402.9 1211.9 439.9C1213.2 441.5 1215.2 441.3 1216.4 440.9 1217.5 438.4 1217.9 436.1 1216.6 434.6Z" fill="rgba(0, 164, 205, 0.21)"></path><path d="M243.2 569.2L235.8 559 244.1 557.8C245 557.7 245.9 556.8 246 555.5 245.5 554.5 244.6 553.7 243.7 553.7L232.7 555.1 225.8 545.7 248.2 543C249.6 542.8 250.5 541.8 250.1 540.8 250.2 539.5 249.2 538.7 247.8 538.9L223.1 541.9 216.6 533.5 226.1 511.1 235.4 509.8 251.1 531.2C251.4 531.4 251.8 531.5 252.2 531.7 252.5 531.8 253.4 531.8 254 531.6 255.2 530.8 255.3 529.5 254.3 528.7L240 509.1 251.4 507.9 259 517.6C258.8 518 259.2 518.1 259.6 518.3 260.3 518.6 261.2 518.6 261.9 518 262.6 517.4 262.7 516.1 262.2 515.1L256 507.2 270.2 505.4C271.1 505.4 272 504.4 272.1 503.2 271.6 502.1 270.7 501.3 269.8 501.3L256.5 503.1 259.7 495.3C260.2 494.2 259.4 493 258.7 492.7 257.6 492.3 256.2 492.5 255.7 493.6L251.5 503.6 240.1 504.8 248.8 484.2C249.3 483.1 248.9 482 247.8 481.6 246.7 481.1 245.6 481.5 245.1 482.6L235.5 505.5 225.7 507 211 487.3 214.6 478.8 239.9 475.6C241.1 475.7 242.1 474.4 241.7 473.4 241.8 472.1 240.7 471.6 239.4 471.5L216.5 474.4 221 463.7 232.4 462.5C233.3 462.4 234.3 461.1 234.2 460.2S232.9 458.3 231.6 458.2L222.9 459.3 228.4 446.4C228.8 445.3 228 444.1 226.9 443.6 226.2 443.3 224.8 443.6 224.3 444.7L218.8 457.6 213.2 450.4C212.6 449.7 211.5 449.3 210.3 450.1 209.6 450.6 209.4 452.3 209.9 452.9L217 462 212.4 472.7 198.6 454.2C197.6 453.4 196.5 452.9 195.3 453.7 194.6 454.3 194.4 455.9 194.9 456.6L210.6 477.1 207 485.6 182.6 488.7 176.9 480.7 186.6 457.8C187.1 456.7 186.6 455.7 185.5 455.2 184.4 454.7 183 455 182.5 456.1L173.8 476.7 166.8 467.7 171 457.7C171.5 456.6 171 455.6 169.9 455.1 168.8 454.6 167.8 455.1 167.3 456.2L164 463.9 156 453.1C155.4 452.4 153.8 452.2 153.1 452.8 152.3 453.7 151.8 454.8 152.8 455.6L161 467 151.4 468.1C150.3 468.5 149.5 469.5 149.6 470.4 149.6 471.3 150.2 471.9 150.9 472.2 150.9 472.2 151.3 472.4 151.8 472.2L164.1 470.9 171.1 479.9 147.1 483.2C145.9 483.1 145 484.1 145.3 485.5 145.5 486 145.7 486.6 146.5 486.9 146.8 487 147.2 487.2 147.6 487.3L173.9 483.7 179.4 491.3 169.8 513.7 159.3 514.9 144.3 495.1C143.5 493.9 142.2 493.8 141.4 494.7 140.4 495.1 140.3 496.4 141.1 497.6L154.7 515.6 143.2 517.2 136.5 508.3C135.9 507.6 134.7 507.5 133.6 507.9 132.8 508.9 132.3 510 133.3 510.8L138.2 517.7 125.8 519.4C124.5 519.3 124 520.4 123.9 521.6 124.1 522.1 124.7 522.8 125.5 523.1 125.5 523.1 125.8 523.3 126.2 523.4L139.5 521.7 135.6 530.9C135.3 531.7 135.6 533.1 136.7 533.5 137.8 534 139 533.2 139.3 532.5L144.1 521.1 155.7 519.4 146.2 541.9C145.7 543 146.5 544.2 147.6 544.7S149.8 544.7 150.2 543.6L160.7 519 170.3 517.8 185 537.5 180.9 547.1 155.3 550.1C154.2 550.5 153.4 551.5 153.3 552.8 153.5 553.3 154.1 554 154.8 554.3 155.2 554.4 155.6 554.6 156.1 554.4L179 551.5 174.5 562.2 163 563.8C162.1 563.9 161.2 564.8 161.1 566.1 161.6 567.1 162.5 567.9 163.4 567.9L172.6 566.6 167.6 578.4C167.3 579.1 168 580.7 168.7 581 169.8 581.5 171.4 580.8 171.7 580.1L176.7 568.3 181.8 575.7C182.2 575.9 182.5 576 182.9 576.2 183.7 576.5 184.5 576.4 185.1 576.2 185.9 575.3 186 574 185.6 573L178.6 563.9 183.1 553.2 197 571.7C197.8 572.9 199 573 199.7 572.4 200.9 571.6 201 570.4 200.6 569.3L185 548.8 189 539.2 213.4 536.1 219.2 543.8 208.8 568.4C208.3 569.6 208.7 570.6 209.8 571.1 210.9 571.5 212 571.1 212.5 570L222 547.5 228.8 557 224 568.4C223.7 569.1 224.3 570.7 225.4 571.2 226.5 571.6 227.7 570.8 228.1 570.1L232 560.9 240 571.7C240.4 571.8 240.4 571.8 240.7 572 241.5 572.3 242.4 572.3 242.9 572 243.7 571.1 243.8 569.8 243.2 569.2ZM190.9 534.8L188.2 535 186.8 533.1 174.9 517.2 173.5 515.3 174.5 513.1 182.1 495 183.1 492.8 185.4 492.5 205.1 490 207.4 489.7 209.2 491.7 220.7 507.5 222.5 509.5 221.5 511.7 213.9 529.8 212.9 532 210.3 532.1 190.9 534.8Z" fill="rgba(0, 164, 205, 0.21)"></path><path d="M914 215.4L906.8 228.7 901.2 220.3C900.7 219.3 899.2 218.9 897.8 219.4 896.9 220.4 896.5 221.9 897 222.8L904.2 234.1 897.5 246.4 883.1 223.4C882.1 222 880.6 221.6 879.7 222.6 878.3 223.1 877.8 224.6 878.9 226L894.8 251.3 889 262.6 859.8 263.8 853.6 254.4 868.8 226.4C868.8 225.9 868.7 225.4 868.7 225 868.7 224.5 868.2 223.5 867.7 223.1 866.2 222.2 864.8 222.7 864.4 224.2L850.5 249.7 843.3 238 850 224.8C850.5 224.8 850.4 224.3 850.4 223.8 850.4 222.8 849.9 221.9 848.9 221.5 847.9 221 846.5 221.6 845.6 222.6L840.2 233.3 831 218.8C830.5 217.9 829 217.5 827.6 218 826.7 219 826.3 220.5 826.8 221.4L835.5 235 825.4 235.4C824 235.5 823.1 236.9 823.1 237.9 823.2 239.3 824.2 240.7 825.7 240.7L838.6 240.1 845.8 251.9 819 253C817.5 253 816.6 254 816.7 255.5 816.7 256.9 817.7 257.8 819.2 257.8L848.9 256.5 855.5 266.3 841.7 292.4 830.7 292.8 814.3 267.1C813.7 265.7 811.8 265.3 810.9 266.3 809.4 266.8 809.5 268.2 810 269.7L824.9 293.1 811 293.6 803.8 281.9C803.3 281 801.4 280.6 800.4 281.1S799.1 283.6 799.6 285L805.3 293.9 788.5 294.6C787 294.6 786.1 296.1 786.2 297.5 786.2 298.5 787.3 299.9 788.7 299.8L805.5 299.2 800.6 309C800.2 309.9 800.2 311.4 801.7 312.3 802.7 312.7 804.6 312.2 805 311.2L811.2 298.9 825.2 298.3 812.2 322.9C811.8 324.4 811.9 325.8 813.3 326.7 814.3 327.1 816.2 326.6 816.7 325.6L830.9 298.1 841.9 297.7 857.9 322.5 852 332.8 822.3 334C820.9 334.1 819.9 335.1 820 336.5 820.1 337.9 821.1 339.3 822.5 339.3L849.4 338.2 843.2 350.4 830.2 351C828.8 351 827.8 352 827.9 353.5 828 354.9 829 355.8 830.4 355.8L840.5 355.4 832.9 369.6C832.5 370.6 833 372.5 834 372.9 835.4 373.3 836.9 373.3 837.3 371.8L845.3 357.1 851.5 366.9C852.5 367.8 854 368.3 854.9 367.7 855.9 367.2 856.3 366.2 856.3 365.3 856.3 365.3 856.2 364.8 855.7 364.3L848 351.7 854.2 339.4 870.1 363.7C870.7 365.2 872.1 365.6 873.5 364.6 874 364.1 874.4 363.6 874.4 362.6 874.4 362.1 874.4 361.7 874.3 361.2L856.9 334.5 862.3 324.7 891.5 323.5 898.2 334.2 884.4 360.8C883.5 362.2 884.1 363.7 885.5 364.1 886.5 365 887.9 364.5 888.8 363L901.3 338.9 909 350.6 902.7 362.4C902.3 363.4 902.8 364.8 903.8 365.7 905.3 366.1 906.7 366.1 907.1 364.6L912.1 355.8 920.3 368.4C920.8 369.8 922.3 369.8 923.7 369.2 924.1 368.7 924.6 367.7 924.5 366.8 924.5 366.8 924.5 366.3 924.5 365.8L915.8 352.3 927.8 351.8C928.7 351.7 930.1 350.7 930.1 349.3 930 347.8 928.5 346.9 927.6 347L912.7 347.6 905 335.9 934.3 334.7C935.7 334.6 936.6 333.1 936.5 331.7S935.5 329.3 934 329.4L901.9 330.7 895.7 320.9 909.6 294.9 922 294.4 938.5 320.6C939.5 321.5 940.9 321.9 942.4 321.4 942.8 320.9 943.3 319.9 943.2 318.9 943.2 318.5 943.2 318 942.7 317.5L927.8 294.1 941.7 293.5 949.4 305.2C949.9 306.2 951.4 306.6 952.8 306.1 953.7 305.1 954.1 303.6 953.6 302.7L947.4 293.3 962.8 292.7C963.8 292.6 965.1 291.1 965.1 290.2 965 288.7 963.5 287.4 962.6 287.4L947.2 288 952.6 278.7C952.6 278.2 952.6 277.7 952.5 277.2 952.5 276.3 952 275.3 951.5 274.9 950 274.5 948.6 275 947.7 276L941.5 288.3 927.6 288.8 940.5 264.3C941.4 262.8 940.8 261.4 939.9 260.9 938.4 260 937 260.6 936.1 261.6L921.8 289.1 909.3 289.6 893.4 264.8 898.8 254.5 930.9 253.2C932.3 253.1 933.3 252.1 933.2 250.7 933.1 249.2 932.1 248.3 930.7 248.4L901.4 249.6 908.1 237.3 923 236.7C924 236.6 925.4 235.1 925.3 233.7 925.2 232.2 923.8 231.3 922.8 231.4L910.8 231.9 918.4 217.6C918.4 217.2 918.4 217.2 918.3 216.7 918.3 215.7 917.8 214.8 917.3 214.3 915.8 213.9 914.4 214.4 914 215.4ZM903.6 289.8L905.1 292.6 903.8 295.1 892.7 316.2 891.3 318.7 888.4 318.8 864.9 319.8 862.1 319.9 860.5 317.5 847.7 297.4 846.2 295.1 847.5 292.1 858.6 271.5 860 268.6 862.8 268.4 886.3 267.5 889.2 267.4 890.8 270.2 903.6 289.8Z" fill="rgba(0, 164, 205, 0.21)"></path><path d="M459.8 121.2L471.7 137.4 458.4 139.4C457 139.5 455.6 141 455.5 143 456.1 144.7 457.7 146 459.1 145.9L476.7 143.7 487.7 158.8 451.8 163C449.6 163.5 448.2 165 448.9 166.7 448.7 168.7 450.2 170 452.5 169.6L492.1 164.8 502.4 178.3 487.1 214.2 472.3 216.2 447.3 182C446.7 181.7 446.1 181.5 445.5 181.2 444.9 181 443.5 181 442.6 181.4 440.7 182.6 440.5 184.7 442.1 186L464.9 217.3 446.7 219.3 434.6 203.7C434.8 203.1 434.2 202.8 433.6 202.6 432.4 202.1 431 202.2 429.9 203.1 428.8 204 428.7 206 429.4 207.7L439.3 220.3 416.5 223.1C415.1 223.2 413.8 224.7 413.6 226.8 414.3 228.4 415.8 229.8 417.2 229.7L438.6 226.9 433.3 239.3C432.6 241.1 433.8 243 435 243.5 436.8 244.3 439 243.8 439.8 242.1L446.6 226.2 464.8 224.2 450.8 257.2C450 258.9 450.7 260.6 452.5 261.4 454.2 262.1 455.9 261.4 456.7 259.7L472.2 223.1 487.8 220.7 511.3 252.3 505.5 265.8 465.1 270.9C463.1 270.7 461.5 272.8 462.2 274.5 462 276.5 463.8 277.3 465.8 277.4L502.5 272.9 495.2 290 477 291.9C475.6 292 474 294.1 474.1 295.6S476.3 298.6 478.3 298.7L492.2 297 483.5 317.6C482.7 319.4 484 321.3 485.8 322.1 486.9 322.6 489.2 322.2 490 320.4L498.7 299.8 507.7 311.3C508.7 312.4 510.4 313.1 512.4 311.8 513.5 310.9 513.9 308.3 512.9 307.2L501.7 292.7 509 275.6 531.2 305.2C532.7 306.6 534.5 307.3 536.4 306 537.5 305.1 537.9 302.5 537 301.4L512 268.6 517.7 255 556.7 250 565.8 262.9 550.3 299.4C549.6 301.2 550.2 302.9 552 303.6 553.8 304.4 556 304 556.8 302.2L570.8 269.2 582 283.7 575.3 299.6C574.5 301.4 575.2 303.1 577 303.8 578.7 304.6 580.4 303.9 581.2 302.1L586.4 289.8 599.3 307C600.2 308.1 602.8 308.5 603.9 307.6 605.2 306.1 606 304.3 604.4 303L591.3 284.9 606.7 283.1C608.3 282.4 609.7 280.9 609.6 279.4 609.5 278 608.6 276.9 607.4 276.4 607.4 276.4 606.8 276.2 606 276.5L586.3 278.6 575.1 264.1 613.5 258.8C615.5 259 616.8 257.5 616.4 255.2 616.1 254.4 615.7 253.5 614.5 253 614 252.8 613.4 252.5 612.8 252.3L570.7 258 561.9 246 577.2 210 594 208.1 618 239.9C619.3 241.8 621.3 242 622.7 240.5 624.3 239.8 624.5 237.8 623.2 235.9L601.4 207.1 619.9 204.5 630.5 218.8C631.4 219.9 633.4 220 635.1 219.4 636.5 217.8 637.2 216.1 635.7 214.7L627.8 203.7 647.7 201.1C649.8 201.2 650.5 199.5 650.7 197.5 650.3 196.6 649.4 195.5 648.2 195 648.2 195 647.6 194.8 647.1 194.5L625.7 197.3 632 182.6C632.5 181.4 632 179.1 630.3 178.4 628.5 177.6 626.6 178.9 626.1 180L618.3 198.3 599.8 200.9 615.1 165C615.9 163.2 614.6 161.3 612.8 160.5S609.4 160.4 608.6 162.2L591.9 201.7 576.5 203.5 553 172 559.5 156.6 600.5 151.8C602.2 151.1 603.6 149.6 603.7 147.6 603.4 146.8 602.4 145.7 601.3 145.2 600.7 144.9 600.1 144.7 599.3 145L562.5 149.6 569.8 132.5 588.3 129.9C589.7 129.8 591 128.3 591.2 126.3 590.5 124.6 589 123.3 587.6 123.4L572.8 125.4 580.8 106.6C581.3 105.4 580.3 102.9 579.1 102.4 577.3 101.6 574.8 102.6 574.3 103.8L566.3 122.7 558.1 110.8C557.5 110.6 557 110.3 556.4 110.1 555.2 109.6 553.8 109.7 552.9 110 551.6 111.5 551.4 113.6 552.1 115.2L563.3 129.7 556.1 146.8 533.9 117.2C532.6 115.3 530.6 115.1 529.5 116.1 527.6 117.3 527.4 119.3 528.1 121L553.1 153.9 546.6 169.2 507.6 174.2 498.2 161.9 515 122.4C515.7 120.6 515 119 513.3 118.2 511.5 117.5 509.8 118.1 509.1 119.9L493.8 155.8 482.8 140.7 490.6 122.5C491.1 121.3 490.1 118.8 488.3 118 486.6 117.3 484.6 118.6 484.1 119.7L477.9 134.5 465 117.2C464.5 116.9 464.5 116.9 463.9 116.7 462.7 116.2 461.3 116.3 460.4 116.6 459.1 118.1 458.9 120.1 459.8 121.2ZM543.5 176.3L547.8 176 550 179 569.1 204.5 571.3 207.5 569.8 211.1 557.5 239.9 556 243.5 552.3 244 520.7 247.9 517 248.5 514.3 245.2 495.8 220 493 216.7 494.5 213.2 506.8 184.3 508.3 180.8 512.6 180.5 543.5 176.3Z" fill="rgba(0, 164, 205, 0.21)"></path><path d="M701 561.2L690.9 551.5 698.9 548.8C699.7 548.6 700.4 547.5 700.3 546.2 699.6 545.3 698.6 544.6 697.6 545.2L687.5 548.3 679.3 541.1 700.4 534.8C701.3 534.2 702 533.1 701.8 532.2 701.2 530.9 700.1 530.2 699.2 530.8L675.9 537.9 663.7 526.6 682.5 523 667 511.7 682.9 506.7 700.9 523C700.9 523.4 701.2 523.5 701.6 523.6 702.4 523.8 703.3 523.5 703.8 522.9 704.4 522.2 704.3 520.9 703.7 519.9L687.3 505.2 697.8 502.2 705.6 509.3C706 509.8 706.3 509.9 706.7 510 707.1 510.1 708 509.8 708.6 509.1 709.1 508.5 709 507.2 708.3 506.6L702.2 500.8 715.5 496.4C716.8 496.2 717 495.1 716.9 493.8 716.7 492.9 715.6 492.3 714.3 492.8L701.1 496.8 702.9 488.6C703.2 487.4 702.2 486.4 701.4 486.2 700.2 486 699.3 486.6 699 487.7L696.6 498.3 686.1 501.3 690.9 480.2C691.1 479 690.5 478.1 689.3 477.8 688.6 477.6 687.2 478.1 687 479.3L681.7 502.7 665.8 507.8 671.9 489.9 654.6 497.5 658.3 481.1 681.2 473.9C682.5 473.4 682.8 472.2 682.6 471.4 682.4 470.5 681.3 469.8 680 470L659.2 476.8 661.6 466.3 671.8 462.8C673.1 462.7 673.7 461.6 673.2 460.2 673 459.4 671.9 458.7 670.5 459.2L662.6 461.6 665.7 447.9C666 446.7 665.4 445.8 664.2 445.5S662.1 445.9 661.8 447L658.7 460.7 652.6 455.2C651.6 454.2 650.3 454.3 649.8 455 648.7 456 648.9 457.2 649.9 457.9L657.7 465.4 655.3 475.9 639.4 460.9C638.3 460.2 637.1 460.4 636.5 461 635.5 462 635.6 463.3 636.7 464L654.4 480.2 650.7 496.6 638.3 482.4 636.2 501.1 623.9 489.8 629.2 466.4C629.4 465.2 628.4 464.2 627.7 464 626.5 463.7 625.5 464.3 625.3 465.5L620.5 487 612.3 479.4 614.7 468.9C615 467.7 614.3 466.7 613.2 466.5 612.4 466.3 611 466.8 610.8 468L608.9 476.2 598.7 466.9C597.7 465.9 596.5 466 595.8 467.1 595.3 467.8 595 469 596.1 469.6L606.2 479.3 598.2 482C597.4 482.2 596.7 483.3 596.9 484.2 597.1 485 597.8 485.6 598.2 485.7 598.6 485.8 599 485.8 599.5 485.5L609.6 482.5 617.8 489.7 596.7 496C595.8 496.6 595.1 497.7 595.3 498.6 595.5 499.4 596.2 500 597 500.2 597.4 500.3 597.4 500.3 597.9 499.9L621.2 492.9 633.4 504.2 614.6 507.8 630.1 519 614.2 524.1 596.1 507.8C595.5 507.2 594.3 506.9 593.2 507.9 592.7 508.6 592.8 509.9 593.4 510.8L609.8 525.6 599.3 528.5 591.4 521.5C590.8 520.5 589.6 520.6 588.5 521.6 588 522.3 588.1 523.6 588.7 524.5L594.9 530 581.6 534.4C580.3 534.5 580 535.7 580.2 537 580.5 537.4 581.2 538 581.6 538.1 582 538.2 582.3 538.3 582.8 538L596 534 594.2 542.2C593.9 543.3 594.9 544.4 595.7 544.5L595.7 544.5C596.9 544.8 597.8 544.2 598.1 543L600.4 532.5 610.9 529.5 606.2 550.6C606 551.8 606.6 552.7 607.7 553S609.9 552.6 610.1 551.5L615.4 528 631.3 523 625.2 540.9 642.5 533.3 638.8 549.7 615.9 556.9C614.5 557.4 614.3 558.5 614.5 559.4 614.7 560.3 615.8 560.9 617.1 560.8L637.8 554.4 635.5 564.5 625.3 568C624 568.1 623.4 569.2 623.9 570.5 624.1 571.4 625.2 572.1 626.5 571.9L634.4 569.2 631.4 582.9C631.1 584 631.7 585 632.9 585.3S635 584.9 635.3 583.7L638.3 570.1 644.5 575.6C644.8 576 645.2 576.1 645.6 576.2 646.4 576.4 646.8 576.1 647.3 575.8 648.4 574.8 648.2 573.5 647.1 572.9L639.4 565.4 641.8 554.9 657.7 569.9C658 570 658.4 570.1 658.8 570.2 659.6 570.3 660.1 570 660.6 569.7 661.6 568.7 661.5 567.5 660.4 566.8L642.7 550.6 646.4 534.2 658.8 548.4 660.9 529.6 673.1 541 667.9 564.4C667.6 565.6 668.6 566.6 669.4 566.8 670.6 567.1 671.5 566.4 671.8 565.3L676.5 544.2 684.8 551.4 682.4 561.9C682.1 563.1 682.7 564 683.9 564.3S686 564 686.3 562.8L688.1 554.6 698.4 563.8C698.7 564.3 699.1 564.4 699.4 564.5 699.8 564.6 700.7 564.4 701.3 563.7 701.8 563 702.1 561.8 701 561.2ZM655.9 539.2L645.8 527.5 631.7 533.8 636.7 518.9 624.3 510 639.4 506.8 641.2 491.6 651.3 503.3 665.4 497 660.5 511.5 672.7 520.8 657.8 523.6 655.9 539.2Z" fill="rgba(0, 164, 205, 0.21)"></path><path d="M1409.8 503.8L1396.8 481.7 1399.4 472.8 1403.7 480.2C1404 481.1 1405 481.2 1405.9 480.9 1406.4 480.5 1406.8 479.4 1406.3 478.8L1400.6 468.5 1402.8 459.6 1409.2 466.1 1409.1 478.1C1409.1 478.1 1409.2 478.4 1409.2 478.4 1409.4 479 1410.2 479.5 1410.9 479.6 1411.8 479.4 1412.3 478.9 1412.4 477.9L1412.4 469.3 1418.8 475.8 1419 501.3C1419 501.3 1418.8 501.7 1418.8 501.7 1419 502.3 1419.8 502.7 1420.5 502.9 1421.5 502.9 1422.2 502.1 1422 501.1L1421.9 478.9 1430 486.7 1430 496.6C1430 496.6 1430 496.6 1430.1 496.9 1430.3 497.6 1430.8 498.1 1431.5 498.2 1432.4 498 1433.2 497.4 1433.3 496.4L1433.2 489.8 1439 495.5C1439.6 496.4 1440.5 496.1 1441 495.6 1441.9 495.1 1441.9 494.1 1441.1 493.3L1435.5 487.5 1441.9 487.8C1442.8 487.5 1443.7 487 1443.4 486.1 1443.5 485 1443 484.5 1442 484.4L1432.1 484.5 1424.3 476.6 1446.8 476.5C1447.5 476.7 1448.3 475.8 1448.3 474.8 1448.2 474.2 1447.6 473.3 1446.6 473.3L1421.1 473.5 1414.7 467 1423.3 467C1424.4 467 1424.8 466.2 1424.9 465.2 1425 464.5 1424.1 463.8 1423.4 463.6L1411.6 463.8 1404.8 457.4 1413.8 454.9 1424 460.8C1424.8 461.3 1425.7 461 1426.2 460.2 1426.7 459.7 1426.4 458.5 1425.6 458.1L1418.1 453.8 1427.1 451.4 1449.1 464.3C1449.9 464.7 1450.9 464.5 1451.3 463.7 1451.8 462.9 1451.5 462 1450.7 461.5L1431.4 450.2 1441.9 447.3 1450.5 452.3C1451.3 452.8 1452.3 452.5 1452.7 451.7 1453.2 450.9 1452.9 450 1452.1 449.6L1446.5 446.1 1454.3 444C1455.2 443.8 1455.6 443 1455.4 442 1455.1 441.1 1454.4 440.7 1453.4 440.9L1445.7 443 1448.9 437.5C1449.3 436.7 1449.1 435.8 1448.3 435.3S1446.6 435.1 1446.1 435.9L1441.4 444.2 1430.6 447.1 1441.6 427.9C1442.1 427.1 1441.8 426.2 1441 425.7 1440.2 425.3 1439.3 425.5 1438.9 426.3L1426.2 448.3 1417.3 450.7 1421.6 443.2C1422 442.4 1421.8 441.5 1421 441.1 1420.2 440.6 1419.3 440.9 1418.8 441.7L1413 451.9 1404.3 454.2 1406.6 445.6 1416.9 439.5C1417.5 439 1417.8 437.9 1417.3 437.4 1416.8 436.6 1416.1 436.4 1415.2 436.7L1407.7 441 1410 432.4 1432.1 419.5C1432.9 419 1433 418.2 1432.8 417.3 1432.2 416.5 1431.2 416.4 1430.6 416.6L1411.1 427.8 1414.2 417.1 1422.5 412.2C1423.4 411.9 1423.4 410.9 1423.2 410 1422.7 409.4 1421.6 409.1 1420.8 409.6L1415.3 412.8 1417.2 405C1417.6 404.2 1417.1 403.3 1416 403 1415.3 402.8 1414.4 403.4 1414.3 404.1L1412.1 412 1408.9 406.2C1408.4 405.4 1407.3 405.3 1406.8 405.8 1405.9 406 1405.7 406.7 1405.9 407.4 1406 407.7 1406 407.7 1406.1 408L1411 416.3 1407.9 427 1396.8 407.8C1396.5 406.9 1395.5 406.9 1394.6 407.1 1394 407.6 1393.9 408.3 1394.1 408.9 1394.1 409.2 1394.1 409.2 1394.1 409.2L1406.8 431.6 1404.5 440.2 1400.2 432.8C1399.6 431.9 1398.9 431.8 1398 432 1397.5 432.5 1397 433.3 1397.2 433.9 1397.3 434.2 1397.3 434.2 1397.3 434.5L1403.4 444.8 1401.1 453.4 1394.8 447.2 1394.6 435.3C1394.6 434.3 1393.8 433.5 1393 433.4 1392.1 433.6 1391.3 434.2 1391.5 435.1L1391.5 443.7 1384.9 437.6 1384.9 411.7C1385 411 1384.1 410.3 1383.4 410.1 1382.5 410.4 1381.7 410.9 1381.6 411.9L1381.7 434.1 1373.9 426.3 1373.9 416.7C1374 415.7 1373.1 414.9 1372.2 415.1 1371.5 415 1370.7 415.6 1370.6 416.6L1370.7 423.2 1364.9 417.5C1364.4 416.9 1363.4 416.9 1362.5 417.4 1362.3 417.8 1362.2 418.5 1362.3 419.1 1362.3 419.1 1362.4 419.4 1362.5 419.8L1368.4 425.5 1361.8 425.6C1361.1 425.4 1360.3 426.3 1360.2 427 1360.3 427.3 1360.3 427.3 1360.3 427.3 1360.5 428.3 1361.3 428.7 1361.9 428.5L1371.5 428.6 1379.6 436.3 1357.1 436.5C1356.2 436.7 1355.6 437.2 1355.6 438.2 1355.6 438.2 1355.7 438.5 1355.7 438.5 1355.8 439.1 1356.3 439.7 1357.3 439.7L1382.8 439.8 1389.2 446 1380.6 446C1379.6 446.3 1378.8 446.8 1379 447.8 1378.7 447.9 1378.8 448.2 1378.8 448.2 1379 448.8 1379.8 449.2 1380.5 449.4L1392.3 449.1 1398.8 455.7 1390.1 458 1379.9 452.2C1379.1 451.7 1377.9 452.1 1377.4 452.8 1377.3 453.5 1377.5 454.5 1378 455L1385.8 459.2 1376.8 461.6 1354.8 449C1354.1 448.6 1353.1 448.8 1352.7 449.6 1352.2 450.4 1352.5 451.3 1353.3 451.8L1372.5 462.8 1361.7 465.7 1353.4 461C1352.7 460.5 1351.7 460.8 1351.3 461.6S1351.1 463.3 1351.9 463.7L1357.4 466.9 1349.6 469C1348.7 469.2 1348.3 470 1348.5 470.9 1348.8 471.9 1349.5 472.3 1350.5 472.1L1358.2 470 1355.1 475.8C1354.9 476.2 1354.7 476.6 1354.8 476.9 1354.8 477.2 1355.3 477.7 1355.7 477.9 1356.5 478.4 1357.4 478.1 1357.9 477.4L1362.5 468.8 1373.3 465.9 1362.4 485.4C1362.1 485.8 1361.9 486.2 1362 486.5 1362.1 486.8 1362.6 487.4 1363 487.6 1363.7 488 1364.7 487.8 1365.1 487L1377.7 464.7 1386.6 462.3 1382 469.8C1381.8 470.2 1382 470.8 1382 471.2 1382.1 471.5 1382.2 471.8 1382.6 472 1383.4 472.4 1384.6 472.1 1384.8 471.4L1390.9 461.1 1399.6 458.8 1397.4 467.7 1387 473.5C1386.4 473.9 1386 474.7 1386.2 475.3 1386.2 475.7 1386.2 475.7 1386.6 475.6 1386.8 476.5 1387.9 476.9 1388.7 476.3L1396.2 472 1394 480.9 1371.5 493.6C1371 494 1370.9 494.7 1371 495.4 1371.1 495.7 1371.1 495.7 1371.1 495.7 1371.7 496.5 1372.5 497 1373.3 496.4L1392.8 485.2 1389.7 495.9 1381.5 500.8C1380.6 501.4 1380.5 502.1 1380.6 502.7 1380.6 502.7 1380.7 503 1380.7 503 1381.3 503.8 1382.3 503.9 1382.9 503.7L1388.6 500.2 1386.4 508.1C1386.5 508.4 1386.6 508.7 1386.7 509 1386.7 509.3 1387.2 509.9 1387.6 510.1 1388.6 510.2 1389.5 509.9 1389.6 508.9L1391.8 501 1395 506.8C1395.6 507.6 1396.6 507.7 1397.2 507.5 1398 506.9 1398.1 505.9 1397.8 505L1392.9 496.7 1395.7 486 1406.8 505.2C1407.4 506.1 1408.5 506.4 1409 506 1409.9 505.4 1410.3 504.6 1409.8 503.8Z" fill="rgba(0, 164, 205, 0.21)"></path><path d="M1379.6 171L1381.2 180.9 1374.9 178.7C1374.2 178.5 1373.3 178.8 1372.7 179.7 1372.6 180.6 1373 181.5 1373.7 181.8L1382 184.8 1383.5 194 1366.6 187.8C1365.5 187.5 1364.5 187.8 1364.4 188.7 1363.9 189.6 1364.3 190.5 1365.4 190.9L1384.1 197.7 1385.6 206 1370.7 218.6 1363.6 216.1 1360.2 195.2C1360 194.9 1359.8 194.7 1359.6 194.4 1359.4 194.2 1358.7 193.9 1358.3 193.9 1357.2 194 1356.6 194.9 1357 195.8L1360.1 214.9 1351.5 211.7 1349.6 202C1349.9 201.8 1349.7 201.5 1349.5 201.3 1349.1 200.8 1348.4 200.5 1347.7 200.7 1347 200.8 1346.5 201.7 1346.4 202.6L1348 210.4 1337.2 206.5C1336.5 206.3 1335.6 206.6 1335.1 207.5 1335 208.4 1335.4 209.3 1336 209.6L1346.1 213.2 1341 217.6C1340.3 218.2 1340.4 219.3 1340.8 219.8 1341.4 220.5 1342.5 220.9 1343.2 220.3L1349.9 214.7 1358.4 218 1344.7 229.5C1344 230.1 1343.9 231 1344.5 231.7 1345.1 232.5 1346 232.5 1346.8 231.9L1362 219.2 1369.5 221.7 1372.8 241 1367.1 245.8 1348 238.8C1347.1 238.3 1345.9 238.9 1345.8 239.8 1345.3 240.6 1345.9 241.4 1346.8 241.9L1364.2 248.2 1357.1 254.2 1348.5 250.9C1347.8 250.6 1346.7 251.2 1346.4 251.9S1346.7 253.7 1347.5 254.2L1354.1 256.6 1345.5 263.8C1344.8 264.5 1344.9 265.6 1345.5 266.3 1346 266.8 1347.1 267.2 1347.8 266.5L1356.4 259.3 1357.8 266.5C1358 267.2 1358.6 267.9 1359.7 267.8 1360.4 267.6 1361.2 266.6 1361 265.9L1359.3 256.9 1366.4 250.9 1369.6 269.1C1370 270.1 1370.6 270.8 1371.7 270.7 1372.4 270.5 1373.2 269.5 1373 268.8L1369.4 248.5 1375 243.7 1393.5 250.4 1394.6 258.2 1379.4 270.9C1378.7 271.5 1378.6 272.4 1379.2 273.2 1379.9 273.9 1381 274.2 1381.7 273.6L1395.4 262.1 1397.1 271.1 1390.5 276.7C1389.8 277.3 1389.7 278.2 1390.3 278.9 1390.9 279.7 1391.8 279.7 1392.6 279.1L1397.7 274.8 1399.5 285.4C1399.7 286.1 1400.7 286.9 1401.4 286.7 1402.4 286.3 1403.1 285.7 1402.8 284.8L1401 273.7 1408.3 276.4C1409.2 276.5 1410.1 276.1 1410.4 275.5 1410.7 274.8 1410.5 274.1 1410.1 273.6 1410.1 273.6 1409.9 273.4 1409.4 273.3L1400.2 269.8 1398.5 260.8 1416.8 267.2C1417.7 267.7 1418.6 267.3 1418.9 266.2 1419 265.8 1419 265.3 1418.6 264.8 1418.4 264.6 1418.2 264.3 1418 264.1L1397.9 257.1 1396.8 249.7 1411.7 237.2 1419.6 240.2 1423.1 259.8C1423.3 260.9 1424.1 261.5 1425.1 261.1 1426 261.2 1426.5 260.3 1426.4 259.2L1423.2 241.4 1432 244.4 1433.5 253.2C1433.6 253.9 1434.5 254.4 1435.4 254.5 1436.3 254.1 1437.1 253.5 1436.7 252.6L1435.7 245.9 1445.2 249.2C1446 249.8 1446.8 249.1 1447.3 248.3 1447.4 247.8 1447.2 247.1 1446.8 246.6 1446.8 246.6 1446.6 246.4 1446.4 246.2L1436.2 242.5 1442.4 237.4C1442.9 237 1443.2 235.9 1442.6 235.1 1441.9 234.4 1440.8 234.5 1440.3 234.9L1432.7 241.3 1423.9 238.3 1438.9 225.7C1439.6 225.1 1439.5 224 1438.8 223.2S1437.3 222.4 1436.6 223L1420.2 236.8 1412.9 234.1 1409.6 214.7 1416 209.4 1435.3 216.6C1436.2 216.6 1437.2 216.3 1437.7 215.4 1437.8 215 1437.6 214.3 1437.2 213.8 1437 213.5 1436.8 213.3 1436.3 213.2L1418.9 206.9 1426 201 1434.9 204C1435.5 204.3 1436.5 203.9 1437 203.1 1437.1 202.2 1436.7 201.2 1436 200.9L1429 198.5 1436.8 191.9C1437.3 191.5 1437.4 190.2 1437 189.7 1436.4 188.9 1435.1 188.8 1434.6 189.2L1426.7 195.8 1425.8 188.7C1425.6 188.4 1425.4 188.2 1425.1 187.9 1424.7 187.5 1424.1 187.2 1423.6 187.1 1422.7 187.5 1422.2 188.4 1422.1 189.3L1423.8 198.3 1416.7 204.2 1413.5 186C1413.4 184.9 1412.5 184.3 1411.8 184.5 1410.7 184.6 1410.1 185.5 1410.1 186.4L1413.7 206.7 1407.3 212 1388.9 205.4 1387.5 197.8 1403.9 184C1404.6 183.4 1404.7 182.5 1404.1 181.8 1403.5 181 1402.6 181 1401.9 181.6L1386.9 194.1 1385.4 184.9 1393 178.5C1393.5 178.1 1393.7 176.8 1393 176 1392.4 175.3 1391.3 175.4 1390.8 175.8L1384.6 181 1382.9 170.4C1382.7 170.1 1382.7 170.1 1382.4 169.9 1382 169.4 1381.4 169.1 1380.9 169.1 1380 169.4 1379.5 170.3 1379.6 171ZM1404.4 214.5L1406.4 215.4 1406.7 217.2 1409.4 232.9 1409.7 234.7 1408.2 236 1396.2 246 1394.7 247.3 1392.9 246.7 1378 241.3 1376.2 240.6 1375.7 238.6 1373.2 223.1 1372.7 221 1374.2 219.8 1386.2 209.7 1387.7 208.5 1389.6 209.3 1404.4 214.5Z" fill="rgba(0, 164, 205, 0.21)"></path><path d="M136.8 62.4L162.3 69.4 166.1 75.6 157.9 89.8 150.4 89.9 131.8 71C131.5 70.8 131.5 70.8 131.2 70.7 130.7 70.3 130 70.3 129.2 71 128.7 71.8 128.7 72.5 129.4 73.3L145.7 89.7 134.2 89.8 126.9 82.6C126.9 82.6 126.7 82.4 126.7 82.4 126.1 82.1 125.4 82.1 124.6 82.7 124 83.1 124.1 84.3 124.8 85L129.4 89.9 120.9 89.8C120.2 89.8 119.4 90.5 119.2 91.4S120.1 93.1 121.1 93.3L129.3 93.2 124.7 97.9C124 98.6 124 99.8 124.7 100.5 125.3 100.8 126.3 101 127 100.4L134.2 93.1 145.9 93.2 129.5 109.6C128.7 110.2 128.8 111.4 129.2 112 130 112.5 131 112.7 131.8 112L150.4 93.2 158.1 93.2 166 107 162.2 113.7 136.7 120.7C135.8 121 135.3 121.8 135.6 122.7S136.6 124 137.5 123.8L160 117.6 154 127.8 144.4 130.4C143.5 130.6 143.1 131.5 143.1 132.6S144.2 134 145.1 133.7L151.8 131.7 147.5 139.2C147 140 147.5 141 148.3 141.5 149.2 142 150 141.8 150.5 140.9L154.8 133.5 156.6 140C156.7 141.2 157.5 141.6 158.5 141.1 159.4 140.9 159.9 140.1 159.6 139.2L157.1 129.6 163 119.3 168.8 141.9C169 142.8 170.1 143.4 171 143.2S172.4 142.1 172.1 141.2L165.2 115.4 169.1 108.8 185.3 108.9 188.9 115.4 181.9 141C181.7 142 182.4 142.7 183.2 143.2 184.2 143.4 185 142.7 185.4 141.9L191.4 119.5 197.1 129.4 194.3 139.3C194.1 140.3 194.8 141 195.6 141.5 196.4 141.5 197.4 141 197.6 140L199.4 133.7 203.7 141C204.1 141.6 205.1 141.8 206 141.6 206.7 140.9 206.9 139.9 206.5 139.3L202.2 132 209 133.7C209.7 133.8 210.8 133.2 210.8 132.5 211.3 131.7 210.9 131.1 210.1 130.6 210.1 130.6 209.8 130.5 209.8 130.5L199.9 127.7 194.2 117.8 216.6 123.7C217.6 123.9 218.5 123.7 218.7 122.7 218.9 121.7 218.5 121.1 218 120.8 217.7 120.6 217.7 120.6 217.7 120.6L191.7 113.7 188.1 107.2 196.3 93.1 203.6 93.2 222.7 112C223 112.6 224.2 112.5 224.8 112.2 225.6 111.5 225.5 110.3 224.8 109.6L208.5 93.1 219.9 93.1 227.2 100.3C227.9 101 228.9 101.2 229.4 100.4 230.1 99.7 230.1 98.6 229.7 98L224.6 93.2 233.1 93.3C234 93.1 234.7 92.4 234.9 91.4 234.8 91 234.4 90.4 233.9 90.1 233.6 89.9 233.6 89.9 233.2 90L224.7 89.9 229.4 84.9C230.2 84.2 230 83.4 229.6 82.8 229.3 82.6 229.3 82.6 229 82.4 228.5 82.1 227.8 82.1 227.2 82.5L220 89.8 208.5 89.8 225 73.5C225.5 72.6 225.7 71.6 224.8 71.2 224.7 70.7 224.7 70.7 224.4 70.6 223.9 70.2 223 70.5 222.4 70.9L203.6 89.9 196.3 89.8 188.1 75.8 191.8 69.4 217.6 62.5C218.5 62.3 219.1 61.2 218.9 60.3S217.5 58.8 216.7 59L194.2 65.3 200 55.3 209.8 52.5C210.6 52.2 211.1 51.4 210.9 50.5 210.6 49.7 209.8 49.2 208.9 49.4L202.4 51.2 206.7 43.7C207 43.1 207 42 206.1 41.5 205.3 41 204 41.4 203.7 41.9L199.3 49.4 197.6 42.8C197.5 42.4 197.3 42 197.1 41.8 196.5 41.5 196.1 41.6 195.6 41.7 194.8 42 194.3 42.8 194.5 43.7L196.9 53.6 191.2 63.5 185.4 41C185.2 40.5 185 40.4 184.4 40 184.1 39.9 183.9 39.7 183.4 39.8 182.6 40.1 181.9 41.2 182.1 42.1L188.8 67.7 185.1 74.1 169.2 74.1 165.1 67.7 172.3 41.9C172.3 41.2 172.1 40.3 171.5 40 171.2 39.8 171.2 39.8 171.1 40.1 170.2 39.6 169.2 40.1 169 41.1L163.1 63.6 157.1 53.4 159.8 43.6C159.9 42.9 159.5 42.3 158.9 41.9 158.9 41.9 158.6 41.8 158.6 41.8 157.8 41.3 156.8 41.8 156.6 42.8L154.9 49.6 150.6 42.3C150.5 41.9 150.2 41.7 149.9 41.5 149.4 41.2 148.6 41.2 148.5 41.5 147.5 42 147.3 43 147.5 43.8L151.8 51.1 145.4 49.3C144.4 49.1 143.4 49.6 143.2 50.6 143.2 51.3 143.7 52.3 144.4 52.4L154.3 55.1 160 65.1 137.5 59.1C136.5 58.9 135.8 59.6 135.3 60.4 135.3 61.2 135.8 62.2 136.8 62.4ZM161.9 89.9L168.2 79.1 169.1 77.4 171 77.4 183.2 77.4 185.3 77.5 186.2 79.1 192.3 89.7 193.2 91.3 192.3 93 186 103.8 185.1 105.5 183.2 105.5 171 105.5 169.1 105.5 168 103.7 161.9 93.2 160.9 91.5 161.9 89.9Z" fill="rgba(0, 164, 205, 0.21)"></path><path d="M871.4 547.5L852.3 529.3 852 522 865.9 513.4 872.5 516.9 879.9 542.4C880.1 542.6 880.1 542.6 880.2 542.9 880.6 543.4 881.2 543.8 882.2 543.6 883 543.1 883.4 542.5 883.1 541.5L876.6 519.2 886.7 524.7 889.7 534.5C889.7 534.5 889.9 534.7 889.9 534.7 890.2 535.3 890.8 535.7 891.8 535.4 892.5 535.4 893 534.3 892.8 533.3L891 526.9 898.4 531C899 531.3 900 531.1 900.7 530.3S900.7 528.5 899.9 527.8L892.7 524 898.9 522C899.9 521.8 900.4 520.7 900.2 519.7 899.9 519.2 899.1 518.6 898.1 518.8L888.3 521.8 878 516.1 900.3 509.5C901.3 509.3 901.8 508.3 901.7 507.5 901.2 506.7 900.4 506.1 899.4 506.3L874.1 514 867.3 510.3 866.9 494.4 873.5 490.3 899.3 496.3C900.2 496.5 901 496 901.2 495.1S900.9 493.4 900 493.2L877.3 488 887.4 481.8 897.1 484.1C897.9 484.3 898.8 483.8 899.2 482.8S899 481.1 898.1 480.9L891.2 479.4 898.6 474.9C899.4 474.4 899.4 473.3 898.9 472.5 898.4 471.6 897.5 471.4 896.7 471.9L889.4 476.4 890.9 469.8C891.4 468.8 890.9 468 889.8 467.9 888.9 467.7 888.1 468.2 887.9 469.1L885.5 478.8 875.5 485 881.1 462.4C881.3 461.5 880.6 460.4 879.7 460.2S878 460.5 877.8 461.4L871.6 487.3 865.1 491.4 850.9 483.6 850.8 476.1 869.1 457C869.8 456.2 869.5 455.2 869 454.4 868.3 453.7 867.3 454 866.5 454.5L850.6 471.4 850.3 459.9 857.4 452.5C858 451.8 857.8 450.8 857.3 449.9 856.7 449.6 855.5 449.5 854.9 450.3L850.3 455 850 446.6C849.9 445.9 849.1 445.2 848.2 445 847.3 445.2 846.6 446 846.7 446.7L847 455.2 841.8 450.4C841.2 450.1 840.1 450 839.7 450.6 838.9 451.1 838.9 451.8 839.4 452.7 839.4 452.7 839.6 452.9 839.6 452.9L847 460 847.3 471.5 830.4 455.6C829.6 455 828.7 454.8 828.1 455.5 827.4 456.3 827.5 457 827.8 457.6 828 457.8 828 457.8 828 457.8L847.5 476.2 847.6 483.7 833.7 492.2 827.4 488.6 819.5 463C819.5 462.3 818.4 461.8 817.7 461.9 816.7 462.1 816.2 463.2 816.5 464.2L823 486.4 812.9 481 809.9 471.2C809.7 470.2 808.9 469.6 808.1 470.1 807.1 470.3 806.6 471.3 806.7 472.1L808.8 478.6 801.4 474.5C800.5 474.3 799.5 474.5 798.9 475.3 798.8 475.8 798.9 476.5 799.2 477 799.4 477.3 799.4 477.3 799.8 477.4L807.2 481.5 800.6 483.6C799.6 483.9 799.4 484.8 799.5 485.5 799.7 485.7 799.7 485.7 799.8 486 800.2 486.6 800.8 486.9 801.5 486.9L811.3 483.9 821.4 489.3 799.1 495.8C798.3 496.3 797.6 497.1 798.1 497.9 798 498.4 798 498.4 798.2 498.7 798.5 499.2 799.4 499.4 800.1 499.3L825.7 491.5 832.1 495.1 832.6 511.3 826.4 515.1 800.4 508.9C799.5 508.7 798.4 509.4 798.2 510.3S798.7 512.3 799.6 512.5L822.3 517.7 812.5 523.7 802.5 521.5C801.6 521.3 800.8 521.8 800.6 522.7 800.4 523.6 800.9 524.4 801.8 524.6L808.4 526.2 801 530.7C800.5 531.1 800 532.1 800.5 532.9 801 533.7 802.3 534.1 802.9 533.7L810.2 529.2 808.6 535.8C808.5 536.2 808.4 536.7 808.6 537 808.9 537.5 809.4 537.6 809.8 537.7 810.7 537.9 811.5 537.4 811.7 536.5L814.3 526.7 824.1 520.7 818.5 543.3C818.4 543.7 818.6 544 818.9 544.5 819.1 544.8 819.2 545.1 819.7 545.2 820.5 545.4 821.6 544.7 821.9 543.8L828.2 518.1 834.5 514.3 848.5 521.8 849 529.4 830.5 548.7C830.1 549.3 829.9 550.2 830.2 550.7 830.4 551 830.4 551 830.7 550.8 831.2 551.6 832.3 551.7 833 550.9L848.9 534 849.3 545.7 842.2 553.1C841.8 553.7 841.9 554.4 842.2 555 842.2 555 842.4 555.3 842.4 555.3 842.9 556.1 844 556.1 844.7 555.3L849.4 550.2 849.7 558.6C849.6 559.1 849.8 559.4 850 559.6 850.3 560.2 850.9 560.6 851.2 560.4 852.3 560.4 853 559.7 853.2 558.8L852.9 550.3 857.6 554.9C858.4 555.6 859.5 555.6 860.2 554.9 860.5 554.2 860.6 553.1 860 552.7L852.6 545.6 852.3 534.1 869.2 550C870 550.7 871 550.5 871.8 550 872.2 549.3 872.2 548.2 871.4 547.5ZM862.4 511.4L851.8 518 850.1 519 848.5 518.1 837.8 512.3 835.9 511.2 835.9 509.3 835.6 497.1 835.6 495.2 837.2 494.2 847.8 487.7 849.5 486.7 851.1 487.6 861.8 493.4 863.5 494.2 863.7 496.4 864 508.5 864 510.4 862.4 511.4Z" fill="rgba(0, 164, 205, 0.21)"></path><path d="M391.4 467.3L412.5 443.4 424.2 443 417 451C416 451.7 416.3 452.9 417 453.9 417.8 454.3 419.2 454.3 419.7 453.6L429.7 442.7 441.2 441.9 435.9 452 421.6 456.6C421.6 456.6 421.3 456.8 421.3 456.8 420.6 457.2 420.4 458.3 420.5 459.2 421.2 460.2 421.9 460.7 423.2 460.4L433.4 457 428.1 467.2 398 477.4C398 477.4 397.4 477.2 397.4 477.2 396.7 477.7 396.5 478.8 396.6 479.7 396.9 480.9 398.3 481.5 399.3 480.8L425.6 472.1 419.5 484.7 407.7 488.6C407.7 488.6 407.7 488.6 407.4 488.9 406.7 489.3 406.3 490.1 406.4 491 407 492 408 492.7 409.3 492.4L417 489.7 412.5 498.9C411.7 499.9 412.4 500.9 413.2 501.3 414.2 502.1 415.4 501.8 416 500.5L420.7 491.6 422.8 499.3C423.5 500.3 424.5 501.1 425.5 500.4 426.7 500.1 427.2 499.3 426.9 498.1L423 486.3 429.3 474.1 438.1 500.8C438.3 501.6 439.6 502.2 440.8 501.9 441.5 501.4 442.3 500.5 441.9 499.2L431.7 469.1 437 458.9 440.4 469.2C440.7 470.4 441.8 470.6 443.1 470.3 443.9 470.2 444.5 468.9 444.4 468L439.5 453.9 444.6 443.4 451 453.2 448 467.6C447.7 468.7 448.4 469.7 449.5 469.9 450.3 470.3 451.6 469.5 451.8 468.4L454 457.8 460.4 467.5 453.6 498.8C453.4 499.9 454 500.9 455.1 501.1 456.2 501.3 457.2 500.7 457.5 499.6L463.4 472.2 470.9 483.6 468.4 495.8C468.1 496.9 468.8 497.9 469.9 498.1 471 498.4 472 497.7 472.2 496.6L474.2 488.6 479.7 497C480.3 498 481.4 498.2 482.4 497.6 483.4 496.9 483.7 495.8 483 494.8L477.5 486.4 485.3 488C486.4 488.3 487.4 487.6 487.6 486.5S487.2 484.4 486.1 484.2L474.5 481.7 466.8 470 493.9 475.7C495 475.9 496 475.3 496.3 474.2 496.5 473 495.8 472 494.7 471.8L463.7 465.3 457.4 455.6 467.9 457.8C469 458.1 470 457.4 470.2 456.3 470.5 455.2 469.8 454.2 468.7 454L454.3 451 448.2 441.6 459.3 441 470.5 450.9C471.3 451.3 472.7 451.3 473.2 450.6 473.9 449.6 473.8 448.7 473.2 447.7L465.1 440.5 476.2 439.9 500.1 461.1C501.1 461.9 502 461.8 503 461.1 503.8 460.1 503.5 458.9 503.1 458.2L482.1 439.4 496.1 438.9 505.1 446.8C505.8 447.8 507 447.5 508 446.8 508.5 446.1 508.5 444.6 507.5 443.8L501.7 438.6 511.7 437.8C512.8 438 513.5 437 513.6 435.6 513.5 434.7 512.5 433.9 511.6 434L501.4 434.5 507 428.4C507.7 427.4 507.4 426.2 506.6 425.8 506 424.7 505.1 424.9 504.4 425.3 504.1 425.5 504.1 425.5 503.8 425.7L495.8 434.8 481.8 435.3 500.3 414.6C501.3 413.9 501 412.7 500.3 411.7 499.6 411.3 498.7 411.4 498 411.8 497.7 412 497.7 412 497.7 412L475.9 435.8 464.8 436.4 472 428.4C472.8 427.4 472.7 426.5 472 425.5 471.3 425 470.2 424.8 469.5 425.2 469.1 425.5 469.1 425.5 468.8 425.7L459 436.9 447.9 437.5 452.8 427.5 466.8 422.7C468.1 422.3 468.6 421 468.5 420.1 467.9 419.1 466.9 418.3 465.9 419L455.6 422.3 460.4 412.1 491.1 402C492 401.9 492.5 400.6 492.4 399.7 491.8 398.7 490.8 397.9 489.6 398.2L463.2 406.9 469.5 394.6 481 390.9C482.2 390.6 482.8 389.3 482.1 388.3 482 387.4 481 386.6 479.8 386.9L472 389.6 476.5 380.5C477 379.7 476.6 378.5 475.6 377.7 475.1 377.6 474.2 377.7 473.5 378.1 473.5 378.1 473.2 378.3 472.9 378.6L468.3 387.7 465.6 379.9C465.5 379 464.2 378.5 463.3 378.6 463 378.8 463 378.8 463 378.8 462 379.5 461.7 380.6 462.2 381.2L465.9 392.7 459.8 405.3 450.9 378.6C450.2 377.6 449.5 377.1 448.2 377.5 448.2 377.5 447.9 377.7 447.9 377.7 447.2 378.1 446.8 378.9 447.1 380.1L457 410.5 452 420.4 448.6 410.2C448 409.2 447 408.4 446 409.1 445.8 408.7 445.4 409 445.4 409 444.8 409.4 444.5 410.5 444.6 411.4L449.5 425.4 444.2 435.6 438.1 426.2 441.1 411.8C441.3 410.7 440.4 409.4 439.3 409.1 438.4 409.2 437.4 409.9 437 410.7L435 421.5 428.7 411.8 435.1 380.8C435.3 379.7 434.7 378.7 433.6 378.5 432.5 378.2 431.5 378.9 431.2 380L425.6 407.1 417.9 395.4 420.3 383.8C420.6 382.7 419.9 381.7 418.8 381.4S416.7 381.9 416.5 383L414.8 390.7 409.4 382.4C408.7 381.4 407.6 381.1 406.6 381.8 405.6 382.4 405.4 383.6 406 384.6L411.5 392.9 403.4 391.5C402.9 391.4 402.3 391.3 402 391.5 401.6 391.7 401.2 392.5 401.1 393.1 400.8 394.2 401.5 395.2 402.6 395.4L414.6 397.6 422.2 409.3 394.8 403.9C394.2 403.8 393.7 403.7 393.3 403.9 393 404.1 392.5 404.9 392.4 405.4 392.2 406.5 392.9 407.5 394 407.8L425.3 414 431.7 423.7 420.9 421.2C420.4 421.1 419.7 421.5 419.4 421.7 419 421.9 418.7 422.2 418.6 422.7 418.4 423.8 419.2 425.2 420.1 425.1L434.7 428.4 440.9 437.8 429.4 438.6 418.5 428.5C417.8 428 416.7 427.8 416 428.2 415.7 428.5 415.7 428.5 415.9 428.8 414.9 429.5 414.9 430.9 415.8 431.7L423.9 438.8 412.5 439.6 388.7 417.9C387.9 417.5 387 417.6 386.3 418 386 418.2 386 418.2 386 418.2 385.2 419.2 385 420.3 386 421.1L406.9 439.9 392.9 440.5 383.9 432.5C382.9 431.7 382 431.9 381.3 432.3 381.3 432.3 381 432.5 381 432.5 380.2 433.5 380.5 434.7 381 435.4L387.4 440.8 377.2 441.2C376.8 441.5 376.5 441.7 376.2 441.9 375.8 442.1 375.4 442.9 375.3 443.4 375.6 444.7 376.2 445.7 377.5 445.4L387.7 444.9 382.1 450.9C381.3 451.9 381.6 453.1 382.1 453.8 383 454.6 384.3 454.3 385.3 453.6L393.2 444.6 407 443.7 388.5 464.4C387.7 465.4 387.7 466.8 388.5 467.3 389.5 468.1 390.6 468.3 391.4 467.3Z" fill="rgba(0, 164, 205, 0.21)"></path></g><defs><mask id="SvgjsMask1030"><rect width="1440" height="560" fill="#ffffff"></rect></mask><filter id="SvgjsFilter1031"><feGaussianBlur stdDeviation="1"></feGaussianBlur></filter></defs></svg>