<svg xmlns="http://www.w3.org/2000/svg" version="1.1" xmlns:xlink="http://www.w3.org/1999/xlink" xmlns:svgjs="http://svgjs.dev/svgjs" width="1440" height="560" preserveAspectRatio="none" viewBox="0 0 1440 560">
  <g mask="url(&quot;#SvgjsMask1060&quot;)" fill="none">
    <path d="M -162.84259850789235,298 C -90.84,290 53.16,206.8 197.15740149210765,258 C 341.16,309.2 413.16,551.4 557.1574014921076,554 C 701.16,556.6 773.16,280 917.1574014921076,271 C 1061.16,262 1133.16,555.4 1277.1574014921077,509 C 1421.16,462.6 1604.59,76.2 1637.1574014921077,39 C 1669.73,1.8 1479.43,266.2 1440,323" stroke="#015593" stroke-width="2"></path>
    <path d="M -169.5278749277032,166 C -97.53,233.8 46.47,487.2 190.4721250722968,505 C 334.47,522.8 406.47,287.4 550.4721250722968,255 C 694.47,222.6 766.47,343.6 910.4721250722968,343 C 1054.47,342.4 1126.47,243 1270.4721250722969,252 C 1414.47,261 1596.57,405 1630.4721250722969,388 C 1664.38,371 1478.09,211.2 1440,167" stroke="#015593" stroke-width="2"></path>
    <path d="M -92.99807511599738,355 C -21,320.4 123,175.6 267.0019248840026,182 C 411,188.4 483,412 627.0019248840026,387 C 771,362 843,58.6 987.0019248840026,57 C 1131,55.4 1203,368.4 1347.0019248840026,379 C 1491,389.6 1688.4,122.2 1707.0019248840026,110 C 1725.6,97.8 1493.4,276.4 1440,318" stroke="#015593" stroke-width="2"></path>
  </g>
  <defs>
    <mask id="SvgjsMask1060">
      <rect width="1440" height="560" fill="#ffffff"></rect>
    </mask>
  </defs>
</svg>
